<?xml version="1.0" encoding="utf-8"?><svg xmlns="http://www.w3.org/2000/svg" xmlns:xlink="http://www.w3.org/1999/xlink"><symbol viewBox="0 0 20.85 8.63" id="FAQ" xmlns="http://www.w3.org/2000/svg"><path d="M2.24 2.09v2.13h3.38v1.1H2.24V8H.94V1h5.11v1.09H2.24zm9.304 4.29h-3.5L7.354 8h-1.34l3.15-7h1.28l3.16 7h-1.36l-.7-1.62zm-.43-1.02L9.794 2.3l-1.31 3.06h2.63zM21.788 8.7c-.233.273-.507.48-.82.62-.307.14-.643.21-1.01.21-.48 0-.92-.11-1.32-.33-.4-.213-.857-.587-1.37-1.12a3.834 3.834 0 01-1.74-.56 3.476 3.476 0 01-1.2-1.27 3.601 3.601 0 01-.43-1.75c0-.68.163-1.293.49-1.84a3.398 3.398 0 011.35-1.29c.573-.313 1.217-.47 1.93-.47.713 0 1.357.157 1.93.47a3.418 3.418 0 011.35 1.28c.327.547.49 1.163.49 1.85 0 .553-.11 1.067-.33 1.54-.22.467-.527.867-.92 1.2-.393.327-.85.563-1.37.71.193.207.383.357.57.45.187.093.387.14.6.14.46 0 .86-.187 1.2-.56l.6.72zm-6.58-4.2c0 .467.107.89.32 1.27.213.373.507.667.88.88.373.207.793.31 1.26.31.467 0 .887-.103 1.26-.31.373-.213.667-.507.88-.88.213-.38.32-.803.32-1.27 0-.467-.107-.887-.32-1.26a2.234 2.234 0 00-.88-.88 2.494 2.494 0 00-1.26-.32c-.467 0-.887.107-1.26.32-.373.207-.667.5-.88.88-.213.373-.32.793-.32 1.26z"/></symbol><symbol viewBox="0 0 480.026 480.026" id="arrows" xmlns="http://www.w3.org/2000/svg"><path d="M475.922 229.325l-144-160c-3.072-3.392-7.36-5.312-11.904-5.312h-96a16.052 16.052 0 00-14.624 9.472c-2.56 5.792-1.504 12.544 2.72 17.216l134.368 149.312-134.368 149.28c-4.224 4.704-5.312 11.456-2.72 17.216 2.592 5.792 8.32 9.504 14.624 9.504h96c4.544 0 8.832-1.952 11.904-5.28l144-160c5.472-6.08 5.472-15.36 0-21.408z"/><path d="M267.922 229.325l-144-160c-3.072-3.392-7.36-5.312-11.904-5.312h-96a16.052 16.052 0 00-14.624 9.472c-2.56 5.792-1.504 12.544 2.72 17.216l134.368 149.312L4.114 389.293c-4.224 4.704-5.312 11.456-2.72 17.216 2.592 5.792 8.32 9.504 14.624 9.504h96c4.544 0 8.832-1.952 11.904-5.28l144-160c5.472-6.08 5.472-15.36 0-21.408z"/></symbol><symbol viewBox="0 0 414.72 543.28" id="flip" xmlns="http://www.w3.org/2000/svg"><path d="M479 265.166c0 57.977-25.452 112.68-69.818 150.09l-38.538-45.727c30.854-26.013 48.551-64.055 48.551-104.363 0-72.504-56.885-131.795-128.352-136.009H261.59l24.636 62.368a4.986 4.986 0 01-1.643 5.822 4.984 4.984 0 01-6.053-.024l-122.498-94.185a5.005 5.005 0 01-1.954-3.966c0-1.554.724-3.021 1.954-3.963l122.51-94.18A4.933 4.933 0 01281.58 0a5.002 5.002 0 014.658 6.833l-24.636 62.358 21.185.062v-.316c7.571 0 15.043.479 22.396 1.321 4.877.508 10.32 1.229 14.452 2.202C410.257 89.761 479 169.562 479 265.166zm-214.263 80.791a4.975 4.975 0 00-6.053-.023 5.01 5.01 0 00-1.64 5.828l24.636 62.365h-29.252c-71.452-4.221-128.346-63.518-128.346-136.014 0-37.728 15.058-72.832 42.398-98.845l-41.231-43.326C85.93 173.36 64.276 223.844 64.276 278.113c0 95.596 68.733 175.402 159.375 192.703 4.14.97 9.581 1.69 14.455 2.199 7.353.845 14.818 1.324 22.396 1.324v-.319l21.184.064-24.636 62.358a4.996 4.996 0 004.655 6.833 4.968 4.968 0 003.044-1.028l122.492-94.188a4.99 4.99 0 000-7.921l-122.504-94.181z"/></symbol><symbol viewBox="0 0 8.15 28" id="i_2" xmlns="http://www.w3.org/2000/svg"><path d="M16.926 19.578c.604 0 1.094-.49 1.094-1.094v-4.101a4.051 4.051 0 00-4.047-4.047 4.051 4.051 0 00-4.047 4.047v9.57A4.051 4.051 0 0013.973 28a4.051 4.051 0 004.046-4.047 1.094 1.094 0 10-2.187 0c0 1.025-.834 1.86-1.86 1.86a1.861 1.861 0 01-1.859-1.86v-9.57c0-1.025.834-1.86 1.86-1.86 1.025 0 1.859.835 1.859 1.86v4.101c0 .604.49 1.094 1.094 1.094zM14.027 0A4.051 4.051 0 009.98 4.047a4.051 4.051 0 004.047 4.047 4.051 4.051 0 004.047-4.047A4.051 4.051 0 0014.027 0zm0 5.906a1.861 1.861 0 01-1.859-1.86c0-1.024.834-1.859 1.86-1.859 1.025 0 1.859.835 1.859 1.86 0 1.025-.834 1.86-1.86 1.86z"/></symbol><symbol viewBox="0 0 270.345 93.65" id="m" xmlns="http://www.w3.org/2000/svg"><path d="M270.345 74.49v19.16H0V74.49h20.06q35.87 0 49.827-9.205 13.959-9.155 17.96-28.565Q89.95 26.14 91 0h82.895q.826 23.112 2.55 33.818c2.252 13.758 7.855 23.963 16.91 30.667q13.582 9.98 51.928 10.005z"/></symbol><symbol viewBox="0 0 64 64" id="moon" xmlns="http://www.w3.org/2000/svg"><path d="M52.47 52.47a29 29 0 01-49-14.79 24.19 24.19 0 0033.65-.55 24.19 24.19 0 00.55-33.65 29 29 0 0114.79 49z"/><path d="M19 30.53A5.35 5.35 0 0020.52 32 5.35 5.35 0 0019 33.47 5.35 5.35 0 0017.57 32 5.36 5.36 0 0019 30.53zm14.47-12.32A5.32 5.32 0 0032 19.68a5.34 5.34 0 00-1.47-1.47A5.35 5.35 0 0032 16.73a5.37 5.37 0 001.47 1.48zM15.4 13.92a5.35 5.35 0 001.47 1.47 5.35 5.35 0 00-1.47 1.47 5.35 5.35 0 00-1.47-1.47 5.35 5.35 0 001.47-1.47z"/></symbol><symbol viewBox="0 0 270.345 122.057" id="n" xmlns="http://www.w3.org/2000/svg"><path d="M270.345 0v25.242q-47.254 3.855-74.407 18.124Q168.653 57.7 161.27 77.768q-5.438 14.631-6.854 44.289H126.67q-1.383-37.368-9.886-53.91c-6.789-13.248-20.628-23.66-41.521-31.372Q44.025 25.21 0 25.242V0z"/></symbol><symbol viewBox="0 0 13.07 18" id="q" xmlns="http://www.w3.org/2000/svg"><path d="M8.491 13.5H5.116a.54.54 0 00-.394.168.54.54 0 00-.168.394v3.376c0 .15.056.28.168.393a.54.54 0 00.394.169h3.375a.54.54 0 00.394-.169.539.539 0 00.169-.393v-3.376a.538.538 0 00-.17-.393.539.539 0 00-.393-.17zm4.43-10.104a5.831 5.831 0 00-1.49-1.793A7.623 7.623 0 009.376.436 6.303 6.303 0 007.113 0C4.263 0 2.088 1.247.588 3.74a.555.555 0 00.14.746l2.307 1.758c.122.075.24.112.352.112a.547.547 0 00.436-.225c.675-.844 1.176-1.383 1.504-1.617.404-.272.91-.408 1.52-.408.57 0 1.075.15 1.51.45.437.3.654.647.654 1.04 0 .441-.117.798-.351 1.07-.234.271-.628.534-1.181.787-.731.328-1.402.837-2.011 1.526-.61.689-.914 1.423-.914 2.2v.633c0 .179.049.354.147.528.099.173.218.26.359.26h3.375c.15 0 .281-.072.394-.218a.736.736 0 00.169-.457c0-.234.128-.548.386-.942.258-.394.579-.699.964-.914.365-.207.65-.373.857-.5a7.13 7.13 0 00.81-.611c.332-.282.59-.56.772-.837.183-.277.347-.635.493-1.076a4.5 4.5 0 00.218-1.42c0-.778-.193-1.521-.577-2.229z"/></symbol><symbol viewBox="0 0 32 32" id="sun" xmlns="http://www.w3.org/2000/svg"><path d="M16 8c-4.4 0-8 3.6-8 8s3.6 8 8 8 8-3.6 8-8-3.6-8-8-8zm0-1c.6 0 1-.4 1-1V3c0-.6-.4-1-1-1s-1 .4-1 1v3c0 .6.4 1 1 1zM8.2 9.6c.2.2.5.3.7.3s.5-.1.7-.3c.4-.4.4-1 0-1.4L7.5 6.1c-.4-.4-1-.4-1.4 0s-.4 1 0 1.4l2.1 2.1zM7 16c0-.6-.4-1-1-1H3c-.6 0-1 .4-1 1s.4 1 1 1h3c.6 0 1-.4 1-1zm1.2 6.4l-2.1 2.1c-.4.4-.4 1 0 1.4.2.2.5.3.7.3s.5-.1.7-.3l2.1-2.1c.4-.4.4-1 0-1.4s-1-.4-1.4 0zM16 25c-.6 0-1 .4-1 1v3c0 .6.4 1 1 1s1-.4 1-1v-3c0-.6-.4-1-1-1zm7.8-2.6c-.4-.4-1-.4-1.4 0s-.4 1 0 1.4l2.1 2.1c.2.2.5.3.7.3s.5-.1.7-.3c.4-.4.4-1 0-1.4l-2.1-2.1zM29 15h-3c-.6 0-1 .4-1 1s.4 1 1 1h3c.6 0 1-.4 1-1s-.4-1-1-1zm-5.9-5.1c.3 0 .5-.1.7-.3l2.1-2.1c.4-.4.4-1 0-1.4s-1-.4-1.4 0l-2.1 2.1c-.4.4-.4 1 0 1.4.2.2.4.3.7.3z"/></symbol><symbol viewBox="0 0 24.76 20.61" id="telegram" xmlns="http://www.w3.org/2000/svg"><path d="M1.29 10.853l5.636 1.914 13.379-8.18c.194-.118.392.145.225.3l-10.129 9.322-.377 5.22a.432.432 0 00.734.339l3.119-3.067 5.7 4.316a1.057 1.057 0 001.671-.615l3.97-18.025a1.322 1.322 0 00-1.765-1.52L1.262 9.355c-.697.267-.678 1.258.028 1.498z"/></symbol><symbol viewBox="0 0 977 1086" id="telegram_arr" xmlns="http://www.w3.org/2000/svg"><path d="M651 46.9c-88 38.6-97.6 43.1-98.5 45.5-1.9 5.3.3 7 25.5 19.5l23.5 11.6 5.8 35c4 24.3 6.3 35.5 7.4 36.7.9 1 3 1.8 4.7 1.8 2.7 0 5.6-2.4 21.6-18.5 10.2-10.2 18.8-18.5 19.2-18.5.4 0 12.4 8.4 26.7 18.6 22.7 16.2 26.4 18.5 29.3 18.2 2.3-.2 3.6-1 4.5-2.8C721.8 191.8 758 12.6 758 9.2c0-2.2-3.9-5.2-6.7-5.1-1.6 0-46.7 19.3-100.3 42.8zm74.5 59c-7.9 39.8-14.6 72.6-14.8 72.8-.3.2-65.2-45.5-68.7-48.4-.2-.2 21.6-22.4 48.5-49.3 27-27 49.1-48.7 49.3-48.2.1.4-6.3 33.3-14.3 73.1zM699 41.4c-3.6 3.3-91.6 68.9-92.5 68.9-2.2 0-31.5-14.7-30.8-15.4.7-.7 123-54.7 124.3-54.8.2-.1-.2.5-1 1.3zm-46.7 58.8c-30.1 30.3-27 25.9-30.4 43.8-.6 3.6-1.5 6.8-1.8 7.3-.8.8-5.5-27.5-4.9-29.3.3-1 62.4-48.6 63.8-48.9.2 0-11.8 12.2-26.7 27.1zm-9.2 47l5.9 4.2-9.2 9.3c-5 5.1-9.3 9.1-9.4 9-.6-.6 5.2-26.7 5.9-26.7.4 0 3.5 1.9 6.8 4.2zm301.6-43.6c-1.4 1.4-2.9 4-3.2 5.7-1.7 7.7-13.9 48.9-20 67.2-70 209.8-197.8 381.6-380.1 511-139.1 98.8-320.6 173.3-492.1 202-1.8.3-3.3.3-3.3 0s13-17 28.8-37.3c15.9-20.2 29.2-37.9 29.6-39.4.8-3.4-1.5-9.2-4.2-10.7-3.2-1.7-9.7-1.3-12 .6-1.1 1-19.6 24.2-41.1 51.6C9.5 902.2 8 904.2 8 908.4c0 3.3.6 4.8 2.7 6.8 1.6 1.4 28 16.3 58.9 33.2 61.5 33.6 61.3 33.5 66.8 28 3.5-3.6 3.7-10.4.4-13.7-1.3-1.2-22.4-13.2-47-26.7-24.6-13.4-44.5-24.7-44.3-25.1.3-.3 2.8-.9 5.7-1.3 10.4-1.3 38.7-6.8 60.3-11.6 130.2-29.2 259.1-80.6 372-148.3C594 683.5 691.9 598.4 769.7 500.8c65.9-82.6 119.4-177.3 157.4-278.8 14.5-39 34-102.1 34.3-111.3.1-4.2-.3-5.2-2.7-7.3-4-3.4-10.5-3.3-14 .2zM856 588.8c-88.1 38.6-97.5 43-98.4 45.4-2 5.6-.3 6.8 24.8 19.1 19.2 9.4 23.6 12 24.1 13.9.3 1.2 2.9 17.1 5.9 35.2 5.9 35.2 6.3 36.6 11.9 36.6 2.6 0 5.7-2.6 21.7-18.5 10.2-10.2 18.9-18.5 19.2-18.5.4 0 12.4 8.3 26.6 18.5 26.4 18.9 29.2 20.3 32.6 16.9 2-2-.2 8.2 20.6-95.8 19.8-99.3 19.3-94.8 12-95.3-2.7-.2-24.9 9.1-101 42.5zm74.4 58.6c-11.2 56-15 73.4-15.9 72.8-4.5-2.5-67.4-47.8-67.2-48.4.4-1.3 96.9-98.9 97.4-98.4.2.2-6.2 33.5-14.3 74zm-28.1-63.1c-1.5 1.3-22.6 17.2-46.8 35.4l-44 32.9-15.8-7.4c-8.6-4.2-15.7-7.8-15.7-8.1 0-.6 122.6-54.8 124.3-55 .5-.1-.4 1-2 2.2zm-44.5 57.4L830 669.5l-2.5 12.4c-1.4 6.8-2.5 12.7-2.6 13-.1.3-1.4-6.6-2.9-15.4-2-11.6-2.5-16.2-1.6-16.7.6-.4 15.3-11.5 32.6-24.7s31.7-24 32-24c.3-.1-12 12.4-27.2 27.6zm-9.5 47.7l5.7 4-9.2 9.3c-5 5.1-9.3 9.1-9.5 9-.1-.2.9-6.5 2.4-13.9 1.7-8.7 3.1-13.4 3.8-13.1.5.4 3.6 2.5 6.8 4.7zM280.5 925.6c-53.3 23.4-97.6 43.2-98.2 44.1-1.8 2.4-1.6 6.7.5 8.5.9.9 11.9 6.6 24.4 12.6 18.6 9 22.8 11.4 23.3 13.4.3 1.2 2.9 17.1 5.9 35.2 5.9 35.2 6.3 36.6 11.9 36.6 2.6 0 5.7-2.6 21.7-18.5 10.2-10.2 18.8-18.5 19.1-18.5.3 0 12.2 8.3 26.5 18.5 26.1 18.7 28.8 20.1 32.7 17.3 2.4-1.8 39.1-184.7 37.7-188.2-.9-2.5-2.9-3.6-6.3-3.6-1.2.1-45.8 19.2-99.2 42.6zm74 58.6c-8.1 40.3-14.8 73.4-14.9 73.6-.2.1-65-45.7-68.5-48.4-.2-.2 21.6-22.6 48.5-49.8 26.8-27.3 48.9-49.4 49.2-49.2.2.2-6.3 33.4-14.3 73.8zm-26-64.4c-.6.5-21.2 16.1-46 34.7-24.7 18.6-45.5 34.1-46 34.6-1 .8-32.5-13.8-32.5-15 0-.5 123.7-55 125-55.1.2 0 0 .4-.5.8zm-47.2 59.4l-27.3 27.3-2.5 12.4c-1.4 6.8-2.5 12.7-2.6 13-.1.3-1.4-6.6-2.9-15.4-2.5-14.6-2.6-16.1-1.1-17.2.9-.6 15.3-11.5 32.1-24.1 16.8-12.7 30.7-23.1 31-23.1.3-.1-11.8 12.2-26.7 27.1zm-9.1 47.3l5.7 4.1-9.6 9.5c-7.3 7.2-9.4 8.8-9 6.9.3-1.4 1.6-7.8 2.8-14.2 1.5-7.4 2.7-11.4 3.3-11 .6.3 3.7 2.4 6.8 4.7z"/></symbol><symbol viewBox="0 0 24.71 27.96" id="ticktok" xmlns="http://www.w3.org/2000/svg"><path d="M25.267 7.021A7.044 7.044 0 0121.011 5.6 7.06 7.06 0 0118.197.02h-4.564v12.473l-.006 6.832a4.132 4.132 0 01-2.838 3.92 4.153 4.153 0 01-1.534.204 4.114 4.114 0 01-1.89-.58 4.131 4.131 0 01-2.02-3.481 4.135 4.135 0 014.141-4.192c.456 0 .893.074 1.303.209V10.77a8.98 8.98 0 00-1.317-.097 8.753 8.753 0 00-6.577 2.942 8.563 8.563 0 00-2.16 5.165 8.552 8.552 0 002.547 6.663 8.754 8.754 0 006.19 2.534 8.98 8.98 0 001.317-.097 8.724 8.724 0 004.874-2.437 8.546 8.546 0 002.563-6.082L18.203 9.16a11.54 11.54 0 007.078 2.405V7.02l-.014.001z"/></symbol><symbol viewBox="0 0 28.08 24.43" id="twitter" xmlns="http://www.w3.org/2000/svg"><path d="M27.876 4.99a.835.835 0 00-.784-.395l-1.396.122 1.335-2.69A.835.835 0 0025.916.904l-3.532 1.73c-2.183-1.152-4.909-.81-6.785.9-1.566 1.425-2.389 3.619-2.235 5.806-4.092-.41-7.556-2.752-9.605-6.537a.835.835 0 00-1.405-.1C1.084 4.421.994 6.774 1.99 8.71c-.274-.07-.566-.164-.89-.272a.835.835 0 00-1.089.928c.394 2.39 1.787 4.225 3.988 5.312-.286.1-.579.181-.876.243a.835.835 0 00-.44 1.388c1.586 1.694 3.875 2.528 5.501 2.928-1.849 1.448-3.845 1.69-6.745 1.59a.837.837 0 00-.647 1.396C2 23.556 6.406 25.058 11.036 25.171c.183.005.37.007.561.007 3.251 0 7.548-.697 10.632-3.781 2.335-2.335 3.795-5.022 4.34-7.987.44-2.396.162-4.314.028-5.235l-.029-.203 1.306-2.105a.835.835 0 00.002-.877z"/></symbol></svg>