<svg width="72" height="72" viewBox="0 0 72 72" fill="none" xmlns="http://www.w3.org/2000/svg">
<path d="M71.9437 65.0165C70.5642 60.7722 68.442 56.7398 66.6379 52.7076C66.4257 52.177 65.5768 52.177 65.2585 52.4954C63.4548 54.4054 61.4387 56.3154 60.2713 58.6498H60.1651C47.2196 59.6048 34.6984 48.5691 25.7851 40.5048C15.4923 31.2731 6.15446 20.0253 2.44056 6.54917C2.22834 4.85139 2.01612 3.04749 2.01612 1.2436C2.01612 0.394711 0.848891 0.394711 0.74278 1.2436C0.74278 1.56194 0.74278 1.88027 0.74278 2.1986C0.318334 2.1986 0 2.51694 0 3.04749C0.106111 4.21472 0.424445 5.38194 0.636668 6.54917C1.48556 35.3053 30.1356 63.0004 58.149 64.8043C57.194 66.5021 56.3453 68.3058 55.2842 70.0037C54.7535 70.7463 55.6025 71.4891 56.3453 71.383C61.6509 70.6404 66.4259 68.0936 71.307 66.1837C71.7313 66.0776 72.1557 65.6532 71.9437 65.0165ZM57.7246 69.261C58.3614 67.8815 58.7857 66.5021 59.5285 65.1226C59.7409 64.5919 59.4224 64.1676 59.104 64.0615C59.104 63.7432 58.8918 63.5308 58.5735 63.4248C33.2129 59.1804 12.6273 41.8842 4.98723 18.4335C9.97447 27.6651 17.6145 35.7296 25.1484 42.5207C30.6662 47.5081 36.5023 51.9646 42.869 55.6785C47.8562 58.5435 54.1168 61.1963 59.8468 59.3926C59.5285 60.2415 60.8018 60.6659 61.2263 60.0293C62.6057 58.2254 63.9852 56.5276 65.4707 54.9359C66.9561 58.2254 68.5479 61.5147 69.715 64.9102C65.789 66.396 61.8629 68.306 57.7246 69.261Z" fill="url(#paint0_linear)"/>
<defs>
<linearGradient id="paint0_linear" x1="1.67638e-08" y1="36.0001" x2="72.0001" y2="36.0001" gradientUnits="userSpaceOnUse">
<stop stop-color="#33276C"/>
<stop offset="0.536458" stop-color="#9657B4"/>
<stop offset="1" stop-color="#903367"/>
</linearGradient>
</defs>
</svg>
