<svg width="90" height="90" viewBox="0 0 90 90" fill="none" xmlns="http://www.w3.org/2000/svg">
<g clip-path="url(#clip0)">
<path d="M16.2283 81.4658C17.2206 81.3109 18.2216 81.2164 19.2257 81.1829C22.8055 81.2678 26.3757 81.4752 29.9555 81.5413C34.108 81.6167 38.2701 81.5413 42.4226 81.645C43.3772 81.645 43.7113 81.3621 43.759 80.4474C43.8176 79.6945 44.0082 78.9574 44.3222 78.269C44.3986 78.9574 44.475 79.6364 44.5704 80.3248C44.7136 81.2678 45.2387 81.6733 46.2792 81.6638C49.9735 81.6073 53.6774 81.6638 57.3717 81.6638C57.6829 81.6393 57.9953 81.6945 58.2785 81.8242C51.2622 81.975 44.2459 82.1919 37.22 82.2391C30.1941 82.2862 23.2351 82.1353 16.2283 82.041V81.4658Z" fill="#2F80ED"/>
<path d="M72.3112 89.8867C64.1112 90.2074 55.9111 89.7264 47.7015 89.6416L72.3017 89.1606L72.3112 89.8867Z" fill="#2F80ED"/>
<path d="M78.8696 56.7969L79.2323 56.5801C79.7608 56.4522 80.2555 56.2143 80.6833 55.8822C81.5329 55.6653 82.4207 55.7031 83.2703 55.5522C84.4288 55.4921 85.5871 55.6753 86.6687 56.0897C88.1006 56.4197 88.492 57.3439 88.8834 58.4378C88.8834 58.4378 88.9502 58.4378 89.0075 58.4849C89.3511 58.334 89.3034 57.9946 89.3225 57.7211C89.4802 56.0849 89.445 54.4362 89.2175 52.808C88.8435 50.4219 89.0463 47.9823 89.8093 45.6884C90.0626 44.9806 90.0626 44.2084 89.8093 43.5006C86.9102 34.5275 82.916 25.9365 77.915 17.917C74.7266 12.7211 71.3377 7.67603 66.9179 3.40423C65.4016 2.00087 63.5888 0.947645 61.6103 0.32062C66.4884 5.44111 67.338 12.061 68.8653 18.4828C67.1041 17.2366 65.0811 16.3985 62.9468 16.031C59.7489 15.4464 56.5605 15.4841 53.6967 16.974C50.8329 18.464 47.6254 20.0105 45.4871 22.764C45.1148 23.2355 44.8284 23.2827 44.4275 22.764C43.6502 21.8358 42.766 21.0004 41.7928 20.2745C39.9309 18.9575 37.8774 17.9273 35.7024 17.2192C31.4926 15.6727 27.2637 14.8523 22.9871 17.1249C22.5957 17.3324 22.0325 17.983 21.622 17.5398C21.3643 17.2663 21.4884 16.5308 21.622 16.031C21.9936 13.9607 22.5006 11.9164 23.1398 9.91094C23.9608 7.54401 24.5622 4.88474 26.3855 2.829C27.1301 1.97087 27.8078 1.07502 28.6574 0C26.0227 1.1316 23.6362 2.30092 21.8797 4.35666C12.1359 15.8462 4.74985 29.0999 0.13388 43.378C-0.0379535 43.9568 -0.0379535 44.5721 0.13388 45.1509C0.920558 48.0656 1.08312 51.1103 0.611182 54.0905C0.287229 55.6028 0.366172 57.1722 0.840287 58.6452C0.954839 58.4661 1.04075 58.4661 1.06939 58.4661C1.15023 58.2955 1.21726 58.119 1.26986 57.938C1.64215 56.4857 2.54903 55.92 4.01912 55.6371C5.87105 55.2693 7.57024 55.8068 9.32671 55.9577L9.74674 56.0991L11.78 57.3062C11.8673 57.4288 11.963 57.5454 12.0664 57.6551C13.3074 58.815 14.8061 59.6542 15.8848 60.9839C19.2164 64.935 22.7484 68.707 25.1445 73.356C25.8127 74.6479 27.1014 75.6287 28.1038 76.7508L28.3329 76.5905C24.5603 68.8543 22.1765 60.5297 21.2879 51.9876C23.3498 53.8736 25.6886 55.3541 27.8651 57.0327C32.1704 60.3615 37.0484 62.785 41.745 65.5197C42.5514 65.9036 43.2272 66.511 43.6899 67.2679C44.1527 68.0248 44.3824 68.8984 44.3511 69.7821C44.3511 71.2814 44.4848 72.7808 44.5611 74.2802C44.3034 74.7705 44.4179 75.2232 44.7139 75.9399V74.3368C44.9377 73.5005 45.0342 72.6361 45.0002 71.7718C45.0025 70.5306 45.1957 69.2969 45.573 68.113C45.6948 67.6585 45.9102 67.2338 46.2059 66.8654C46.5016 66.4971 46.8711 66.193 47.2913 65.9723C50.3174 64.3032 53.3912 62.7096 56.3027 60.8707C60.3853 58.2504 64.3032 55.3878 68.0348 52.2988C68.2448 52.1385 68.3785 51.7707 68.8462 51.9876C68.2806 55.8454 67.4901 59.6678 66.4788 63.4357C65.1996 67.7829 64.0446 72.1961 61.5531 76.0907C61.5131 76.1527 61.4919 76.2247 61.4919 76.2982C61.4919 76.3717 61.5131 76.4436 61.5531 76.5057C61.5531 76.5622 61.5531 76.6377 61.5531 76.7037C61.6243 76.6869 61.6921 76.6582 61.7535 76.6188C62.854 75.7439 63.8188 74.7145 64.6173 73.5635C66.2115 70.9325 67.6625 68.2167 69.9822 66.1044C70.0076 66.0752 70.03 66.0436 70.049 66.0101C71.4332 64.3221 72.7124 62.5304 74.2302 60.965C75.748 59.3996 77.3327 58.2114 78.8982 56.8535L78.8696 56.7969Z" fill="#FEFDFD"/>
<path d="M9.32673 55.9388C7.57026 55.7879 5.87107 55.2504 4.01913 55.6182C2.54905 55.9199 1.64217 56.4857 1.26988 57.8908C1.21728 58.0718 1.15025 58.2484 1.06941 58.4189C1.06941 58.4755 0.964404 58.5038 0.83076 58.6075C0.356645 57.1344 0.277703 55.565 0.601655 54.0528C1.07359 51.0726 0.911031 48.0278 0.124353 45.1132C-0.0369834 44.5453 -0.0336759 43.9441 0.1339 43.378C4.74986 29.0999 12.1359 15.8462 21.8798 4.35666C23.6362 2.30092 26.0227 1.1316 28.6384 0C27.7888 1.04673 27.111 1.94258 26.3664 2.829C24.5431 4.91303 23.9417 7.54401 23.0921 10.0335C22.4529 12.039 21.9459 14.0833 21.5743 16.1536C21.4693 16.6534 21.3452 17.3889 21.5743 17.6624C22.0039 18.1056 22.5289 17.4549 22.9394 17.2475C27.216 14.9749 31.4449 15.7953 35.6547 17.3418C37.8296 18.0499 39.8832 19.08 41.7451 20.3971C42.7183 21.1229 43.6025 21.9584 44.3798 22.8866C44.7807 23.3864 45.0671 23.3393 45.4394 22.8866C47.5777 20.1331 50.6992 18.6903 53.649 17.0966C56.5987 15.5029 59.7011 15.5312 62.8991 16.1536C65.0302 16.5098 67.0529 17.3348 68.8176 18.5677C67.3571 12.061 66.4884 5.44111 61.6104 0.32062C63.5888 0.947645 65.4017 2.00087 66.9179 3.40423C71.3378 7.67603 74.7266 12.7211 77.915 17.917C82.9173 25.9271 86.9146 34.5086 89.8189 43.4723C90.0722 44.1801 90.0722 44.9523 89.8189 45.6601C89.0481 47.9621 88.842 50.412 89.2175 52.808C89.448 54.4486 89.4832 56.1102 89.3225 57.7588C89.3225 58.0323 89.3225 58.3717 89.0075 58.5226C88.9502 58.5226 88.8929 58.5226 88.8834 58.4755C88.492 57.3816 88.1006 56.4575 86.6687 56.1274C85.5871 55.7131 84.4288 55.5299 83.2703 55.5899C82.4207 55.7408 81.5329 55.7031 80.6833 55.9199C82.268 54.8072 84.0913 54.7978 85.9241 54.8261C87.4228 54.8261 87.5851 54.7035 87.5374 53.2135C87.3285 49.0552 86.5251 44.947 85.1509 41.0111C82.9509 34.2907 80.3008 27.7224 77.2181 21.3495C75.3343 17.1908 73.1588 13.1669 70.7077 9.30742C69.8254 7.92742 68.7737 6.66048 67.5766 5.53541C67.7962 7.42142 67.4239 8.99623 67.9012 10.5616C68.7317 13.2492 69.419 15.9839 70.0777 18.7186C70.8761 21.6549 71.3498 24.6681 71.4905 27.7054C71.5764 31.7886 71.605 35.8812 71.4905 39.9644C71.4759 42.4905 71.2717 45.0121 70.8796 47.5084C70.2018 51.4596 69.2185 55.3636 68.3976 59.2865C67.8439 61.9269 66.8798 64.5107 67.0421 67.2831C67.3284 67.2831 67.443 67.0662 67.5766 66.9059C69.4285 64.7876 71.4081 62.7817 73.5047 60.899C75.118 59.3242 76.6549 57.6173 78.8887 56.8158C77.3231 58.1737 75.6048 59.409 74.1729 60.9273C72.741 62.4455 71.3759 64.2844 69.9918 66.0101C69.9727 66.0436 69.9504 66.0752 69.9249 66.1044C67.6053 68.2167 66.1065 70.9325 64.5601 73.5635C63.7615 74.7145 62.7967 75.7439 61.6963 76.6188C61.6349 76.6582 61.5671 76.6869 61.4958 76.7037C61.4958 76.6377 61.4958 76.5622 61.4958 76.5057C61.4559 76.4436 61.4347 76.3717 61.4347 76.2982C61.4347 76.2247 61.4559 76.1527 61.4958 76.0907C63.9873 72.1961 65.1424 67.7829 66.4216 63.4357C67.4329 59.6678 68.2233 55.8454 68.789 51.9876C68.3212 51.7707 68.1876 52.1385 67.9776 52.2988C64.2695 55.3724 60.3772 58.2223 56.3219 60.833C53.458 62.6718 50.3365 64.2655 47.3104 65.9346C46.8902 66.1553 46.5207 66.4594 46.225 66.8277C45.9294 67.1961 45.7139 67.6208 45.5921 68.0752C45.2148 69.2592 45.0217 70.4928 45.0194 71.7341C45.0533 72.5984 44.9568 73.4628 44.733 74.299C44.728 74.2844 44.7198 74.271 44.709 74.2599C44.6981 74.2488 44.6849 74.2402 44.6702 74.2348C44.6556 74.2294 44.6399 74.2272 44.6244 74.2286C44.6088 74.2299 44.5937 74.2346 44.5802 74.2425C44.5039 72.7431 44.3511 71.2437 44.3702 69.7443C44.4015 68.8607 44.1718 67.9871 43.709 67.2302C43.2463 66.4733 42.5705 65.8659 41.7642 65.482C37.0675 62.785 32.2181 60.3615 27.8842 56.995C25.7077 55.3164 23.3689 53.8548 21.307 51.9499C22.212 60.4814 24.6086 68.793 28.3902 76.5151L28.1611 76.6754C27.1587 75.5532 25.87 74.5725 25.2018 73.2806C22.8057 68.6316 19.2737 64.8596 15.9421 60.9084C14.8252 59.5788 13.3265 58.7395 12.1237 57.5796C12.0203 57.4699 11.9246 57.3534 11.8373 57.2307C12.4105 57.2957 12.9416 57.5598 13.3361 57.9757C16.1793 60.3617 18.8552 62.9357 21.3452 65.68C21.7843 66.1609 22.2139 66.623 22.653 67.1605C22.8125 65.9251 22.7576 64.6718 22.4907 63.4545C20.0515 53.7096 18.6659 43.7366 18.3573 33.7029C18.1921 26.9569 19.1136 20.2279 21.0874 13.7678C21.727 11.5518 22.6339 9.364 22.1757 6.96878C22.1184 6.66702 22.3857 6.19552 21.9561 6.09178C21.5266 5.98806 21.4311 6.4407 21.2115 6.68588C19.0276 9.34216 17.1811 12.2525 15.713 15.3521C12.766 20.9086 10.1336 26.6226 7.828 32.4675C5.43195 38.5593 3.265 44.7265 2.38676 51.2427C2.31093 52.0766 2.27907 52.9138 2.2913 53.751C2.2913 54.5054 2.6636 54.8544 3.41774 54.8449C3.91413 54.8449 4.37234 54.8449 4.89737 54.8449C6.45511 54.7223 8.01069 55.1064 9.32673 55.9388ZM69.6863 22.9338C69.6811 22.9618 69.6811 22.9906 69.6863 23.0187C69.6863 23.0187 69.6863 23.0187 69.7531 23.0187L69.6577 22.9149C69.6838 22.1627 69.5236 21.4155 69.1908 20.7384C68.8581 20.0613 68.3629 19.4748 67.7485 19.0298C66.0487 17.6904 64.0315 16.8011 61.8872 16.4459C60.3339 16.1039 58.7093 16.29 57.2765 16.974C58.0401 17.1155 58.5556 17.2192 59.0711 17.3041C61.1617 17.6624 63.2905 17.8982 65.1042 19.1901C66.7204 20.3278 68.2518 21.579 69.6863 22.9338ZM12.7919 18.86C12.2192 18.9637 12.076 19.5013 11.8373 19.8973C10.8827 21.5193 9.92813 23.1601 9.07853 24.8198C6.07945 30.3556 3.55062 36.1277 1.51807 42.0767C1.13623 43.1989 0.420281 44.321 0.706662 45.5469C1.04837 46.8903 1.27824 48.2591 1.39398 49.6396C1.83309 49.4227 1.79491 49.0549 1.85219 48.6966C3.49548 41.0175 5.9926 33.5413 9.29809 26.404C10.4245 23.8673 11.6178 21.3495 12.7824 18.86C12.8397 18.7751 13.0688 18.728 12.8492 18.5771L12.7919 18.86ZM70.8414 38.729C70.8813 34.7227 70.6453 30.7182 70.135 26.7435C70.1057 26.1441 69.9531 25.5569 69.6863 25.0178C68.8605 23.4548 67.7088 22.0825 66.307 20.9912C62.9182 18.5583 59.2239 17.2192 55.0713 18.1622C51.1288 19.0109 47.6445 20.6989 45.6208 24.4709C45.0671 25.4987 44.8571 25.4139 44.2461 24.4143C43.7841 23.5049 43.1783 22.674 42.4515 21.9531C36.9243 17.2381 30.0416 16.4176 23.8462 20.8026C21.4311 22.5189 19.856 24.5746 19.6078 27.5922C19.331 31.0436 19.3882 34.495 19.3787 37.9652C19.3787 40.5207 19.8083 43.048 19.9706 45.5847C20.1021 48.0788 21.1156 50.4483 22.8344 52.28C24.7436 54.4111 27.3401 55.7031 29.6884 57.2967C34.2801 60.3521 39.139 62.8982 43.912 65.6423C44.2325 65.8129 44.5929 65.8967 44.9568 65.8851C45.3206 65.8735 45.6748 65.7669 45.9835 65.5763C53.0124 61.923 59.7182 57.6929 66.0302 52.9306C67.5384 51.799 69.1613 50.5448 69.5908 48.6683C70.497 45.4333 70.9183 42.0847 70.8414 38.729ZM88.1961 49.5547L88.5779 49.451C88.541 48.6786 88.6084 47.9048 88.7784 47.15C89.2696 45.6482 89.1847 44.0204 88.5397 42.5765C85.8022 34.7094 82.2849 27.1286 78.0391 19.9445C77.7676 19.2534 77.3003 18.6543 76.6931 18.2188C81.7716 28.3749 86.115 38.5593 88.1961 49.5547ZM20.4001 22.632C22.0611 21.4344 23.4167 20.0199 25.0681 18.9543C26.8291 17.959 28.7789 17.333 30.7958 17.1155C30.622 17.0044 30.4363 16.9127 30.2421 16.842C28.689 16.596 27.1011 16.6719 25.5793 17.0648C24.0575 17.4576 22.6351 18.1589 21.4025 19.1241C20.8821 19.5295 20.5048 20.0872 20.3248 20.7173C20.1448 21.3474 20.1711 22.0176 20.4001 22.632Z" fill="#2F80ED"/>
<path d="M9.32646 55.9386C8.01503 55.093 6.4591 54.6955 4.8971 54.807C4.41025 54.807 3.9425 54.807 3.41746 54.807C2.66333 54.807 2.27194 54.4675 2.29103 53.7131C2.28011 52.8885 2.31197 52.0638 2.38649 51.2424C3.26473 44.7169 5.43168 38.5591 7.82773 32.4673C10.1333 26.6224 12.7657 20.9084 15.7128 15.3518C17.1808 12.2523 19.0274 9.34195 21.2113 6.68566C21.4308 6.44048 21.5931 5.99727 21.9559 6.09157C22.3186 6.18587 22.1181 6.6668 22.1754 6.96856C22.6336 9.36378 21.7268 11.5515 21.0872 13.7676C19.09 20.2367 18.149 26.9788 18.2997 33.7403C18.6084 43.7741 19.9939 53.7471 22.4332 63.492C22.7001 64.7093 22.755 65.9626 22.5954 67.198C22.1563 66.6982 21.7268 66.1984 21.2876 65.7175C18.7976 62.9732 16.1218 60.3992 13.2785 58.0132C12.8841 57.5973 12.3529 57.3333 11.7798 57.2682L9.74648 56.0612L9.32646 55.9197V55.9386Z" fill="#D7C7FF"/>
<path d="M78.8407 56.8158C76.6069 57.6173 75.0222 59.3241 73.4567 60.8989C71.3849 62.7991 69.4307 64.8208 67.605 66.953C67.4713 67.1133 67.3568 67.3396 67.0704 67.3302C66.9081 64.5578 67.8723 61.974 68.4259 59.3336C69.2469 55.4107 70.2301 51.5067 70.9079 47.5555C71.3 45.0592 71.5042 42.5376 71.5188 40.0115C71.6048 35.9189 71.5761 31.8262 71.5188 27.7525C71.3781 24.7152 70.9044 21.702 70.106 18.7657C69.4474 16.031 68.7601 13.2963 67.9295 10.6087C67.4522 9.04333 67.8245 7.48738 67.605 5.58252C68.8021 6.70758 69.8537 7.97452 70.7361 9.35452C73.186 13.2049 75.3614 17.2192 77.2465 21.3684C80.3174 27.7266 82.9579 34.2791 85.1506 40.9828C86.5248 44.9187 87.3282 49.0269 87.5371 53.1852C87.5371 54.6751 87.4225 54.8166 85.9238 54.7977C84.091 54.7977 82.2677 54.7977 80.683 55.8916C80.2544 56.2203 79.7597 56.455 79.232 56.58L78.8693 56.7875L78.8407 56.8158Z" fill="#D7C7FF"/>
<path d="M9.32654 55.9199L9.74656 56.0614L9.32654 55.9199Z" fill="#2F80ED"/>
<path d="M78.8694 56.797L79.2321 56.5801L78.8694 56.797Z" fill="#2F80ED"/>
<path d="M70.8411 38.7292C70.9491 42.0802 70.56 45.4287 69.686 48.6684C69.2565 50.5544 67.6336 51.7992 66.1254 52.9308C59.8134 57.693 53.1076 61.9231 46.0787 65.5764C45.77 65.7671 45.4158 65.8736 45.0519 65.8852C44.6881 65.8968 44.3276 65.813 44.0072 65.6424C39.1387 62.8983 34.2798 60.3522 29.7359 57.2686C27.3876 55.6372 24.8197 54.383 22.9105 52.2518C21.1917 50.4201 20.1782 48.0507 20.0467 45.5565C19.8844 43.0198 19.4548 40.4926 19.4548 37.937C19.4548 34.4762 19.4071 31.0248 19.6839 27.564C19.9321 24.5559 21.5072 22.4907 23.9223 20.7744C30.1082 16.3895 37.0004 17.1722 42.5276 21.9249C43.2544 22.6459 43.8602 23.4767 44.3222 24.3861C44.9332 25.3951 45.1432 25.4706 45.6968 24.4427C47.7206 20.6707 51.2049 18.9827 55.1474 18.134C59.2999 17.2476 62.9943 18.5489 66.3831 20.963C67.7604 22.0703 68.8859 23.4519 69.686 25.0179C69.9528 25.557 70.1055 26.1442 70.1347 26.7436C70.645 30.7184 70.881 34.7228 70.8411 38.7292ZM55.0901 43.3782C55.1347 42.0582 54.9132 40.7427 54.4386 39.508C53.964 38.2733 53.2458 37.1441 52.3256 36.186C51.4055 35.2279 50.3017 34.46 49.0785 33.9269C47.8554 33.3938 46.5371 33.1061 45.2004 33.0806C38.3273 32.892 34.3657 37.9276 34.3657 43.1424C34.4325 49.6114 38.0123 53.5154 44.4177 53.7889C50.594 54.0341 55.0233 49.4888 55.0901 43.3782Z" fill="#D7C7FF"/>
<path d="M88.1958 49.5545C86.1148 38.5591 81.7714 28.3747 76.7406 18.1714C77.3478 18.6069 77.8151 19.206 78.0866 19.8971C82.3324 27.0812 85.8497 34.662 88.5872 42.5291C89.2286 43.9927 89.2967 45.6395 88.7781 47.1498C88.5953 47.9029 88.5151 48.6767 88.5395 49.4507L88.1958 49.5545Z" fill="#D7C7FF"/>
<path d="M12.7822 18.8599C11.6176 21.3777 10.4243 23.8955 9.29789 26.4039C5.9924 33.5412 3.49528 41.0174 1.85198 48.6964C1.79471 49.017 1.85198 49.3848 1.39378 49.6394C1.27804 48.259 1.04817 46.8902 0.706461 45.5468C0.42008 44.3209 1.13603 43.1987 1.51787 42.0765C3.55447 36.1337 6.08649 30.3679 9.08788 24.8385C9.97566 23.1788 10.9016 21.538 11.8467 19.916C12.0758 19.52 12.219 18.973 12.8013 18.8787L12.7822 18.8599Z" fill="#D7C7FF"/>
<path d="M69.6861 22.9338C68.2403 21.5678 66.6961 20.3072 65.0658 19.1618C63.252 17.9076 61.1233 17.6719 59.0327 17.2758C58.5172 17.1909 58.0017 17.0872 57.238 16.9457C58.7035 16.2441 60.3694 16.0642 61.9538 16.4365C64.0981 16.7917 66.1153 17.681 67.815 19.0203C68.4295 19.4654 68.9247 20.0519 69.2574 20.729C69.5901 21.4061 69.7504 22.1533 69.7243 22.9055L69.6861 22.9338Z" fill="#D7C7FF"/>
<path d="M20.3999 22.632C20.1656 22.0223 20.1317 21.3553 20.3031 20.7256C20.4745 20.0958 20.8423 19.5354 21.3545 19.124C22.5871 18.1589 24.0095 17.4576 25.5313 17.0647C27.0531 16.6718 28.641 16.596 30.1941 16.8419C30.3883 16.9127 30.574 17.0044 30.7478 17.1154C28.7309 17.3329 26.7811 17.9589 25.0201 18.9543C23.4164 20.0387 22.0609 21.4532 20.3999 22.632Z" fill="#D7C7FF"/>
<path d="M12.7916 18.8602L12.8489 18.5679C13.0685 18.7188 12.8489 18.7659 12.7821 18.8508L12.7916 18.8602Z" fill="#D7C7FF"/>
<path d="M69.686 22.9243L69.7815 23.028C69.7815 23.028 69.7338 23.028 69.7147 23.028C69.7095 23 69.7095 22.9712 69.7147 22.9432L69.686 22.9243Z" fill="#D7C7FF"/>
<path d="M55.0902 43.3779C55.0233 49.4885 50.594 54.0338 44.4463 53.7509C38.0409 53.5246 34.4612 49.6111 34.3657 43.1421C34.3657 37.9274 38.3273 32.8917 45.2005 33.0803C46.5372 33.1058 47.8554 33.3935 49.0786 33.9266C50.3017 34.4597 51.4055 35.2276 52.3256 36.1857C53.2458 37.1439 53.964 38.2731 54.4386 39.5077C54.9132 40.7424 55.1347 42.0579 55.0902 43.3779ZM44.6754 52.8079C50.8422 52.6382 53.7919 48.9416 54.0783 43.6042C54.1252 42.3721 53.9209 41.1433 53.4778 39.9906C53.0346 38.838 52.3615 37.7851 51.4984 36.8944C50.6353 36.0037 49.5999 35.2934 48.4535 34.8056C47.3072 34.3179 46.0734 34.0626 44.8252 34.055C43.5771 34.0475 42.3402 34.2877 41.1878 34.7615C40.0355 35.2353 38.9913 35.9329 38.1172 36.8131C37.2431 37.6932 36.5569 38.7379 36.0994 39.885C35.6419 41.0322 35.4224 42.2585 35.454 43.4911C35.7213 49.0359 38.9192 52.6382 44.6754 52.7513V52.8079Z" fill="#2F80ED"/>
<path d="M44.6755 52.7516C38.9479 52.6384 35.7213 48.9796 35.454 43.4347C35.4225 42.2021 35.642 40.9759 36.0995 39.8287C36.557 38.6815 37.2432 37.6369 38.1173 36.7567C38.9914 35.8766 40.0356 35.1789 41.1879 34.7051C42.3402 34.2314 43.5772 33.9911 44.8253 33.9987C46.0734 34.0063 47.3073 34.2615 48.4536 34.7493C49.5999 35.237 50.6354 35.9473 51.4985 36.838C52.3615 37.7287 53.0346 38.7816 53.4778 39.9343C53.921 41.0869 54.1252 42.3158 54.0783 43.5479C53.792 48.8853 50.8422 52.5818 44.6755 52.7516Z" fill="#D7C7FF"/>
<path d="M70.0202 87.803H69.0656V84.7383L68.9319 84.6534L67.4046 87.9256L65.7245 84.2574V87.7842H65.0658V83.2389C66.975 83.3615 66.4118 85.6153 67.5859 86.3791C68.6837 85.6153 68.1778 83.437 70.0584 83.2295L70.0202 87.803Z" fill="#2F80ED"/>
<path d="M42.4417 87.7746H41.7734V83.2387C43.6826 83.3236 43.1385 85.5491 44.2936 86.4072C45.3723 85.634 44.895 83.4839 46.7183 83.2104V87.784H45.7637V84.4458L44.1122 87.9537L42.6326 84.6438L42.4608 84.7004L42.4417 87.7746Z" fill="#2F80ED"/>
<path d="M32.657 87.7934V83.2764C33.8311 83.4084 35.3012 82.8049 36.3513 84.1251C36.6465 84.4763 36.8221 84.9105 36.8529 85.366C36.8838 85.8214 36.7683 86.2749 36.5231 86.6618C35.6353 88.1611 34.1366 87.8028 32.657 87.7934ZM33.5543 85.5208C33.5543 85.8225 33.5543 86.1243 33.5543 86.4638C33.5543 87.4822 34.1843 87.8122 35.0912 87.2842C35.3594 87.0958 35.58 86.849 35.7358 86.5627C35.8916 86.2764 35.9784 85.9585 35.9895 85.6336C36.0006 85.3088 35.9356 84.9858 35.7997 84.6898C35.6638 84.3938 35.4605 84.1328 35.2058 83.9271C34.8321 83.6912 34.382 83.6036 33.9457 83.6819C33.7357 83.7385 33.6498 84.342 33.5734 84.7098C33.5363 84.9785 33.5299 85.2506 33.5543 85.5208Z" fill="#2F80ED"/>
<path d="M56.3216 87.7932L53.5628 84.3795V87.7743H52.78V83.2573C54.5079 83.3799 54.6892 85.4922 56.0639 86.2749V83.295H56.6939V87.6989L56.3216 87.7932Z" fill="#2F80ED"/>
<path d="M28.409 87.7746H27.7408C28.1131 85.8886 27.9413 84.078 27.2349 83.2388C29.335 83.3519 29.4877 85.502 31.0533 86.379L30.8528 83.2954H31.5019V87.6992L31.1487 87.8218L28.409 84.5118V87.7746Z" fill="#2F80ED"/>
<path d="M49.7825 83.1538C50.3908 83.1936 50.962 83.4565 51.3841 83.8909C51.8062 84.3254 52.0487 84.8999 52.064 85.5019C52.0808 85.8019 52.037 86.1023 51.9355 86.3856C51.8339 86.6688 51.6764 86.9294 51.4723 87.1521C51.2681 87.3749 51.0212 87.5554 50.7459 87.6833C50.4706 87.8112 50.1724 87.8838 49.8685 87.8971C49.5551 87.9099 49.2424 87.8571 48.9512 87.7421C48.6599 87.6271 48.3965 87.4526 48.1783 87.23C47.9602 87.0073 47.7921 86.7416 47.6853 86.4503C47.5784 86.159 47.5352 85.8486 47.5583 85.5396C47.5425 84.9344 47.7658 84.3468 48.181 83.9014C48.5962 83.4561 49.1706 83.1879 49.7825 83.1538ZM51.1858 85.8696C51.1858 84.3043 50.7467 83.597 49.8971 83.5404C49.0475 83.4839 48.4461 84.1722 48.4175 85.4264C48.3888 86.6806 48.9616 87.7085 49.8303 87.5765C50.2937 87.4463 50.6938 87.1549 50.9567 86.7561C51.0998 86.4815 51.1781 86.1784 51.1858 85.8696Z" fill="#2F80ED"/>
<path d="M37.6305 83.2388C38.5851 83.4839 39.7974 82.871 40.6852 83.8329L38.6615 83.5122V85.2662L40.332 85.0682L40.3893 85.8886L38.671 85.5208V87.5294L41.048 87.0956C40.1793 88.4913 38.776 87.5011 37.64 87.9161L37.6305 83.2388Z" fill="#2F80ED"/>
<path d="M60.0446 83.3047H60.9992C60.9481 84.3765 60.964 85.4504 61.0469 86.5203C61.1152 86.7429 61.2381 86.9454 61.4046 87.1099C61.5711 87.2744 61.7761 87.3958 62.0015 87.4633C62.412 87.4633 63.1757 87.0767 63.2234 86.7749C63.3147 85.6299 63.3338 84.4804 63.2807 83.333H63.9584C63.9012 84.21 63.8343 85.0775 63.8057 85.9451C63.8057 87.3596 63.2138 87.9442 61.8965 87.9254C60.5791 87.9065 60.2164 87.3784 60.1591 85.9451C60.14 85.0681 60.14 84.2005 60.0446 83.3047Z" fill="#2F80ED"/>
<path d="M19.8081 85.8981L19.9226 87.7841H18.968V83.3803C20.8104 83.088 21.8318 83.3803 21.9177 84.4082C22.0323 85.8133 20.9154 85.8133 19.8081 85.8981ZM19.8081 85.2758L20.0944 85.5021C20.4095 85.3418 20.9059 85.238 21.0013 84.9929C21.0456 84.6212 20.9615 84.2457 20.7627 83.9273C20.6958 83.7952 20.2949 83.8141 20.0563 83.767L19.8081 85.2758Z" fill="#2F80ED"/>
<path d="M24.6288 83.0596L26.7289 87.7746L25.593 87.8312C25.593 87.1239 25.7362 86.3695 24.7052 86.3035C23.8651 86.2469 23.2924 86.4261 23.2446 87.4068C23.2446 87.5765 22.8533 87.7274 22.5287 87.6897L24.6288 83.0596ZM25.1252 85.8886L24.4379 84.2383L23.7983 85.8886H25.1252Z" fill="#2F80ED"/>
<path d="M57.9062 87.6989V83.314H58.9372V87.6989H57.9062Z" fill="#2F80ED"/>
</g>
<defs>
<clipPath id="clip0">
<rect width="90" height="90" fill="white"/>
</clipPath>
</defs>
</svg>
