<svg width="95" height="96" viewBox="0 0 95 96" fill="none" xmlns="http://www.w3.org/2000/svg">
<g clip-path="url(#clip0)">
<path d="M17 86.39C18.0395 86.2257 19.0882 86.1255 20.14 86.09C23.89 86.18 27.63 86.4 31.38 86.47C35.73 86.55 40.09 86.47 44.44 86.58C45.44 86.58 45.79 86.28 45.84 85.31C45.9013 84.5116 46.101 83.73 46.43 83C46.51 83.73 46.59 84.45 46.69 85.18C46.84 86.18 47.39 86.61 48.48 86.6C52.35 86.54 56.23 86.6 60.1 86.6C60.426 86.574 60.7532 86.6325 61.05 86.77C53.7 86.93 46.35 87.16 38.99 87.21C31.63 87.26 24.34 87.1 17 87V86.39Z" fill="#4381E5"/>
<path d="M75.7497 95.3198C67.1597 95.6598 58.5697 95.1498 49.9697 95.0598L75.7397 94.5498L75.7497 95.3198Z" fill="#4381E5"/>
<path d="M82.6199 60.23L82.9999 60C83.5535 59.8644 84.0717 59.6121 84.5199 59.26C85.4099 59.03 86.3399 59.07 87.2299 58.91C88.4435 58.8463 89.6568 59.0406 90.7899 59.48C92.2899 59.83 92.6999 60.81 93.1099 61.97C93.1099 61.97 93.1799 61.97 93.2399 62.02C93.5999 61.86 93.5499 61.5 93.5699 61.21C93.7351 59.4749 93.6982 57.7265 93.4599 56C93.0681 53.4697 93.2806 50.8825 94.0799 48.45C94.3453 47.6994 94.3453 46.8806 94.0799 46.13C91.0429 36.6145 86.8588 27.5042 81.6199 19C78.2799 13.49 74.7299 8.14 70.0999 3.61C68.5115 2.12181 66.6125 1.00492 64.5399 0.34C69.6499 5.77 70.5399 12.79 72.1399 19.6C70.2949 18.2784 68.1757 17.3897 65.9399 17C62.5899 16.38 59.2499 16.42 56.2499 18C53.2499 19.58 49.8899 21.22 47.6499 24.14C47.2599 24.64 46.9599 24.69 46.5399 24.14C45.7256 23.1557 44.7994 22.2697 43.7799 21.5C41.8295 20.1033 39.6783 19.0109 37.3999 18.26C32.9899 16.62 28.5599 15.75 24.0799 18.16C23.6699 18.38 23.0799 19.07 22.6499 18.6C22.3799 18.31 22.5099 17.53 22.6499 17C23.0392 14.8046 23.5703 12.6367 24.2399 10.51C25.0999 8 25.7299 5.18 27.6399 3C28.4199 2.09 29.1299 1.14 30.0199 0C27.2599 1.2 24.7599 2.44 22.9199 4.62C12.7127 16.804 4.97537 30.8588 0.139887 46C-0.0401185 46.6137 -0.0401185 47.2663 0.139887 47.88C0.963976 50.9708 1.13427 54.1996 0.639887 57.36C0.300529 58.9636 0.383225 60.6279 0.879887 62.19C0.999887 62 1.08989 62 1.11989 62C1.20457 61.8192 1.27479 61.6319 1.32989 61.44C1.71989 59.9 2.66989 59.3 4.20989 59C6.14989 58.61 7.92989 59.18 9.76989 59.34L10.2099 59.49L12.3399 60.77C12.4313 60.9001 12.5315 61.0237 12.6399 61.14C13.9399 62.37 15.5099 63.26 16.6399 64.67C20.1299 68.86 23.8299 72.86 26.3399 77.79C27.0399 79.16 28.3899 80.2 29.4399 81.39L29.6799 81.22C25.7279 73.0162 23.2308 64.1884 22.2999 55.13C24.4599 57.13 26.9099 58.7 29.1899 60.48C33.6999 64.01 38.8099 66.58 43.7299 69.48C44.5746 69.8871 45.2825 70.5313 45.7673 71.3339C46.252 72.1365 46.4927 73.0629 46.4599 74C46.4599 75.59 46.5999 77.18 46.6799 78.77C46.4099 79.29 46.5299 79.77 46.8399 80.53V78.83C47.0743 77.9433 47.1754 77.0265 47.1399 76.11C47.1423 74.7938 47.3446 73.4855 47.7399 72.23C47.8674 71.7481 48.0932 71.2977 48.4029 70.9071C48.7126 70.5165 49.0997 70.194 49.5399 69.96C52.7099 68.19 55.9299 66.5 58.9799 64.55C63.2566 61.7713 67.3608 58.7357 71.2699 55.46C71.4899 55.29 71.6299 54.9 72.1199 55.13C71.5273 59.221 70.6993 63.2744 69.6399 67.27C68.2999 71.88 67.0899 76.56 64.4799 80.69C64.4381 80.7558 64.4159 80.8321 64.4159 80.91C64.4159 80.9879 64.4381 81.0642 64.4799 81.13C64.4799 81.19 64.4799 81.27 64.4799 81.34C64.5545 81.3222 64.6256 81.2918 64.6899 81.25C65.8427 80.3222 66.8534 79.2306 67.6899 78.01C69.3599 75.22 70.8799 72.34 73.3099 70.1C73.3365 70.0691 73.36 70.0356 73.3799 70C74.8299 68.21 76.1699 66.31 77.7599 64.65C79.3499 62.99 81.0099 61.73 82.6499 60.29L82.6199 60.23Z" fill="#FEFDFD"/>
<path d="M9.77012 59.32C7.93012 59.16 6.15012 58.59 4.21012 58.98C2.67012 59.3 1.72012 59.9 1.33012 61.39C1.27502 61.5819 1.2048 61.7692 1.12012 61.95C1.12012 62.01 1.01012 62.04 0.870116 62.15C0.373455 60.5879 0.290758 58.9236 0.630116 57.32C1.1245 54.1596 0.954205 50.9308 0.130116 47.84C-0.0388929 47.2378 -0.0354281 46.6003 0.140116 46C4.9756 30.8588 12.7129 16.804 22.9201 4.62C24.7601 2.44 27.2601 1.2 30.0001 0C29.1101 1.11 28.4001 2.06 27.6201 3C25.7101 5.21 25.0801 8 24.1901 10.64C23.5205 12.7667 22.9894 14.9346 22.6001 17.13C22.4901 17.66 22.3601 18.44 22.6001 18.73C23.0501 19.2 23.6001 18.51 24.0301 18.29C28.5101 15.88 32.9401 16.75 37.3501 18.39C39.6285 19.1409 41.7797 20.2333 43.7301 21.63C44.7496 22.3997 45.6759 23.2857 46.4901 24.27C46.9101 24.8 47.2101 24.75 47.6001 24.27C49.8401 21.35 53.1101 19.82 56.2001 18.13C59.2901 16.44 62.5401 16.47 65.8901 17.13C68.1226 17.5077 70.2415 18.3826 72.0901 19.69C70.5601 12.79 69.6501 5.77 64.5401 0.34C66.6127 1.00492 68.5117 2.12181 70.1001 3.61C74.7301 8.14 78.2801 13.49 81.6201 19C86.8603 27.4943 91.0477 36.5944 94.0901 46.1C94.3555 46.8506 94.3555 47.6694 94.0901 48.42C93.2827 50.8611 93.0667 53.4591 93.4601 56C93.7016 57.7397 93.7385 59.5017 93.5701 61.25C93.5701 61.54 93.5701 61.9 93.2401 62.06C93.1801 62.06 93.1201 62.06 93.1101 62.01C92.7001 60.85 92.2901 59.87 90.7901 59.52C89.6571 59.0806 88.4437 58.8863 87.2301 58.95C86.3401 59.11 85.4101 59.07 84.5201 59.3C86.1801 58.12 88.0901 58.11 90.0101 58.14C91.5801 58.14 91.7501 58.01 91.7001 56.43C91.4813 52.0203 90.6396 47.6638 89.2001 43.49C86.8955 36.3634 84.1194 29.3981 80.8901 22.64C78.9167 18.2298 76.6378 13.9628 74.0701 9.87C73.1458 8.40659 72.0441 7.06307 70.7901 5.87C71.0201 7.87 70.6301 9.54 71.1301 11.2C72.0001 14.05 72.7201 16.95 73.4101 19.85C74.2465 22.9638 74.7427 26.1592 74.8901 29.38C74.9801 33.71 75.0101 38.05 74.8901 42.38C74.8748 45.0588 74.6609 47.7328 74.2501 50.38C73.5401 54.57 72.5101 58.71 71.6501 62.87C71.0701 65.67 70.0601 68.41 70.2301 71.35C70.5301 71.35 70.6501 71.12 70.7901 70.95C72.7301 68.7037 74.8038 66.5765 77.0001 64.58C78.6901 62.91 80.3001 61.1 82.6401 60.25C81.0001 61.69 79.2001 63 77.7001 64.61C76.2001 66.22 74.7701 68.17 73.3201 70C73.3002 70.0356 73.2767 70.0691 73.2501 70.1C70.8201 72.34 69.2501 75.22 67.6301 78.01C66.7936 79.2306 65.7829 80.3222 64.6301 81.25C64.5658 81.2918 64.4947 81.3222 64.4201 81.34C64.4201 81.27 64.4201 81.19 64.4201 81.13C64.3783 81.0642 64.3561 80.9879 64.3561 80.91C64.3561 80.8321 64.3783 80.7558 64.4201 80.69C67.0301 76.56 68.2401 71.88 69.5801 67.27C70.6395 63.2744 71.4676 59.221 72.0601 55.13C71.5701 54.9 71.4301 55.29 71.2101 55.46C67.3257 58.7194 63.2483 61.7415 59.0001 64.51C56.0001 66.46 52.7301 68.15 49.5601 69.92C49.12 70.154 48.7329 70.4765 48.4231 70.8671C48.1134 71.2577 47.8877 71.7081 47.7601 72.19C47.3648 73.4455 47.1625 74.7537 47.1601 76.07C47.1957 76.9865 47.0946 77.9032 46.8601 78.79C46.8549 78.7745 46.8463 78.7603 46.835 78.7485C46.8236 78.7367 46.8097 78.7276 46.7944 78.7219C46.7791 78.7161 46.7627 78.7139 46.7463 78.7153C46.73 78.7167 46.7142 78.7217 46.7001 78.73C46.6201 77.14 46.4601 75.55 46.4801 73.96C46.5129 73.0229 46.2723 72.0965 45.7875 71.2939C45.3027 70.4913 44.5948 69.8471 43.7501 69.44C38.8301 66.58 33.7501 64.01 29.2101 60.44C26.9301 58.66 24.4801 57.11 22.3201 55.09C23.2682 64.1371 25.7787 72.9512 29.7401 81.14L29.5001 81.31C28.4501 80.12 27.1001 79.08 26.4001 77.71C23.8901 72.78 20.1901 68.78 16.7001 64.59C15.5301 63.18 13.9601 62.29 12.7001 61.06C12.5918 60.9437 12.4915 60.8201 12.4001 60.69C13.0005 60.759 13.5569 61.0389 13.9701 61.48C16.9486 64.0102 19.7517 66.7398 22.3601 69.65C22.8201 70.16 23.2701 70.65 23.7301 71.22C23.8972 69.9099 23.8397 68.5808 23.5601 67.29C21.0049 56.9561 19.5534 46.3802 19.2301 35.74C19.057 28.5863 20.0224 21.4506 22.0901 14.6C22.7601 12.25 23.7101 9.93 23.2301 7.39C23.1701 7.07 23.4501 6.57 23.0001 6.46C22.5501 6.35 22.4501 6.83 22.2201 7.09C19.9323 9.90685 17.998 12.9931 16.4601 16.28C13.3729 22.1724 10.6154 28.2318 8.20012 34.43C5.69012 40.89 3.42012 47.43 2.50012 54.34C2.42068 55.2243 2.3873 56.1122 2.40012 57C2.40012 57.8 2.79012 58.17 3.58012 58.16C4.10012 58.16 4.58012 58.16 5.13012 58.16C6.76193 58.0299 8.39149 58.4373 9.77012 59.32V59.32ZM73.0001 24.32C72.9947 24.3498 72.9947 24.3802 73.0001 24.41C73.0001 24.41 73.0001 24.41 73.0701 24.41L72.9701 24.3C72.9975 23.5023 72.8296 22.71 72.4811 21.992C72.1325 21.2739 71.6138 20.6519 70.9701 20.18C69.1896 18.7597 67.0764 17.8167 64.8301 17.44C63.203 17.0773 61.5011 17.2746 60.0001 18C60.8001 18.15 61.3401 18.26 61.8801 18.35C64.0701 18.73 66.3001 18.98 68.2001 20.35C69.8932 21.5565 71.4974 22.8833 73.0001 24.32V24.32ZM13.4001 20C12.8001 20.11 12.6501 20.68 12.4001 21.1C11.4001 22.82 10.4001 24.56 9.51012 26.32C6.36841 32.1904 3.71932 38.3114 1.59012 44.62C1.19012 45.81 0.440116 47 0.740116 48.3C1.09808 49.7246 1.33888 51.1761 1.46012 52.64C1.92012 52.41 1.88012 52.02 1.94012 51.64C3.66156 43.4968 6.27743 35.5687 9.74012 28C10.9201 25.31 12.1701 22.64 13.3901 20C13.4501 19.91 13.6901 19.86 13.4601 19.7L13.4001 20ZM74.2101 41.07C74.2519 36.8215 74.0047 32.575 73.4701 28.36C73.4395 27.7244 73.2796 27.1017 73.0001 26.53C72.1351 24.8725 70.9286 23.4172 69.4601 22.26C65.9101 19.68 62.0401 18.26 57.6901 19.26C53.5601 20.16 49.9101 21.95 47.7901 25.95C47.2101 27.04 46.9901 26.95 46.3501 25.89C45.8662 24.9256 45.2315 24.0445 44.4701 23.28C38.6801 18.28 31.4701 17.41 24.9801 22.06C22.4501 23.88 20.8001 26.06 20.5401 29.26C20.2501 32.92 20.3101 36.58 20.3001 40.26C20.3001 42.97 20.7501 45.65 20.9201 48.34C21.058 50.9849 22.1196 53.4976 23.9201 55.44C25.9201 57.7 28.6401 59.07 31.1001 60.76C35.9101 64 41.0001 66.7 46.0001 69.61C46.3358 69.7909 46.7134 69.8797 47.0946 69.8675C47.4757 69.8552 47.8468 69.7422 48.1701 69.54C55.5333 65.6659 62.558 61.1801 69.1701 56.13C70.7501 54.93 72.4501 53.6 72.9001 51.61C73.8493 48.1795 74.2907 44.6285 74.2101 41.07V41.07ZM92.3901 52.55L92.7901 52.44C92.7514 51.6209 92.822 50.8004 93.0001 50C93.5147 48.4074 93.4257 46.6812 92.7501 45.15C89.8824 36.8074 86.1978 28.7684 81.7501 21.15C81.4657 20.4172 80.9762 19.7818 80.3401 19.32C85.6601 30.09 90.2101 40.89 92.3901 52.55ZM21.3701 24C23.1101 22.73 24.5301 21.23 26.2601 20.1C28.1048 19.0445 30.1473 18.3807 32.2601 18.15C32.0781 18.0322 31.8836 17.935 31.6801 17.86C30.0532 17.5992 28.3898 17.6796 26.7956 18.0962C25.2015 18.5128 23.7114 19.2565 22.4201 20.28C21.875 20.71 21.4798 21.3014 21.2912 21.9695C21.1026 22.6377 21.1302 23.3485 21.3701 24V24Z" fill="#4381E5"/>
<path d="M9.76965 59.32C8.39586 58.4233 6.76594 58.0018 5.12965 58.12C4.61965 58.12 4.12965 58.12 3.57965 58.12C2.78965 58.12 2.37965 57.76 2.39965 56.96C2.38821 56.0856 2.42159 55.2111 2.49965 54.34C3.41965 47.42 5.68965 40.89 8.19965 34.43C10.6149 28.2318 13.3725 22.1725 16.4597 16.28C17.9975 12.9932 19.9319 9.90687 22.2197 7.09003C22.4497 6.83003 22.6197 6.36003 22.9997 6.46003C23.3797 6.56003 23.1697 7.07003 23.2297 7.39003C23.7097 9.93003 22.7597 12.25 22.0897 14.6C19.9975 21.4601 19.0118 28.6097 19.1697 35.78C19.493 46.4202 20.9444 56.9961 23.4997 67.33C23.7793 68.6208 23.8367 69.9499 23.6697 71.26C23.2097 70.73 22.7597 70.2 22.2997 69.69C19.6912 66.7798 16.8881 64.0502 13.9097 61.52C13.4965 61.079 12.9401 60.799 12.3397 60.73L10.2097 59.45L9.76965 59.3V59.32Z" fill="#3E5294"/>
<path d="M82.5902 60.2499C80.2502 61.0999 78.5902 62.9099 76.9502 64.5799C74.7799 66.5949 72.7328 68.7388 70.8202 70.9999C70.6802 71.1699 70.5602 71.4099 70.2602 71.3999C70.0902 68.4599 71.1002 65.7199 71.6802 62.9199C72.5402 58.7599 73.5702 54.6199 74.2802 50.4299C74.691 47.7827 74.9049 45.1087 74.9202 42.4299C75.0102 38.0899 74.9802 33.7499 74.9202 29.4299C74.7728 26.2091 74.2766 23.0138 73.4402 19.8999C72.7502 16.9999 72.0302 14.0999 71.1602 11.2499C70.6602 9.58992 71.0502 7.93992 70.8202 5.91992C72.0742 7.11299 73.1759 8.45651 74.1002 9.91992C76.6667 14.003 78.9455 18.26 80.9202 22.6599C84.1372 29.4025 86.9033 36.3511 89.2002 43.4599C90.6398 47.6337 91.4814 51.9903 91.7002 56.3999C91.7002 57.9799 91.5802 58.1299 90.0102 58.1099C88.0902 58.1099 86.1802 58.1099 84.5202 59.2699C84.0712 59.6185 83.553 59.8674 83.0002 59.9999L82.6202 60.2199L82.5902 60.2499Z" fill="#3E5294"/>
<path d="M9.76953 59.2998L10.2095 59.4498L9.76953 59.2998Z" fill="#4381E5"/>
<path d="M82.6201 60.23L83.0001 60L82.6201 60.23Z" fill="#4381E5"/>
<path d="M74.054 41.0705C74.1671 44.624 73.7595 48.175 72.844 51.6105C72.394 53.6105 70.694 54.9305 69.114 56.1305C62.5018 61.1806 55.4771 65.6664 48.114 69.5405C47.7907 69.7427 47.4196 69.8556 47.0384 69.8679C46.6573 69.8802 46.2797 69.7914 45.944 69.6105C40.844 66.7005 35.754 64.0005 30.994 60.7305C28.534 59.0005 25.844 57.6705 23.844 55.4105C22.0435 53.4681 20.9818 50.9554 20.844 48.3105C20.674 45.6205 20.224 42.9405 20.224 40.2305C20.224 36.5605 20.174 32.9005 20.464 29.2305C20.724 26.0405 22.374 23.8505 24.904 22.0305C31.384 17.3805 38.604 18.2105 44.394 23.2505C45.1554 24.015 45.79 24.8961 46.274 25.8605C46.914 26.9305 47.134 27.0105 47.714 25.9205C49.834 21.9205 53.484 20.1305 57.614 19.2305C61.964 18.2905 65.834 19.6705 69.384 22.2305C70.8268 23.4046 72.0058 24.8698 72.844 26.5305C73.1234 27.1022 73.2834 27.7249 73.314 28.3605C73.8486 32.5755 74.0958 36.8219 74.054 41.0705Z" fill="#3E5294"/>
<path d="M92.3896 52.5495C90.2096 40.8895 85.6596 30.0895 80.3896 19.2695C81.0257 19.7314 81.5153 20.3667 81.7997 21.0995C86.2474 28.7179 89.9319 36.7569 92.7997 45.0995C93.4716 46.6516 93.5428 48.3979 92.9996 49.9995C92.8081 50.7981 92.7241 51.6187 92.7496 52.4395L92.3896 52.5495Z" fill="#3E5294"/>
<path d="M13.39 20C12.17 22.67 10.92 25.34 9.73999 28C6.27731 35.5687 3.66144 43.4968 1.93999 51.64C1.87999 51.98 1.93999 52.37 1.45999 52.64C1.33876 51.1761 1.09795 49.7246 0.739993 48.3C0.439993 47 1.18999 45.81 1.58999 44.62C3.72345 38.3179 6.37587 32.2036 9.51999 26.34C10.45 24.58 11.42 22.84 12.41 21.12C12.65 20.7 12.8 20.12 13.41 20.02L13.39 20Z" fill="#3E5294"/>
<path d="M73 24.3204C71.4854 22.8718 69.8678 21.535 68.16 20.3204C66.26 18.9904 64.03 18.7404 61.84 18.3204C61.3 18.2304 60.76 18.1204 59.96 17.9704C61.4952 17.2263 63.2403 17.0356 64.9 17.4304C67.1462 17.8071 69.2594 18.7501 71.04 20.1704C71.6837 20.6423 72.2024 21.2643 72.5509 21.9824C72.8995 22.7004 73.0674 23.4927 73.04 24.2904L73 24.3204Z" fill="#3E5294"/>
<path d="M21.3694 23.9998C21.124 23.3533 21.0886 22.6459 21.2681 21.9781C21.4476 21.3103 21.8329 20.7161 22.3694 20.2798C23.6607 19.2563 25.1508 18.5126 26.7449 18.096C28.3391 17.6794 30.0025 17.5989 31.6294 17.8598C31.8329 17.9347 32.0274 18.032 32.2094 18.1498C30.0966 18.3804 28.0541 19.0443 26.2094 20.0998C24.5294 21.2498 23.1094 22.7498 21.3694 23.9998Z" fill="#3E5294"/>
<path d="M13.3996 20.0004L13.4596 19.6904C13.6896 19.8504 13.4596 19.9004 13.3896 19.9904L13.3996 20.0004Z" fill="#3E5294"/>
<path d="M73 24.3096L73.1 24.4196C73.1 24.4196 73.05 24.4196 73.03 24.4196C73.0246 24.3898 73.0246 24.3593 73.03 24.3296L73 24.3096Z" fill="#3E5294"/>
<path d="M73.3502 93.1098H72.3502V89.8598L72.2102 89.7698L70.6102 93.2398L68.8502 89.3498V93.0898H68.1602V88.2698C70.1602 88.3998 69.5702 90.7898 70.8002 91.5998C71.9502 90.7898 71.4202 88.4798 73.3902 88.2598L73.3502 93.1098Z" fill="#4381E5"/>
<path d="M44.4598 93.0802H43.7598V88.2702C45.7598 88.3602 45.1898 90.7202 46.3998 91.6302C47.5298 90.8102 47.0298 88.5302 48.9398 88.2402V93.0902H47.9398V89.5502L46.2098 93.2702L44.6598 89.7602L44.4798 89.8202L44.4598 93.0802Z" fill="#4381E5"/>
<path d="M34.21 93.1002V88.3102C35.44 88.4502 36.98 87.8102 38.08 89.2102C38.3892 89.5826 38.5731 90.0431 38.6054 90.5261C38.6377 91.0091 38.5168 91.49 38.26 91.9002C37.33 93.4902 35.76 93.1102 34.21 93.1002ZM35.15 90.6902C35.15 91.0102 35.15 91.3302 35.15 91.6902C35.15 92.7702 35.81 93.1202 36.76 92.5602C37.0409 92.3605 37.272 92.0987 37.4352 91.7951C37.5984 91.4916 37.6893 91.1544 37.7009 90.8099C37.7125 90.4654 37.6445 90.1229 37.5021 89.8091C37.3597 89.4952 37.1468 89.2184 36.88 89.0002C36.4886 88.75 36.017 88.6572 35.56 88.7402C35.34 88.8002 35.25 89.4402 35.17 89.8302C35.1311 90.1152 35.1244 90.4037 35.15 90.6902V90.6902Z" fill="#4381E5"/>
<path d="M59 93.1L56.11 89.48V93.08H55.29V88.29C57.1 88.42 57.29 90.66 58.73 91.49V88.33H59.39V93L59 93.1Z" fill="#4381E5"/>
<path d="M29.7603 93.0795H29.0603C29.4503 91.0795 29.2703 89.1595 28.5303 88.2695C30.7303 88.3895 30.8903 90.6695 32.5303 91.5995L32.3203 88.3295H33.0003V92.9995L32.6303 93.1295L29.7603 89.6195V93.0795Z" fill="#4381E5"/>
<path d="M52.1498 88.1797C52.787 88.2219 53.3854 88.5007 53.8275 88.9614C54.2697 89.422 54.5238 90.0313 54.5398 90.6697C54.5573 90.9879 54.5116 91.3064 54.4051 91.6068C54.2987 91.9072 54.1338 92.1834 53.9199 92.4197C53.706 92.6559 53.4474 92.8474 53.159 92.983C52.8706 93.1186 52.5582 93.1956 52.2398 93.2097C51.9115 93.2233 51.5841 93.1673 51.2789 93.0453C50.9738 92.9234 50.6979 92.7383 50.4694 92.5022C50.2408 92.2661 50.0648 91.9844 49.9528 91.6754C49.8409 91.3665 49.7956 91.0374 49.8198 90.7097C49.8032 90.0679 50.0372 89.4448 50.4721 88.9725C50.9071 88.5002 51.5088 88.2159 52.1498 88.1797ZM53.6198 91.0597C53.6198 89.3997 53.1598 88.6497 52.2698 88.5897C51.3798 88.5297 50.7498 89.2597 50.7198 90.5897C50.6898 91.9197 51.2898 93.0097 52.1998 92.8697C52.6853 92.7317 53.1045 92.4227 53.3798 91.9997C53.5297 91.7085 53.6118 91.3871 53.6198 91.0597V91.0597Z" fill="#4381E5"/>
<path d="M39.4199 88.2695C40.4199 88.5295 41.6899 87.8795 42.6199 88.8995L40.4999 88.5595V90.4195L42.2499 90.2095L42.3099 91.0795L40.5099 90.6895V92.8195L42.9999 92.3595C42.0899 93.8395 40.6199 92.7895 39.4299 93.2295L39.4199 88.2695Z" fill="#4381E5"/>
<path d="M62.8994 88.3398H63.8994C63.8459 89.4765 63.8626 90.6153 63.9494 91.7498C64.021 91.9859 64.1497 92.2007 64.3242 92.3751C64.4986 92.5495 64.7133 92.6782 64.9494 92.7498C65.3794 92.7498 66.1794 92.3398 66.2294 92.0198C66.3251 90.8056 66.3451 89.5866 66.2894 88.3699H66.9994C66.9394 89.2999 66.8694 90.2198 66.8394 91.1398C66.8394 92.6398 66.2194 93.2598 64.8394 93.2398C63.4594 93.2198 63.0794 92.6598 63.0194 91.1398C62.9994 90.2098 62.9994 89.2898 62.8994 88.3398Z" fill="#4381E5"/>
<path d="M20.7501 91.0895L20.8701 93.0895H19.8701V88.4195C21.8001 88.1095 22.8701 88.4195 22.9601 89.5095C23.0801 90.9995 21.9101 90.9995 20.7501 91.0895ZM20.7501 90.4295L21.0501 90.6695C21.3801 90.4995 21.9001 90.3895 22.0001 90.1295C22.0465 89.7354 21.9585 89.3372 21.7501 88.9995C21.6801 88.8595 21.2601 88.8795 21.0101 88.8295L20.7501 90.4295Z" fill="#4381E5"/>
<path d="M25.7996 88.0801L27.9996 93.0801L26.8096 93.1401C26.8096 92.3901 26.9596 91.5901 25.8796 91.5201C24.9996 91.4601 24.3996 91.6501 24.3496 92.6901C24.3496 92.8701 23.9396 93.0301 23.5996 92.9901L25.7996 88.0801ZM26.3196 91.0801L25.5996 89.3301L24.9296 91.0801H26.3196Z" fill="#4381E5"/>
<path d="M60.6602 92.9996V88.3496H61.7402V92.9996H60.6602Z" fill="#4381E5"/>
<path d="M57.1465 39.2595C57.1465 40.3109 56.9403 41.3052 56.5279 42.2423C55.749 44.0481 54.3057 45.2823 52.198 45.9452C51.5795 46.1509 51.0067 46.2538 50.4798 46.2538C48.8532 46.2538 47.3985 45.8309 46.1156 44.9852V44.6423C47.8338 44.6881 49.2198 44.1281 50.2736 42.9623C51.19 41.9566 51.6482 40.6423 51.6482 39.0195C51.6482 37.3738 51.2473 36.1052 50.4455 35.2138C49.6665 34.2995 48.6012 33.8423 47.2496 33.8423H44.9472V53.8995C44.9472 54.4938 45.1648 55.0081 45.6001 55.4423C46.0354 55.8538 46.5508 56.0595 47.1465 56.0595H47.5932V56.4023H37.1465V56.0595H37.5932C38.1889 56.0595 38.6929 55.8538 39.1052 55.4423C39.5405 55.0081 39.7696 54.4938 39.7925 53.8995V34.7338C39.7925 34.1623 39.5749 33.6938 39.1396 33.3281C38.7043 32.9395 38.1889 32.7452 37.5932 32.7452H37.1465V32.4023H48.6241C51.4191 32.4023 53.5268 32.9966 54.9472 34.1852C56.4134 35.4423 57.1465 37.1338 57.1465 39.2595Z" fill="#4381E5"/>
</g>
<defs>
<clipPath id="clip0">
<rect width="94.28" height="95.44" fill="white"/>
</clipPath>
</defs>
</svg>
