<svg width="160" height="160" viewBox="0 0 160 160" fill="none" xmlns="http://www.w3.org/2000/svg">
<path d="M125.677 107.924L131.911 104.473V69.53L125.677 63.3372L131.911 58.3831V27.9194L144.784 2.42188H92.6524L87.6743 8.93031L83.5331 2.42188H40.9609C33.8515 2.42188 28.0884 8.185 28.0884 15.2944V36.2825L33.4553 40.2181L28.0884 44.5531V82.1522L36.5481 86.8122L28.0884 91.9447V157.578H119.039C126.148 157.578 131.911 151.815 131.911 144.706V113.085L125.677 107.924Z" fill="#FDF6EC"/>
<path d="M106.167 129.239C103.451 129.239 79.7756 129.239 55.6869 129.239L50.3334 134.966L47.0753 129.239C25.2056 129.239 5.04406 129.239 2.34375 129.239V144.706C2.34375 151.815 8.10688 157.578 15.2163 157.578H119.039L106.167 129.239Z" fill="#FAE2C0"/>
<path d="M131.911 116.188V144.706C131.911 151.815 126.148 157.578 119.039 157.578C111.929 157.578 106.166 151.815 106.166 144.706V129.238" fill="#FDF6EC"/>
<path d="M152.099 21.64L157.656 18.0931V15.2944C157.656 8.185 151.893 2.42188 144.784 2.42188C137.675 2.42188 131.911 8.185 131.911 15.2944V34.4375H157.656V24.3116L152.099 21.64Z" fill="#FAE2C0"/>
<path d="M44.9312 26.3143C43.6368 26.3143 42.5874 27.3634 42.5874 28.6581C42.5874 29.9528 43.6368 31.0018 44.9312 31.0018H50.1265C51.4208 31.0018 52.4702 29.9528 52.4702 28.6581C52.4702 27.3634 51.4208 26.3143 50.1265 26.3143H44.9312Z" fill="black"/>
<path d="M58.0935 31.0018H70.5626C71.857 31.0018 72.9063 29.9528 72.9063 28.6581C72.9063 27.3634 71.857 26.3143 70.5626 26.3143H58.0935C56.7991 26.3143 55.7498 27.3634 55.7498 28.6581C55.7498 29.9528 56.7991 31.0018 58.0935 31.0018Z" fill="black"/>
<path d="M119.039 26.3143H80.2019C78.9075 26.3143 77.8582 27.3634 77.8582 28.6581C77.8582 29.9528 78.9075 31.0018 80.2019 31.0018H119.039C120.334 31.0018 121.383 29.9528 121.383 28.6581C121.383 27.3634 120.333 26.3143 119.039 26.3143Z" fill="black"/>
<path d="M44.9312 44.8324H50.1265C51.4208 44.8324 52.4702 43.7833 52.4702 42.4886C52.4702 41.194 51.4208 40.1449 50.1265 40.1449H44.9312C43.6368 40.1449 42.5874 41.194 42.5874 42.4886C42.5874 43.7833 43.6368 44.8324 44.9312 44.8324Z" fill="black"/>
<path d="M58.0935 44.8324H70.5626C71.857 44.8324 72.9063 43.7833 72.9063 42.4886C72.9063 41.194 71.857 40.1449 70.5626 40.1449H58.0935C56.7991 40.1449 55.7498 41.194 55.7498 42.4886C55.7498 43.7833 56.7991 44.8324 58.0935 44.8324Z" fill="black"/>
<path d="M80.2019 44.8324H83.6363C84.931 44.8324 85.98 43.7833 85.98 42.4886C85.98 41.194 84.931 40.1449 83.6363 40.1449H80.2019C78.9075 40.1449 77.8582 41.194 77.8582 42.4886C77.8582 43.7833 78.9072 44.8324 80.2019 44.8324Z" fill="black"/>
<path d="M119.039 40.1449H91.6233C90.3286 40.1449 89.2795 41.194 89.2795 42.4886C89.2795 43.7833 90.3286 44.8324 91.6233 44.8324H119.039C120.333 44.8324 121.382 43.7833 121.382 42.4886C121.382 41.194 120.333 40.1449 119.039 40.1449Z" fill="black"/>
<path d="M44.9312 58.6627H70.5624C71.8568 58.6627 72.9062 57.6137 72.9062 56.319C72.9062 55.0243 71.8568 53.9752 70.5624 53.9752H44.9312C43.6368 53.9752 42.5874 55.0243 42.5874 56.319C42.5874 57.6137 43.6368 58.6627 44.9312 58.6627Z" fill="black"/>
<path d="M119.039 53.9752H96.1587C94.864 53.9752 93.8149 55.0243 93.8149 56.319C93.8149 57.6137 94.864 58.6627 96.1587 58.6627H119.039C120.333 58.6627 121.382 57.6137 121.382 56.319C121.382 55.0243 120.333 53.9752 119.039 53.9752Z" fill="black"/>
<path d="M75.7878 56.319C75.7878 57.6137 76.8372 58.6627 78.1316 58.6627H88.3513C89.646 58.6627 90.695 57.6137 90.695 56.319C90.695 55.0243 89.646 53.9752 88.3513 53.9752H78.1316C76.8369 53.9752 75.7878 55.0243 75.7878 56.319Z" fill="black"/>
<path d="M44.9312 72.493H50.1265C51.4208 72.493 52.4702 71.444 52.4702 70.1493C52.4702 68.8546 51.4208 67.8055 50.1265 67.8055H44.9312C43.6368 67.8055 42.5874 68.8546 42.5874 70.1493C42.5874 71.444 43.6368 72.493 44.9312 72.493Z" fill="black"/>
<path d="M55.7498 70.1493C55.7498 71.444 56.7991 72.493 58.0935 72.493H107.599C108.894 72.493 109.943 71.444 109.943 70.1493C109.943 68.8546 108.894 67.8055 107.599 67.8055H58.0935C56.7991 67.8055 55.7498 68.8546 55.7498 70.1493Z" fill="black"/>
<path d="M119.039 67.8055H115.838C114.543 67.8055 113.494 68.8546 113.494 70.1493C113.494 71.444 114.543 72.493 115.838 72.493H119.039C120.334 72.493 121.383 71.444 121.383 70.1493C121.383 68.8546 120.334 67.8055 119.039 67.8055Z" fill="black"/>
<path d="M44.9312 86.3234H50.1265C51.4208 86.3234 52.4702 85.2743 52.4702 83.9796C52.4702 82.6849 51.4208 81.6359 50.1265 81.6359H44.9312C43.6368 81.6359 42.5874 82.6849 42.5874 83.9796C42.5874 85.2743 43.6368 86.3234 44.9312 86.3234Z" fill="black"/>
<path d="M58.0935 86.3234H60.6913C61.9857 86.3234 63.0351 85.2743 63.0351 83.9796C63.0351 82.6849 61.9857 81.6359 60.6913 81.6359H58.0935C56.7991 81.6359 55.7498 82.6849 55.7498 83.9796C55.7498 85.2743 56.7991 86.3234 58.0935 86.3234Z" fill="black"/>
<path d="M119.039 81.6359H67.8103C66.5159 81.6359 65.4666 82.6849 65.4666 83.9796C65.4666 85.2743 66.5159 86.3234 67.8103 86.3234H119.039C120.334 86.3234 121.383 85.2743 121.383 83.9796C121.383 82.6849 120.333 81.6359 119.039 81.6359Z" fill="black"/>
<path d="M44.9312 100.153H50.1265C51.4208 100.153 52.4702 99.1043 52.4702 97.8096C52.4702 96.5149 51.4208 95.4658 50.1265 95.4658H44.9312C43.6368 95.4658 42.5874 96.5149 42.5874 97.8096C42.5874 99.1043 43.6368 100.153 44.9312 100.153Z" fill="black"/>
<path d="M110.406 97.8096C110.406 96.5149 109.357 95.4658 108.063 95.4658H58.0935C56.7991 95.4658 55.7498 96.5149 55.7498 97.8096C55.7498 99.1043 56.7991 100.153 58.0935 100.153H108.063C109.357 100.153 110.406 99.1043 110.406 97.8096Z" fill="black"/>
<path d="M119.039 95.4658H114.576C113.282 95.4658 112.233 96.5149 112.233 97.8096C112.233 99.1043 113.282 100.153 114.576 100.153H119.039C120.333 100.153 121.382 99.1043 121.382 97.8096C121.382 96.5149 120.333 95.4658 119.039 95.4658Z" fill="black"/>
<path d="M44.9312 113.984H62.6265C63.9208 113.984 64.9702 112.935 64.9702 111.64C64.9702 110.345 63.9208 109.296 62.6265 109.296H44.9312C43.6368 109.296 42.5874 110.345 42.5874 111.64C42.5874 112.935 43.6368 113.984 44.9312 113.984Z" fill="black"/>
<path d="M98.3608 109.296C97.0662 109.296 96.0171 110.345 96.0171 111.64C96.0171 112.935 97.0662 113.984 98.3608 113.984H104.938C106.232 113.984 107.281 112.935 107.281 111.64C107.281 110.345 106.232 109.296 104.938 109.296H98.3608Z" fill="black"/>
<path d="M70.5935 109.296C69.2991 109.296 68.2498 110.345 68.2498 111.64C68.2498 112.935 69.2991 113.984 70.5935 113.984H89.3557C90.6504 113.984 91.6994 112.935 91.6994 111.64C91.6994 110.345 90.6504 109.296 89.3557 109.296H70.5935Z" fill="black"/>
<path d="M119.039 109.296H114.576C113.282 109.296 112.233 110.345 112.233 111.64C112.233 112.935 113.282 113.984 114.576 113.984H119.039C120.333 113.984 121.382 112.935 121.382 111.64C121.382 110.345 120.333 109.296 119.039 109.296Z" fill="black"/>
<path d="M160 18.0931V15.2943C160 6.90401 153.174 0.0780713 144.784 0.0780713H92.6528C91.9228 0.0780713 91.2347 0.418071 90.7913 0.997759L87.8512 4.84182L85.5106 1.16338C85.0806 0.487446 84.3347 0.0777588 83.5334 0.0777588H58.3106C57.0162 0.0777588 55.9669 1.12682 55.9669 2.42151C55.9669 3.7162 57.0162 4.76526 58.3106 4.76526H82.2469L85.6975 10.1884C86.1084 10.834 86.8094 11.2387 87.5741 11.2718C87.6078 11.2734 87.6416 11.274 87.6753 11.274C88.4031 11.274 89.0922 10.9353 89.5366 10.3543L93.8113 4.76526H133.809C131.184 7.50088 129.568 11.2124 129.568 15.294V57.2518L124.22 61.5021C123.696 61.9187 123.375 62.5393 123.338 63.2078C123.301 63.8762 123.551 64.5284 124.026 64.9999L129.568 70.5049V103.092L124.543 105.874C123.865 106.249 123.416 106.935 123.344 107.707C123.272 108.478 123.586 109.236 124.183 109.73L129.568 114.187V144.705C129.568 150.521 124.835 155.234 119.039 155.234C113.234 155.234 108.511 150.511 108.511 144.706V129.238C108.511 127.944 107.462 126.895 106.167 126.895H89.3562C88.0616 126.895 87.0125 127.944 87.0125 129.238C87.0125 130.533 88.0616 131.582 89.3562 131.582H103.823V144.706C103.823 148.787 105.439 152.499 108.064 155.234H15.2159C9.41063 155.234 4.6875 150.511 4.6875 144.706V131.582H45.7122L48.2962 136.125C48.6647 136.772 49.3191 137.206 50.0594 137.293C50.8009 137.382 51.5369 137.11 52.0456 136.566L56.7044 131.582H80C81.2944 131.582 82.3438 130.533 82.3438 129.239C82.3438 127.944 81.2944 126.895 80 126.895H55.6869C55.0378 126.895 54.4178 127.164 53.9747 127.638L50.7959 131.039L49.1125 128.08C48.6959 127.347 47.9178 126.895 47.0753 126.895H30.4322V93.264L37.7638 88.8159C38.4791 88.3818 38.9088 87.5993 38.8913 86.7631C38.8738 85.9265 38.4116 85.1631 37.6787 84.7593L30.4319 80.7674V45.6728L34.9278 42.0412C35.4937 41.5843 35.815 40.8903 35.7981 40.1634C35.7812 39.4362 35.4275 38.7581 34.8412 38.3281L30.4319 35.0943V15.2943C30.4319 9.4887 35.155 4.76557 40.9606 4.76557H49.2475C50.5419 4.76557 51.5912 3.71651 51.5912 2.42182C51.5912 1.12713 50.5419 0.0780713 49.2475 0.0780713H40.9606C32.5703 0.0780713 25.7444 6.90432 25.7444 15.2943V36.2821C25.7444 37.0287 26.1 37.7306 26.7019 38.1721L29.6141 40.3078L26.6153 42.7299C26.0644 43.1749 25.7444 43.845 25.7444 44.5531V82.1518C25.7444 83.0059 26.2091 83.7924 26.9572 84.2046L31.8678 86.9096L26.8722 89.9403C26.1719 90.3649 25.7441 91.125 25.7441 91.944V126.895H2.34375C1.04937 126.895 0 127.944 0 129.238V144.705C0 153.096 6.82594 159.922 15.2159 159.922H119.039C127.409 159.922 134.255 153.116 134.255 144.706V113.085C134.255 112.387 133.944 111.725 133.406 111.28L129.819 108.311L133.046 106.524C133.792 106.111 134.255 105.326 134.255 104.473V69.5296C134.255 68.9053 134.006 68.3068 133.562 67.8668L129.199 63.5321L133.369 60.2184C133.928 59.7737 134.255 59.0981 134.255 58.3834V36.7812H140.252C141.547 36.7812 142.596 35.7321 142.596 34.4374C142.596 33.1428 141.547 32.0937 140.252 32.0937H134.255V15.2943C134.255 9.4887 138.978 4.76557 144.783 4.76557C150.588 4.76557 155.312 9.4887 155.312 15.2943V16.8087L150.838 19.6646C150.122 20.1224 149.709 20.9321 149.76 21.7806C149.811 22.6296 150.317 23.384 151.084 23.7528L155.312 25.7853V32.0937H149.315C148.021 32.0937 146.972 33.1428 146.972 34.4374C146.972 35.7321 148.021 36.7812 149.315 36.7812H157.656C158.951 36.7812 160 35.7321 160 34.4374V24.3115C160 23.4106 159.484 22.5893 158.672 22.199L156.908 21.3512L158.917 20.0687C159.592 19.6381 160 18.8931 160 18.0931Z" fill="black"/>
</svg>
