<svg width="22" height="10" viewBox="0 0 22 10" fill="none" xmlns="http://www.w3.org/2000/svg">
<path d="M2.24 2.09V4.22H5.62V5.32H2.24V8H0.94V1H6.05V2.09H2.24ZM11.5445 6.38H8.04445L7.35445 8H6.01445L9.16445 1H10.4445L13.6045 8H12.2445L11.5445 6.38ZM11.1145 5.36L9.79445 2.3L8.48445 5.36H11.1145ZM21.787 8.7C21.5537 8.97333 21.2804 9.18 20.967 9.32C20.6604 9.46 20.3237 9.53 19.957 9.53C19.477 9.53 19.037 9.42 18.637 9.2C18.237 8.98667 17.7804 8.61333 17.267 8.08C16.6204 8.02667 16.0404 7.84 15.527 7.52C15.0137 7.19333 14.6137 6.77 14.327 6.25C14.0404 5.72333 13.897 5.14 13.897 4.5C13.897 3.82 14.0604 3.20667 14.387 2.66C14.7137 2.10667 15.1637 1.67667 15.737 1.37C16.3104 1.05667 16.9537 0.9 17.667 0.9C18.3804 0.9 19.0237 1.05667 19.597 1.37C20.1704 1.67667 20.6204 2.10333 20.947 2.65C21.2737 3.19667 21.437 3.81333 21.437 4.5C21.437 5.05333 21.327 5.56667 21.107 6.04C20.887 6.50667 20.5804 6.90667 20.187 7.24C19.7937 7.56667 19.337 7.80333 18.817 7.95C19.0104 8.15667 19.2004 8.30667 19.387 8.4C19.5737 8.49333 19.7737 8.54 19.987 8.54C20.447 8.54 20.847 8.35333 21.187 7.98L21.787 8.7ZM15.207 4.5C15.207 4.96667 15.3137 5.39 15.527 5.77C15.7404 6.14333 16.0337 6.43667 16.407 6.65C16.7804 6.85667 17.2004 6.96 17.667 6.96C18.1337 6.96 18.5537 6.85667 18.927 6.65C19.3004 6.43667 19.5937 6.14333 19.807 5.77C20.0204 5.39 20.127 4.96667 20.127 4.5C20.127 4.03333 20.0204 3.61333 19.807 3.24C19.5937 2.86 19.3004 2.56667 18.927 2.36C18.5537 2.14667 18.1337 2.04 17.667 2.04C17.2004 2.04 16.7804 2.14667 16.407 2.36C16.0337 2.56667 15.7404 2.86 15.527 3.24C15.3137 3.61333 15.207 4.03333 15.207 4.5Z" fill="white"/>
</svg>
