<svg width="28" height="28" viewBox="0 0 28 28" fill="none" xmlns="http://www.w3.org/2000/svg">
<path d="M16.9258 19.5781C17.5299 19.5781 18.0195 19.0885 18.0195 18.4844V14.3828C18.0195 12.1513 16.2041 10.3359 13.9727 10.3359C11.7412 10.3359 9.92578 12.1513 9.92578 14.3828V23.9531C9.92578 26.1846 11.7412 28 13.9727 28C16.2041 28 18.0195 26.1846 18.0195 23.9531C18.0195 23.349 17.5299 22.8594 16.9258 22.8594C16.3217 22.8594 15.832 23.349 15.832 23.9531C15.832 24.9784 14.9979 25.8125 13.9727 25.8125C12.9474 25.8125 12.1133 24.9784 12.1133 23.9531V14.3828C12.1133 13.3575 12.9474 12.5234 13.9727 12.5234C14.9979 12.5234 15.832 13.3575 15.832 14.3828V18.4844C15.832 19.0885 16.3217 19.5781 16.9258 19.5781Z" fill="#828282"/>
<path d="M14.0273 0C11.7959 0 9.98047 1.81541 9.98047 4.04688C9.98047 6.27834 11.7959 8.09375 14.0273 8.09375C16.2588 8.09375 18.0742 6.27834 18.0742 4.04688C18.0742 1.81541 16.2588 0 14.0273 0ZM14.0273 5.90625C13.0021 5.90625 12.168 5.07216 12.168 4.04688C12.168 3.02159 13.0021 2.1875 14.0273 2.1875C15.0526 2.1875 15.8867 3.02159 15.8867 4.04688C15.8867 5.07216 15.0526 5.90625 14.0273 5.90625Z" fill="#828282"/>
</svg>
