<svg width="515" height="74" viewBox="0 0 515 74" fill="none" xmlns="http://www.w3.org/2000/svg">
<path fill-rule="evenodd" clip-rule="evenodd" d="M304.839 0L307.706 5.2664L310.574 10.5328H304.839H299.104L301.971 5.2664L304.839 0ZM304.837 41.4789C307.343 41.4789 309.375 39.3246 309.375 36.6672C309.375 34.0097 307.343 31.8555 304.837 31.8555C302.33 31.8555 300.299 34.0097 300.299 36.6672C300.299 39.3246 302.33 41.4789 304.837 41.4789ZM301.971 68.0674L304.839 73.3338L307.706 68.0674L310.574 62.801H304.839H299.104L301.971 68.0674ZM313.753 53.1838C314.172 52.8337 314.569 52.4565 314.943 52.0521C314.743 52.1894 314.537 52.3153 314.324 52.4291C314.227 52.5545 314.066 52.6251 313.916 52.6911C313.756 52.7613 313.608 52.8264 313.56 52.9467C313.51 52.9249 313.446 52.9704 313.37 53.0235C313.281 53.086 313.177 53.159 313.065 53.1455C312.955 53.2489 312.824 53.3262 312.684 53.3723C312.648 53.2843 312.196 53.5314 312.086 53.6922C312 53.7169 312.007 53.6964 312.013 53.6759C312.017 53.6637 312.02 53.6516 312.005 53.6488C311.965 53.6897 311.917 53.6995 311.868 53.7093C311.82 53.7192 311.771 53.729 311.731 53.7702C311.771 53.7855 311.707 53.8952 311.592 53.8953C311.6 53.8864 311.62 53.8708 311.642 53.8537C311.692 53.8147 311.752 53.7676 311.698 53.7727C311.615 53.7825 311.542 53.835 311.469 53.8877C311.416 53.9258 311.363 53.9639 311.306 53.986C311.318 53.9395 311.283 53.9439 311.212 53.9528C311.197 53.9546 311.181 53.9566 311.163 53.9584C311.094 54.0199 311.019 54.0587 310.943 54.0976C310.866 54.1374 310.789 54.1774 310.716 54.2421C310.798 54.2161 310.831 54.218 310.79 54.2682C310.756 54.2664 310.723 54.2741 310.693 54.2905C310.684 54.3063 310.71 54.309 310.736 54.3117C310.766 54.3148 310.796 54.3179 310.77 54.342C310.628 54.3631 310.563 54.3943 310.501 54.424C310.431 54.4577 310.364 54.4894 310.194 54.5025C310.219 54.4809 310.277 54.4593 310.328 54.4404C310.412 54.4094 310.476 54.3857 310.34 54.3812C310.373 54.3426 310.45 54.32 310.514 54.301C310.581 54.2814 310.635 54.2655 310.615 54.2395C310.583 54.2475 310.551 54.2601 310.519 54.2726C310.447 54.3011 310.374 54.3296 310.293 54.3054C310.24 54.3644 310.18 54.3837 310.12 54.4031C310.075 54.4177 310.03 54.4324 309.987 54.464C310.029 54.4817 310.066 54.4656 310.102 54.4495C310.117 54.4431 310.132 54.4366 310.147 54.4323C310.158 54.4292 310.169 54.4272 310.181 54.4275C310.114 54.4697 310.14 54.4774 310.166 54.4852C310.172 54.4869 310.178 54.4886 310.182 54.4907C310.189 54.4935 310.194 54.4972 310.194 54.5025C310.155 54.5397 310.11 54.5677 310.06 54.5845C310.011 54.6013 309.958 54.6066 309.906 54.5999C309.917 54.5915 309.931 54.5823 309.945 54.5731C309.983 54.5479 310.022 54.5225 309.994 54.5136C309.972 54.5281 309.948 54.5303 309.925 54.5324C309.916 54.5332 309.906 54.534 309.897 54.5356C309.886 54.5375 309.875 54.5405 309.865 54.5459C309.805 54.5758 309.814 54.5886 309.822 54.6015C309.831 54.6144 309.84 54.6273 309.78 54.6573C309.651 54.6629 309.508 54.6989 309.367 54.7341C309.149 54.789 308.936 54.8424 308.794 54.7773C308.78 54.7842 308.753 54.7922 308.723 54.8012C308.651 54.823 308.56 54.85 308.604 54.8775C308.626 54.8889 308.676 54.8749 308.722 54.8622C308.781 54.8456 308.832 54.8312 308.802 54.8788C308.665 54.9008 308.53 54.9316 308.397 54.9708C308.255 54.9883 308.152 54.9859 308.21 54.908C308.166 54.9055 308.121 54.9117 308.078 54.9263C308.016 54.9497 308.024 54.9634 308.031 54.9771C308.039 54.9909 308.046 55.0046 307.984 55.028C307.648 55.06 307.25 55.1127 306.894 55.1598C306.685 55.1876 306.49 55.2133 306.331 55.2318C306.029 55.1953 305.725 55.208 305.421 55.2206C305.128 55.2329 304.835 55.2451 304.543 55.2129C304.547 55.2166 304.553 55.2205 304.56 55.2243C304.569 55.2298 304.578 55.2352 304.581 55.2402C304.584 55.2448 304.582 55.249 304.57 55.2525C304.353 55.1666 304.021 55.1492 303.679 55.1312C303.408 55.1169 303.13 55.1023 302.898 55.0531C302.854 55.0662 302.886 55.0936 302.85 55.1081C302.663 55.0501 302.471 55.013 302.279 54.9761C302.102 54.9421 301.926 54.9083 301.756 54.8583C301.786 54.8807 301.813 54.9027 301.741 54.9067C301.577 54.7988 301.384 54.7549 301.193 54.7826C301.005 54.675 300.795 54.6255 300.587 54.5762C300.385 54.5286 300.184 54.4811 300.003 54.3815C300.003 54.3968 299.985 54.4016 299.959 54.3998C300.132 54.4975 300.307 54.5904 300.484 54.6785C303.09 55.4358 305.82 55.5937 308.491 55.1399C308.913 55.0191 309.341 54.9232 309.773 54.8526C310.002 54.7796 310.226 54.6896 310.443 54.5831C310.467 54.5788 310.492 54.5819 310.517 54.585C310.561 54.5903 310.605 54.5957 310.642 54.5623C310.641 54.4977 310.889 54.447 311.039 54.4165C311.074 54.4093 311.103 54.4033 311.123 54.3984C311.24 54.3697 311.365 54.3099 311.475 54.2574C311.606 54.1951 311.715 54.1431 311.763 54.1651C311.672 54.2135 311.577 54.2526 311.478 54.2819C311.619 54.3212 311.807 54.2075 311.998 54.0914C312.169 53.9877 312.343 53.8822 312.489 53.8823C312.636 53.7443 312.872 53.649 313.089 53.5612C313.333 53.4624 313.554 53.3731 313.599 53.243C313.632 53.2415 313.66 53.2266 313.688 53.2117C313.709 53.2004 313.73 53.1892 313.753 53.1838ZM299.802 54.3091C299.807 54.307 299.814 54.3051 299.823 54.3036C299.859 54.3679 300.092 54.3821 300.059 54.3322C299.953 54.2879 299.948 54.2689 299.941 54.2425C299.937 54.2276 299.932 54.2103 299.909 54.1847C299.733 54.1557 299.675 54.1856 299.657 54.223C299.705 54.2521 299.753 54.2808 299.802 54.3091ZM318.193 18.3878C320.147 19.2556 321.89 20.3578 323.423 21.6944C325.553 23.5531 327.185 25.7971 328.319 28.4264C329.497 31.0558 330.087 34.0251 330.087 37.3344C330.087 40.5984 329.497 43.5451 328.319 46.1744C327.185 48.7584 325.553 50.9798 323.423 52.8384C321.292 54.6971 318.753 56.1251 315.807 57.1224C315.769 57.1344 315.732 57.1463 315.695 57.1582C315.525 57.3122 315.245 57.4269 314.998 57.5277C314.753 57.6278 314.542 57.7142 314.507 57.8118C314.403 57.8904 314.288 57.9516 314.166 57.9933C314.17 57.9896 314.174 57.9856 314.178 57.9816C314.184 57.9762 314.19 57.9707 314.196 57.9652C314.229 57.9348 314.263 57.9044 314.23 57.9062C314.108 57.963 313.983 58.0082 313.858 58.0534L313.858 58.0535C313.735 58.0978 313.613 58.1421 313.494 58.1972C313.502 58.1888 313.512 58.1794 313.523 58.17C313.556 58.1397 313.59 58.109 313.557 58.1108C313.504 58.1592 313.442 58.177 313.381 58.195C313.323 58.2118 313.265 58.2287 313.212 58.2706C313.255 58.2619 313.297 58.2491 313.339 58.2363C313.39 58.2207 313.441 58.2051 313.494 58.1972C313.295 58.299 313.107 58.4214 312.931 58.5626C312.834 58.5763 312.802 58.5949 312.764 58.6171C312.716 58.6448 312.659 58.6783 312.451 58.7151C312.074 58.9137 311.673 59.0556 311.259 59.137C311.269 59.1304 311.28 59.1232 311.292 59.116C311.329 59.0931 311.367 59.07 311.334 59.0655C311.296 59.0837 311.253 59.0904 311.211 59.0849C311.246 59.1354 311.073 59.2267 310.891 59.2204C310.862 59.2188 310.873 59.2066 310.884 59.1945C310.893 59.184 310.903 59.1735 310.886 59.1699C310.838 59.1973 310.83 59.2103 310.824 59.2198C310.816 59.2322 310.812 59.2386 310.728 59.2629C310.666 59.2646 310.673 59.2484 310.68 59.2323C310.684 59.2241 310.687 59.2159 310.682 59.21C310.638 59.2324 310.629 59.2459 310.62 59.2595C310.611 59.2722 310.602 59.2849 310.565 59.3049C310.288 59.3442 310.015 59.414 309.751 59.5132C309.653 59.5201 309.696 59.4915 309.739 59.4628C309.778 59.4362 309.818 59.4095 309.746 59.4112C309.41 59.6088 309.02 59.6801 308.641 59.6135C308.686 59.6193 308.726 59.5946 308.64 59.5882C308.832 59.5612 309.091 59.4353 308.967 59.3868C308.894 59.4075 308.859 59.4252 308.83 59.4401C308.789 59.4615 308.759 59.477 308.64 59.4867C308.674 59.5153 308.707 59.5443 308.559 59.6004C308.483 59.5918 308.506 59.5685 308.529 59.5452C308.55 59.5238 308.571 59.5024 308.517 59.4922C308.407 59.4772 308.296 59.4851 308.189 59.5154C307.779 59.6861 307.348 59.7977 306.909 59.8474C307.021 59.8134 307.122 59.7795 307.039 59.7538C306.98 59.7576 306.932 59.7587 306.891 59.7596C306.768 59.7623 306.715 59.7635 306.662 59.8329C306.523 59.7971 306.502 59.8203 306.481 59.8449C306.461 59.8674 306.441 59.8909 306.328 59.8722C306.448 59.839 306.451 59.8106 306.455 59.7822C306.456 59.7727 306.457 59.7631 306.463 59.7533C306.408 59.7471 306.353 59.7493 306.298 59.7599C306.297 59.7655 306.298 59.7711 306.298 59.7767C306.301 59.8004 306.303 59.8241 306.165 59.8535C306.092 59.7795 305.9 59.8337 305.913 59.8886C305.643 59.8677 305.367 59.8775 305.105 59.8869L305.104 59.8869C305.003 59.8905 304.903 59.894 304.806 59.8957C304.515 59.897 304.226 59.8456 303.951 59.7438C303.877 59.7679 303.807 59.7675 303.737 59.767C303.668 59.7666 303.599 59.7662 303.524 59.7899C303.446 59.7515 303.361 59.7308 303.275 59.729C303.189 59.7273 303.103 59.7446 303.024 59.7799C302.951 59.7683 302.892 59.7571 302.841 59.7475C302.685 59.7181 302.611 59.7043 302.485 59.7415C302.366 59.7048 302.43 59.6996 302.494 59.6943C302.547 59.69 302.6 59.6857 302.549 59.6635C302.484 59.635 302.425 59.6283 302.376 59.6226C302.311 59.6151 302.262 59.6094 302.236 59.5585C302.125 59.5834 302.009 59.5721 301.904 59.5262C301.915 59.5241 301.929 59.5223 301.942 59.5206C301.984 59.5152 302.027 59.5098 301.999 59.492C301.634 59.4525 301.23 59.3803 300.836 59.3098L300.725 59.2899C300.514 59.257 300.311 59.2054 300.119 59.1565C299.919 59.1055 299.73 59.0575 299.558 59.0373C299.775 59.091 299.987 59.1633 300.194 59.2536C300.141 59.2327 300.068 59.2161 300.097 59.2435L300.106 59.2472C300.239 59.303 300.389 59.366 300.346 59.2881C300.618 59.3606 300.483 59.4214 300.337 59.4286C300.069 59.2889 299.659 59.0831 299.545 59.1766C299.502 59.1324 299.444 59.1241 299.386 59.1157C299.331 59.1077 299.276 59.0997 299.234 59.0611C299.262 59.0449 299.329 59.0607 299.378 59.0721C299.424 59.083 299.453 59.0899 299.414 59.0608C299.301 58.9992 299.176 58.9675 299.05 58.9684C299.067 58.9866 299.118 59.0145 299.075 59.015C298.949 58.9349 299.004 58.9074 299.205 58.9225C299.3 58.985 299.41 59.0168 299.522 59.0139C299.416 58.9601 299.454 58.948 299.491 58.9359C299.525 58.9252 299.558 58.9145 299.492 58.8749C299.396 58.8606 299.302 58.8377 299.21 58.8064C298.876 58.8918 298.525 58.8703 298.201 58.7448C298.394 58.7805 298.13 58.6514 298.069 58.6384C297.993 58.6679 297.801 58.5679 297.629 58.4785C297.565 58.4449 297.503 58.4128 297.451 58.3897C297.468 58.3902 297.488 58.3924 297.508 58.3945C297.563 58.4003 297.618 58.4062 297.596 58.3807C297.498 58.3198 297.416 58.3209 297.342 58.322C297.282 58.3228 297.227 58.3235 297.175 58.2912C297.241 58.2584 297.129 58.2306 297.029 58.2056C296.98 58.1933 296.933 58.1818 296.912 58.1706C296.971 58.1749 296.909 58.1302 296.848 58.0854C296.811 58.0587 296.774 58.0319 296.763 58.0155C296.745 58.0148 296.728 58.0122 296.711 58.0084C296.691 58.0041 296.673 57.9983 296.654 57.9926C296.622 57.9825 296.589 57.9725 296.552 57.9699C296.658 58.0035 296.798 58.0732 296.681 58.0762C296.53 57.9759 296.321 57.889 296.316 57.9635C296.24 57.9098 296.269 57.9112 296.299 57.9126C296.328 57.914 296.357 57.9154 296.281 57.8615C296.151 57.8505 296.13 57.8286 296.103 57.7991C296.086 57.781 296.066 57.7599 296.016 57.7367C295.915 57.7123 295.922 57.7454 295.93 57.7785C295.931 57.7827 295.932 57.7869 295.933 57.791C295.969 57.7671 296.069 57.8321 296.175 57.9014C296.246 57.9474 296.319 57.9953 296.379 58.0201C296.298 57.9988 296.3 58.0154 296.301 58.0313C296.302 58.0437 296.303 58.0557 296.265 58.0491C296.16 57.9757 296.045 57.92 295.923 57.884C295.903 57.9115 295.961 57.9541 296.027 58.0027L296.027 58.0029C296.054 58.0227 296.083 58.0436 296.108 58.0648C295.924 57.99 295.765 57.8579 295.653 57.6859C295.511 57.6418 295.417 57.5561 295.327 57.4735C295.306 57.4547 295.286 57.4361 295.265 57.4182C295.237 57.3938 295.208 57.3706 295.177 57.3499C295.189 57.3367 295.226 57.3364 295.262 57.3362C295.304 57.336 295.346 57.3357 295.351 57.3156C295.272 57.2788 295.198 57.2353 295.123 57.1917C295.031 57.1377 294.938 57.0835 294.837 57.0424C294.833 57.0425 294.829 57.0428 294.826 57.0432C294.813 57.0448 294.801 57.0484 294.79 57.0519C294.751 57.0642 294.715 57.0756 294.618 56.9956C294.627 56.9816 294.663 56.9913 294.695 56.9999C294.744 57.013 294.783 57.0235 294.705 56.9439C294.63 56.9532 294.613 56.9407 294.57 56.9077C294.548 56.8913 294.519 56.8697 294.473 56.8432C294.469 56.8455 294.464 56.8475 294.459 56.8492C294.453 56.8515 294.445 56.8535 294.438 56.8555C294.426 56.8588 294.414 56.8622 294.404 56.8674C294.395 56.8725 294.388 56.8794 294.386 56.8898L294.404 56.9008C294.469 56.9406 294.63 57.0394 294.544 57.0265C294.506 57.0067 294.473 56.9798 294.44 56.9528C294.387 56.9094 294.334 56.8656 294.259 56.8506C294.262 56.8797 294.317 56.9202 294.358 56.9494C294.396 56.9774 294.42 56.995 294.37 56.9823C294.355 56.963 294.334 56.9489 294.312 56.9418C294.289 56.9347 294.265 56.9349 294.242 56.9424C294.128 56.8283 294.116 56.7807 294.162 56.7715C294.073 56.7037 293.979 56.642 293.882 56.5868C293.852 56.5511 293.838 56.5169 293.825 56.4843C293.801 56.4253 293.78 56.3716 293.665 56.3241C293.575 56.2852 293.582 56.3118 293.59 56.3382C293.598 56.3668 293.606 56.3954 293.49 56.3414C293.421 56.2731 293.465 56.2798 293.508 56.2864C293.552 56.2931 293.595 56.2997 293.526 56.2318C293.272 56.0298 292.996 55.8601 292.705 55.726C292.743 55.7099 292.701 55.6714 292.638 55.6276C291.135 54.8415 289.769 53.9118 288.539 52.8384C286.408 50.9798 284.776 48.7584 283.643 46.1744C282.509 43.5451 281.943 40.5984 281.943 37.3344C281.943 34.0251 282.509 31.0558 283.643 28.4264C284.776 25.7971 286.408 23.5531 288.539 21.6944C288.94 21.3444 289.355 21.0105 289.786 20.6926C289.763 20.6829 289.706 20.7132 289.648 20.7434C289.588 20.7752 289.527 20.807 289.509 20.7917C289.589 20.6831 289.665 20.6439 289.743 20.6035C289.842 20.5525 289.944 20.4995 290.066 20.3022C289.917 20.4322 289.837 20.4714 289.761 20.5084C289.676 20.55 289.596 20.5889 289.431 20.7508C289.539 20.6198 289.803 20.3297 289.853 20.3513C289.817 20.3749 289.788 20.4081 289.769 20.4474C289.933 20.381 290.084 20.2796 290.21 20.1496C290.209 20.154 290.208 20.1585 290.206 20.163C290.201 20.1774 290.194 20.1917 290.188 20.2046C290.166 20.2513 290.152 20.2802 290.263 20.2339C290.289 20.2047 290.318 20.1808 290.346 20.157C290.391 20.1198 290.436 20.0826 290.468 20.0251C290.44 20.031 290.402 20.0627 290.376 20.0847C290.341 20.1139 290.326 20.1262 290.381 20.0397C290.413 20.0138 290.443 19.9912 290.471 19.9702C290.585 19.8844 290.661 19.8271 290.695 19.6956C290.868 19.6472 291.172 19.3235 291.083 19.3168L291.229 19.2479C291.24 19.1775 291.286 19.1427 291.349 19.0946C291.383 19.0688 291.422 19.0391 291.463 18.998C291.515 18.9828 291.536 18.987 291.554 18.9906C291.582 18.996 291.602 19 291.706 18.9351C291.828 18.7574 291.986 18.6098 292.167 18.5022C292.145 18.5394 292.09 18.5878 292.038 18.6335C291.966 18.6971 291.9 18.7554 291.939 18.7707C292.013 18.7056 292.066 18.6847 292.109 18.6676C292.137 18.6566 292.161 18.6473 292.184 18.6287C292.24 18.5653 292.287 18.5171 292.326 18.4762C292.418 18.3815 292.471 18.3265 292.52 18.2148C292.66 18.1387 292.787 18.0269 292.914 17.9145L292.914 17.9143C293.105 17.7454 293.298 17.5751 293.539 17.5224C293.538 17.4844 293.569 17.4497 293.659 17.3885C293.743 17.3508 293.758 17.3716 293.772 17.3896C293.788 17.4098 293.8 17.4266 293.904 17.3527C293.947 17.3099 293.921 17.3099 293.896 17.3099C293.867 17.3099 293.838 17.3099 293.908 17.2481C294.107 17.1488 294.29 17.0157 294.449 16.854C294.551 16.8067 294.517 16.844 294.482 16.8813C294.454 16.9119 294.425 16.9425 294.473 16.9263C294.532 16.8864 294.603 16.8481 294.674 16.8101C294.815 16.7337 294.954 16.6587 294.992 16.5741C295.162 16.5186 295.322 16.4349 295.466 16.326C295.506 16.3199 295.523 16.325 295.54 16.33C295.564 16.3371 295.588 16.3442 295.672 16.3213C295.726 16.2482 295.794 16.2276 295.862 16.2071C295.922 16.189 295.981 16.171 296.032 16.1171C296.004 16.1018 296.031 16.0594 296.059 16.0168C296.066 16.0053 296.074 15.9937 296.08 15.9826C296.154 15.9749 296.128 16.0155 296.103 16.0562C296.075 16.1016 296.047 16.1471 296.157 16.125C296.211 16.081 296.272 16.0467 296.336 16.0235C296.333 16.0213 296.33 16.0193 296.326 16.0173C296.299 16.002 296.272 15.9868 296.352 15.9189C296.419 15.9036 296.42 15.9227 296.421 15.938C296.422 15.9553 296.423 15.9679 296.516 15.9219C296.608 15.8414 296.558 15.8234 296.51 15.8063L296.51 15.8061C296.502 15.8033 296.494 15.8006 296.487 15.7976C296.568 15.8016 296.575 15.7836 296.584 15.7626C296.591 15.7426 296.6 15.7199 296.674 15.7107C296.65 15.7359 296.672 15.7298 296.708 15.7203C296.735 15.7131 296.77 15.7038 296.796 15.7049C296.776 15.7256 296.742 15.7423 296.716 15.7552C296.686 15.7702 296.666 15.78 296.69 15.7848C296.825 15.766 296.955 15.7175 297.071 15.6423C297.025 15.6355 296.984 15.6556 296.944 15.6757C296.897 15.6987 296.851 15.7216 296.796 15.7049C296.877 15.6364 296.968 15.5981 297.043 15.5667C297.136 15.5276 297.204 15.4991 297.194 15.4362C297.208 15.4672 297.251 15.4669 297.291 15.4667C297.321 15.4665 297.35 15.4663 297.366 15.4788C297.315 15.5068 297.223 15.5843 297.268 15.6085C297.3 15.5971 297.342 15.5843 297.389 15.5703C297.548 15.5221 297.756 15.4592 297.756 15.3874C297.652 15.4657 297.451 15.5016 297.442 15.4504C297.672 15.3453 297.896 15.227 298.114 15.0958C298.208 15.0906 298.303 15.0504 298.379 15.0179C298.472 14.9783 298.539 14.9501 298.545 15.0104C298.641 14.9617 298.724 14.9321 298.798 14.9058C298.878 14.8773 298.947 14.8527 299.01 14.812C299.009 14.8577 299.094 14.8278 299.193 14.7929C299.284 14.7609 299.386 14.7247 299.447 14.7381C299.39 14.7791 299.33 14.7909 299.271 14.8028C299.212 14.8146 299.152 14.8264 299.096 14.8674C299.267 14.8687 299.186 14.8946 299.089 14.926C299.003 14.9536 298.904 14.9854 298.95 15.0086C299.029 15.0006 299.09 14.9851 299.141 14.9723C299.192 14.9595 299.232 14.9496 299.265 14.9529C299.361 14.8817 299.494 14.8214 299.629 14.7605C299.745 14.7082 299.862 14.6553 299.957 14.5946C299.99 14.6051 299.964 14.6306 299.938 14.656C299.91 14.6831 299.882 14.7102 299.925 14.7193C299.895 14.7463 299.825 14.768 299.762 14.7873C299.686 14.8109 299.621 14.8309 299.656 14.8527C299.866 14.7563 300.092 14.7033 300.321 14.6965C300.484 14.5853 300.679 14.5382 300.872 14.563C300.993 14.5388 301.068 14.4927 301.138 14.4503C301.229 14.3945 301.309 14.3452 301.469 14.3602C301.334 14.395 301.318 14.4241 301.299 14.4604C301.296 14.4666 301.292 14.4729 301.288 14.4796C301.284 14.4873 301.278 14.4953 301.27 14.5039C301.425 14.45 301.629 14.4158 301.817 14.3844C302.047 14.346 302.251 14.3119 302.308 14.2513C302.234 14.2285 302.221 14.2438 302.209 14.2592C302.196 14.2745 302.184 14.2898 302.109 14.2671L302.312 14.1744C302.359 14.2265 302.477 14.2129 302.607 14.198C302.654 14.1926 302.703 14.187 302.75 14.1844C302.797 14.1239 302.898 14.1136 303.013 14.1019C303.087 14.0943 303.167 14.0861 303.241 14.0634C303.327 14.0733 303.363 14.0867 303.391 14.0974C303.422 14.1092 303.445 14.1179 303.518 14.1152C303.636 14.0716 303.526 14.0509 303.433 14.0331C303.337 14.015 303.258 13.9999 303.451 13.9667C303.443 14.0523 303.99 14.1106 304.246 14.0627C304.177 14.0439 304.179 14.0229 304.214 14.0007C304.291 14.0114 304.297 14.0247 304.303 14.038C304.309 14.0495 304.314 14.061 304.365 14.0707C304.488 14.0597 304.555 14.04 304.607 14.025C304.682 14.0031 304.723 13.991 304.852 14.0299C304.89 14.0176 304.885 14.0025 304.88 13.9875C304.874 13.9725 304.869 13.9575 304.906 13.9453C304.983 13.9638 304.989 13.9776 304.995 13.9914C305 14.0034 305.005 14.0155 305.057 14.0306C305.244 13.9832 305.44 13.9875 305.625 14.0429C305.71 14.0323 305.689 14.0146 305.667 13.9968C305.645 13.9781 305.622 13.9593 305.725 13.9489C305.789 13.96 305.857 13.9587 305.924 13.9574C305.98 13.9563 306.037 13.9552 306.092 13.9617C305.983 13.9791 305.939 14.0012 305.996 14.0306L306.99 14.0528C307.301 14.0873 307.611 14.1408 307.981 14.2071C307.941 14.183 307.908 14.1601 307.996 14.1585C308.042 14.1974 308.099 14.2 308.156 14.2025C308.196 14.2043 308.236 14.2061 308.272 14.2204C308.232 14.2346 308.23 14.2555 308.293 14.2879C308.484 14.32 308.676 14.3375 308.869 14.3403C308.909 14.3585 308.916 14.3707 308.922 14.3828C308.928 14.3941 308.934 14.4055 308.968 14.4218C309.129 14.3894 309.264 14.4372 309.4 14.4851C309.495 14.5184 309.589 14.5519 309.693 14.5583C309.674 14.5452 309.675 14.5381 309.675 14.531C309.676 14.5255 309.677 14.5201 309.668 14.5122C309.548 14.4897 309.43 14.4518 309.319 14.3992C309.473 14.4437 309.636 14.4499 309.793 14.4175C309.909 14.4697 309.833 14.4667 309.756 14.4638C309.693 14.4613 309.629 14.4589 309.677 14.4885C309.862 14.5361 310.104 14.5695 310.361 14.605C310.85 14.6723 311.393 14.7472 311.703 14.9412C311.772 14.9233 311.811 14.9407 311.883 14.9725C311.912 14.985 311.946 14.9998 311.988 15.0156C311.975 15.0583 311.845 15.024 311.726 14.9928C311.602 14.9601 311.49 14.9308 311.538 14.9962C311.928 15.145 312.326 15.27 312.73 15.3706C312.877 15.4695 312.768 15.4581 312.685 15.3657C312.69 15.385 312.611 15.3704 312.522 15.3536C312.406 15.332 312.272 15.3068 312.276 15.3476C312.517 15.4373 312.767 15.494 313.021 15.5164C312.975 15.5155 313.023 15.5533 313.072 15.5914C313.607 15.795 314.153 15.965 314.707 16.1004C314.775 16.1713 314.739 16.1863 314.702 16.2012C314.694 16.2046 314.686 16.208 314.679 16.2121C314.648 16.187 314.643 16.1718 314.64 16.1601C314.636 16.1463 314.633 16.1375 314.591 16.1232C314.494 16.0763 314.452 16.0684 314.489 16.1254C314.608 16.1976 314.73 16.2627 314.856 16.3202C314.837 16.2965 314.863 16.2964 314.889 16.2962C314.907 16.2961 314.924 16.296 314.928 16.2888C314.981 16.3087 315.019 16.3482 315.057 16.3877C315.096 16.4282 315.135 16.4688 315.191 16.4883C315.202 16.4908 315.215 16.4947 315.228 16.4986C315.269 16.5104 315.309 16.5222 315.29 16.4949C315.245 16.4668 315.212 16.4475 315.187 16.4332C315.144 16.4081 315.127 16.3984 315.119 16.3839C315.112 16.3718 315.11 16.3565 315.104 16.3265C314.987 16.2836 314.873 16.2279 314.767 16.1603C314.84 16.1727 314.784 16.139 314.729 16.1053C314.674 16.0715 314.618 16.0377 314.692 16.0501C314.799 16.1002 314.802 16.1054 314.822 16.1342C314.826 16.1393 314.83 16.1452 314.835 16.1523C314.845 16.1659 314.86 16.1838 314.884 16.2088C315.067 16.3107 315.198 16.3594 315.316 16.4038C315.43 16.446 315.533 16.4844 315.66 16.5611C315.646 16.56 315.631 16.5582 315.616 16.5561C315.594 16.5531 315.57 16.5493 315.547 16.5455C315.418 16.5245 315.288 16.5034 315.357 16.6131C315.453 16.7012 315.581 16.7491 315.708 16.7971C315.812 16.8361 315.915 16.8752 316.002 16.9359C316.068 17.0385 316.169 17.0955 316.271 17.1525C316.316 17.178 316.362 17.2036 316.404 17.2333C316.426 17.1808 316.87 17.3884 316.869 17.4553C316.764 17.3827 316.551 17.2767 316.682 17.4187C316.79 17.4561 316.894 17.5062 316.992 17.5679C316.976 17.5449 316.991 17.5448 317.006 17.5447C317.025 17.5445 317.044 17.5443 316.999 17.4976C317.086 17.5517 317.141 17.5862 317.182 17.6118C317.29 17.6795 317.299 17.6854 317.551 17.8308C317.652 17.9837 317.762 18.0469 317.872 18.1101C317.982 18.1731 318.091 18.2361 318.193 18.3878ZM298.485 57.7612C298.609 57.8394 298.914 57.9534 298.959 57.8857C299.101 57.9926 298.776 57.9979 298.601 57.9117C298.591 57.9538 298.703 57.9798 298.825 58.0083C298.923 58.0312 299.028 58.0557 299.083 58.0915C299.119 58.0796 299.082 58.0647 299.039 58.048C299.019 58.0401 298.998 58.0318 298.983 58.0232C299.065 58.0251 299.141 58.0405 299.217 58.0559C299.286 58.0701 299.356 58.0843 299.43 58.0877C299.48 58.1188 299.412 58.1154 299.343 58.1121C299.327 58.1113 299.311 58.1105 299.297 58.1101C299.275 58.1096 299.257 58.1101 299.247 58.113C299.346 58.1376 299.461 58.1555 299.578 58.1739C299.837 58.2143 300.109 58.2568 300.253 58.3773C300.345 58.3561 300.446 58.3553 300.563 58.3543C300.662 58.3534 300.772 58.3525 300.896 58.3392C300.825 58.2978 300.749 58.3005 300.691 58.3026C300.63 58.3047 300.589 58.3062 300.595 58.2537C300.501 58.2385 300.406 58.2569 300.323 58.3059C300.023 58.2584 299.731 58.1613 299.459 58.018L299.244 58.0208C299.197 57.9999 299.156 57.9652 299.112 57.9274C299.096 57.914 299.08 57.9002 299.063 57.8864C299.008 57.8752 298.954 57.8638 298.899 57.8523C298.863 57.8697 298.74 57.8354 298.625 57.7925C298.578 57.7822 298.532 57.7718 298.485 57.7612ZM306.072 58.5503C306.077 58.6189 306.299 58.6804 306.518 58.6065C306.403 58.6116 306.289 58.5922 306.182 58.5498C306.146 58.55 306.109 58.5501 306.072 58.5503ZM307.405 58.5241C307.376 58.5307 307.342 58.5424 307.299 58.5655C307.429 58.594 307.564 58.5754 307.683 58.5129C307.591 58.517 307.498 58.5207 307.405 58.5241ZM307.7 58.5122C307.766 58.5319 307.832 58.52 307.899 58.5029C307.833 58.5061 307.766 58.5093 307.7 58.5122ZM309.483 58.3896C309.42 58.4068 309.357 58.4492 309.295 58.4916C309.245 58.5254 309.195 58.5592 309.145 58.5807C309.282 58.537 309.537 58.5288 309.383 58.6238C309.251 58.6559 309.116 58.6706 308.981 58.6854C308.812 58.7039 308.642 58.7225 308.474 58.7752C308.496 58.7844 308.552 58.7891 308.514 58.8073C308.39 58.7992 308.425 58.7676 308.46 58.736C308.491 58.707 308.523 58.6779 308.434 58.6668C308.356 58.7185 308.278 58.7101 308.2 58.7017C308.133 58.6944 308.066 58.6872 307.999 58.718C308.017 58.7301 308.059 58.7334 308.101 58.7366C308.182 58.743 308.263 58.7492 308.157 58.8219C308.075 58.8151 307.994 58.7924 307.92 58.7548L307.641 58.8844C307.53 58.8777 307.419 58.8933 307.308 58.9089C307.182 58.9267 307.055 58.9444 306.93 58.9291C307.01 58.8898 307.017 58.9022 307.024 58.9144C307.03 58.925 307.036 58.9354 307.088 58.913C307.116 58.8964 307.097 58.8865 307.077 58.8767C307.064 58.87 307.051 58.8634 307.052 58.8546C306.793 58.9385 306.522 58.9772 306.251 58.9693C306.176 58.9575 306.186 58.9425 306.195 58.9275C306.205 58.9124 306.214 58.8974 306.14 58.8856C306.102 58.8849 306.07 58.8834 306.043 58.8822C305.929 58.877 305.884 58.8749 305.778 58.9371C305.657 58.9198 305.678 58.8972 305.699 58.8746C305.704 58.8681 305.71 58.8617 305.713 58.8553C305.715 58.8498 305.715 58.8445 305.71 58.8393C305.6 58.8457 305.489 58.8584 305.379 58.8712L305.311 58.8788C305.427 58.8362 305.391 58.8306 305.319 58.8194C305.285 58.8141 305.242 58.8074 305.204 58.7946C305.14 58.8424 304.89 58.8511 304.968 58.8032C305.289 58.7834 305.608 58.7892 305.928 58.7951C306.079 58.7978 306.231 58.8006 306.384 58.8006C306.344 58.7837 306.382 58.7635 306.42 58.7434C306.451 58.7272 306.482 58.711 306.471 58.6964C306.316 58.7058 306.129 58.7029 305.937 58.6998C305.501 58.6929 305.038 58.6856 304.847 58.82C304.747 58.8148 304.751 58.8033 304.756 58.7873C304.761 58.7731 304.766 58.7554 304.701 58.7357C304.543 58.7476 304.384 58.7453 304.226 58.7291C304.205 58.7543 304.158 58.7587 304.119 58.7624C304.079 58.7661 304.046 58.7692 304.055 58.7929C304.183 58.8286 304.317 58.8377 304.449 58.8195C304.44 58.815 304.429 58.8102 304.418 58.8055C304.382 58.7903 304.346 58.775 304.378 58.7645C304.427 58.7842 304.479 58.785 304.531 58.7859C304.585 58.7868 304.639 58.7878 304.69 58.8101C304.626 58.8314 304.631 58.8572 304.636 58.8829C304.641 58.9082 304.647 58.9334 304.587 58.9545C304.485 58.9484 304.489 58.9368 304.494 58.9208C304.499 58.9068 304.505 58.8893 304.44 58.8694C304.334 58.9088 304.203 58.8816 304.089 58.8581C303.962 58.8318 303.857 58.81 303.835 58.8914C303.769 58.8748 303.7 58.8743 303.634 58.8902C303.564 58.8781 303.554 58.8567 303.546 58.8394C303.537 58.8203 303.53 58.806 303.449 58.8143C303.42 58.8212 303.429 58.8308 303.439 58.8404C303.448 58.8488 303.456 58.8573 303.439 58.864C303.364 58.8532 303.289 58.8468 303.213 58.8403C303.104 58.8309 302.996 58.8216 302.891 58.7997C302.957 58.8288 302.892 58.827 302.835 58.8253C302.784 58.8239 302.739 58.8226 302.799 58.8437C302.97 58.8447 303.141 58.8695 303.306 58.9176C303.105 58.8982 302.903 58.8964 302.701 58.9121C302.701 58.9079 302.706 58.9039 302.712 58.9001C302.719 58.8961 302.728 58.8923 302.737 58.8885C302.77 58.8745 302.803 58.8604 302.72 58.8379C302.709 58.84 302.699 58.8407 302.689 58.8408C302.674 58.8408 302.658 58.8388 302.643 58.8368C302.615 58.8332 302.587 58.8297 302.556 58.8377C302.566 58.8548 302.553 58.8679 302.539 58.8811C302.523 58.8967 302.507 58.9124 302.531 58.9349C302.704 58.9627 302.881 58.9679 303.056 58.9502C303.139 58.9734 303.157 58.9917 303.174 59.0101C303.186 59.0232 303.199 59.0363 303.235 59.0511C303.353 59.0481 303.445 59.0352 303.528 59.0236C303.693 59.0006 303.822 58.9825 304.044 59.0568C304.064 59.0789 304.011 59.0818 303.964 59.0843C303.906 59.0875 303.856 59.0902 303.95 59.126C304.068 59.0771 304.197 59.064 304.322 59.0882C304.347 59.1075 304.283 59.1133 304.217 59.1194C304.129 59.1275 304.036 59.1359 304.143 59.1768C304.189 59.1563 304.241 59.1499 304.291 59.1437C304.365 59.1345 304.437 59.1257 304.486 59.0738C304.624 59.1157 304.561 59.1255 304.493 59.1359C304.427 59.1461 304.357 59.1569 304.465 59.1984C304.549 59.1722 304.629 59.17 304.683 59.1684C304.755 59.1664 304.784 59.1656 304.721 59.1144C304.915 59.2099 305.106 59.1862 305.121 59.1122C305.173 59.1304 305.23 59.1284 305.281 59.1064C305.313 59.1137 305.317 59.1309 305.321 59.148C305.327 59.1764 305.333 59.2047 305.47 59.1878C305.508 59.1662 305.52 59.1458 305.531 59.1253C305.539 59.1116 305.547 59.0978 305.563 59.0836C305.576 59.083 305.591 59.082 305.609 59.0808L305.642 59.0785C305.789 59.0681 306.013 59.0523 305.999 59.1051C305.879 59.0978 305.76 59.0981 305.64 59.1061C305.764 59.1304 305.91 59.1285 306.039 59.1269C306.238 59.1243 306.398 59.1222 306.389 59.2153C306.483 59.1869 306.575 59.1898 306.667 59.1927C306.762 59.1957 306.858 59.1987 306.955 59.1669C306.904 59.1685 306.854 59.1605 306.803 59.1525C306.708 59.1372 306.613 59.122 306.513 59.1727L306.356 59.1287L306.521 59.0717C306.705 59.1023 306.891 59.1175 307.078 59.1174C307.075 59.1237 307.069 59.1304 307.062 59.1373C307.056 59.1428 307.049 59.1484 307.042 59.154C307.007 59.1818 306.973 59.2087 307.072 59.2199C307.292 59.1508 307.523 59.1221 307.753 59.1348C307.774 59.103 307.839 59.0792 307.897 59.0574C307.972 59.0299 308.038 59.0056 307.996 58.9724C308.038 58.9737 308.079 58.9633 308.116 58.9423C308.122 58.9746 308.168 58.9863 308.207 58.9964C308.256 59.0091 308.295 59.0192 308.235 59.0643C308.403 59.0381 308.451 58.9579 308.435 58.9207C308.523 58.9262 308.673 58.8992 308.799 58.8765C308.975 58.8449 309.105 58.8215 308.956 58.9063C308.99 58.9117 309.056 58.8989 309.119 58.8866C309.214 58.8682 309.304 58.8509 309.276 58.8966C309.235 58.9135 309.192 58.9191 309.15 58.9248C309.099 58.9315 309.049 58.9382 308.998 58.9634C309.092 59.0031 309.182 58.9741 309.271 58.945C309.326 58.9272 309.381 58.9093 309.437 58.9076L309.359 58.9532C309.382 58.9603 309.373 58.9755 309.321 59.0016C309.254 58.9922 309.186 58.9945 309.12 59.0084C309.08 59.0314 309 59.0602 309.041 59.0712C309.24 59.0789 309.435 59.0161 309.596 58.8929C309.88 58.8569 310.158 58.7899 310.429 58.6931C310.353 58.6693 310.35 58.6271 310.417 58.5668C310.455 58.6234 310.484 58.6084 310.54 58.5799C310.59 58.5545 310.66 58.5184 310.776 58.5125C310.77 58.5477 310.696 58.5829 310.63 58.6141C310.554 58.65 310.49 58.6807 310.552 58.7002C310.879 58.6598 311.198 58.5594 311.493 58.4034C311.638 58.4024 311.841 58.337 312.037 58.2739C312.222 58.2143 312.401 58.1568 312.519 58.1569C312.506 58.1693 312.489 58.1803 312.471 58.1899C312.459 58.1967 312.447 58.2027 312.436 58.2081C312.405 58.2232 312.385 58.2329 312.41 58.2374C312.502 58.2145 312.502 58.2412 312.501 58.2636C312.501 58.288 312.501 58.3074 312.62 58.2526C312.644 58.2242 312.629 58.2103 312.615 58.1964C312.603 58.1847 312.59 58.1731 312.601 58.153C312.81 58.0401 313.028 57.9451 313.252 57.8689C313.234 57.8697 313.216 57.871 313.197 57.8723C313.117 57.8779 313.037 57.8835 313.052 57.8529C312.489 57.9719 311.915 58.0756 311.33 58.1641C311.155 58.2275 310.976 58.2775 310.795 58.3137C310.716 58.3127 310.674 58.3046 310.64 58.2981C310.586 58.2877 310.555 58.2816 310.434 58.3166C310.422 58.3072 310.421 58.2974 310.428 58.2874C310.396 58.2914 310.363 58.2953 310.331 58.2992C310.314 58.3139 310.287 58.3311 310.237 58.354C310.163 58.3567 310.169 58.3385 310.195 58.3151C310.145 58.3209 310.095 58.3265 310.045 58.332C310.01 58.358 309.964 58.379 309.882 58.3804C309.908 58.3663 309.927 58.3541 309.937 58.3438C309.874 58.3507 309.81 58.3573 309.746 58.3638C309.736 58.3728 309.733 58.3803 309.729 58.3893C309.725 58.4018 309.719 58.417 309.689 58.4426C309.648 58.4241 309.61 58.4419 309.571 58.4597C309.533 58.4775 309.495 58.4952 309.455 58.4765C309.431 58.458 309.477 58.4423 309.52 58.4276C309.563 58.4126 309.604 58.3986 309.567 58.3834C309.564 58.383 309.562 58.3827 309.559 58.3824C309.534 58.3848 309.509 58.3872 309.483 58.3896ZM313.171 57.8275C313.155 57.8349 313.139 57.8427 313.123 57.8509C313.192 57.8387 313.239 57.8242 313.27 57.8149C313.297 57.8068 313.311 57.8026 313.315 57.8071C313.32 57.8124 313.311 57.8293 313.294 57.8656C313.398 57.8157 313.504 57.7723 313.611 57.7291C313.465 57.763 313.319 57.7958 313.171 57.8275ZM313.96 57.6458C313.98 57.6678 314.054 57.6591 314.153 57.6115C314.109 57.6664 314.053 57.6788 313.997 57.6911C313.946 57.7025 313.895 57.7139 313.853 57.759C313.951 57.76 314.05 57.7398 314.141 57.6997C314.225 57.6626 314.302 57.6092 314.368 57.5423C314.233 57.5777 314.097 57.6122 313.96 57.6458ZM315.04 57.3573C315.132 57.3306 315.223 57.3035 315.315 57.276C315.331 57.2801 315.343 57.2866 315.336 57.3024L315.321 57.3243C315.329 57.3155 315.334 57.3083 315.336 57.3024C315.347 57.2878 315.358 57.2735 315.369 57.2594C315.455 57.2334 315.541 57.2069 315.626 57.1801C315.23 57.3968 314.822 57.5877 314.404 57.7518C314.547 57.6601 314.7 57.5847 314.859 57.5266C314.883 57.4751 314.805 57.5159 314.724 57.5589C314.669 57.5875 314.613 57.6172 314.583 57.6212L314.789 57.4362C314.827 57.4286 314.839 57.4339 314.85 57.4393C314.857 57.442 314.863 57.4447 314.872 57.4457C314.882 57.4468 314.897 57.4459 314.92 57.4407C314.967 57.4104 315.006 57.3829 315.04 57.3573ZM297.742 52.7563C296.206 51.3127 294.975 49.4587 294.047 47.1944C292.913 44.4291 292.347 41.1424 292.347 37.3344C292.347 33.4811 292.913 30.1718 294.047 27.4064C295.18 24.5958 296.767 22.4424 298.807 20.9464C300.847 19.4051 303.227 18.6344 305.947 18.6344C308.712 18.6344 311.115 19.4051 313.155 20.9464C315.24 22.4424 316.827 24.5958 317.915 27.4064C319.048 30.1718 319.615 33.4811 319.615 37.3344C319.615 41.1424 319.048 44.4291 317.915 47.1944C317.421 48.4499 316.824 49.5792 316.124 50.5824C316.112 50.588 316.096 50.5971 316.077 50.6109C316.03 50.67 316.039 50.677 316.064 50.6689C315.994 50.7664 315.924 50.8627 315.853 50.9578C315.742 51.0479 315.621 51.125 315.493 51.1875C315.468 51.2782 315.408 51.3269 315.333 51.3875C315.294 51.4188 315.251 51.4533 315.207 51.4985C315.149 51.5267 315.138 51.5188 315.126 51.5108C315.116 51.5039 315.107 51.497 315.066 51.5133C314.921 51.6752 314.757 51.8173 314.578 51.9364C314.533 51.9274 314.624 51.8561 314.693 51.8032C314.716 51.7851 314.736 51.7692 314.748 51.7586C314.579 51.8489 314.426 51.9688 314.295 52.1131C314.234 52.1334 314.234 52.1165 314.234 52.0996C314.234 52.0828 314.234 52.066 314.174 52.0859C314.201 52.0477 314.243 52.0175 314.279 51.9916C314.324 51.9594 314.36 51.9338 314.347 51.9074C314.037 52.0903 313.746 52.3084 313.481 52.5578C313.392 52.5908 313.415 52.5539 313.437 52.5169C313.459 52.4827 313.48 52.4484 313.412 52.4695C313.128 52.6825 312.808 52.8364 312.47 52.923C312.376 53.0233 312.25 53.0842 312.117 53.0946C312.095 53.1179 312.103 53.1261 312.111 53.1342C312.122 53.1445 312.133 53.1549 312.08 53.1963C311.972 53.214 311.818 53.2945 311.672 53.371L311.672 53.3712C311.478 53.4721 311.299 53.566 311.258 53.4991C310.852 53.619 310.454 53.7695 310.068 53.9497C309.869 53.9998 309.666 54.0256 309.462 54.0267C309.4 54.0776 309.335 54.0969 309.27 54.1164C309.2 54.1371 309.13 54.1579 309.064 54.2169C309.031 54.218 309.013 54.215 309.002 54.2102C308.993 54.206 308.99 54.2005 308.986 54.195C308.98 54.1846 308.973 54.1743 308.931 54.173C308.206 54.3744 307.462 54.4885 306.714 54.5133C306.709 54.5228 306.699 54.5327 306.691 54.5417L306.691 54.5419C306.68 54.5534 306.67 54.5637 306.672 54.57C306.075 54.5543 305.478 54.5743 304.883 54.63C304.797 54.647 304.716 54.6198 304.636 54.5927C304.572 54.5712 304.508 54.5497 304.442 54.5502C304.428 54.5569 304.435 54.5653 304.442 54.5736C304.45 54.5832 304.459 54.5929 304.435 54.6001C304.204 54.5407 303.966 54.5232 303.73 54.5481L303.553 54.4603C303.227 54.479 302.899 54.4466 302.581 54.3642L301.637 54.149C301.627 54.1528 301.624 54.1578 301.621 54.1628C301.617 54.1694 301.614 54.176 301.594 54.1798C301.364 54.1149 301.136 54.0442 300.907 53.9736L300.907 53.9735L300.907 53.9734C300.597 53.8778 300.287 53.7821 299.975 53.7003C299.557 53.5553 299.148 53.382 298.742 53.2097L298.737 53.2075C298.626 53.1607 298.516 53.114 298.406 53.068C298.293 53.0714 298.029 52.924 297.742 52.7563ZM306.672 54.57L306.744 54.5721C306.718 54.576 306.701 54.5773 306.689 54.5768C306.678 54.5763 306.673 54.5738 306.672 54.57ZM305.872 55.1464C305.916 55.121 305.982 55.1133 306.031 55.1075C306.099 55.0994 306.137 55.095 306.043 55.0524C306.229 55.0185 306.418 55.017 306.604 55.0479C306.566 55.07 306.541 55.0778 306.518 55.0848C306.483 55.0951 306.455 55.1038 306.401 55.1543C306.35 55.129 306.294 55.1178 306.237 55.1216C306.213 55.1315 306.223 55.1402 306.232 55.149C306.24 55.1564 306.248 55.1639 306.235 55.172C306.19 55.165 306.144 55.1707 306.098 55.1763C306.021 55.1857 305.945 55.1952 305.872 55.1464ZM303.276 14.1246C303.129 14.1455 302.98 14.1558 302.831 14.1556C302.975 14.106 303.128 14.0953 303.276 14.1246ZM291.663 19.0301C291.631 19.0327 291.574 19.0663 291.521 19.0977C291.448 19.1407 291.382 19.1796 291.395 19.1289C291.446 19.1196 291.514 19.0733 291.57 19.035C291.644 18.9845 291.698 18.948 291.663 19.0301ZM313.853 52.3415C313.846 52.2806 314.041 52.1612 314.16 52.1374C314.087 52.2454 313.977 52.3187 313.853 52.3415ZM310.845 53.7288C310.791 53.7078 310.986 53.5822 311.052 53.6136C311.031 53.6268 311.012 53.6451 310.993 53.6635C310.948 53.7058 310.903 53.7483 310.845 53.7288ZM312.531 53.9036C312.577 53.786 312.943 53.7304 312.813 53.7796C312.776 53.7925 312.741 53.8141 312.706 53.8357C312.651 53.87 312.596 53.9043 312.531 53.9036ZM310.937 54.4937C311.025 54.4414 311.119 54.4152 311.213 54.3891C311.293 54.3668 311.373 54.3445 311.449 54.3058C311.41 54.4055 311.114 54.4606 310.947 54.4918L310.937 54.4937ZM309.504 54.5971C309.576 54.5364 309.666 54.5048 309.759 54.5077C309.684 54.5631 309.595 54.5942 309.504 54.5971ZM308.109 54.8587C308.178 54.8171 308.259 54.8015 308.337 54.8145C308.344 54.8623 308.202 54.9015 308.109 54.8587ZM306.994 55.0938C306.983 55.0835 307.008 55.0679 307.034 55.0523C307.071 55.0291 307.109 55.0058 307.028 54.9999C306.918 55.0399 306.91 55.0649 306.901 55.0898C306.896 55.1049 306.891 55.12 306.863 55.1385C306.835 55.1288 306.807 55.1298 306.779 55.1307C306.763 55.1313 306.747 55.1318 306.731 55.1305C306.721 55.1296 306.71 55.1278 306.7 55.1246C306.753 55.0658 306.815 55.0266 306.875 54.988C306.929 54.9537 306.982 54.9198 307.029 54.873C307.199 54.9208 307.376 54.9381 307.551 54.9244C307.376 55.0134 307.188 55.0706 306.994 55.0938ZM304.754 55.1283C304.841 55.1104 304.931 55.11 305.018 55.1274C304.978 55.1531 304.933 55.1668 304.886 55.167C304.84 55.1671 304.794 55.1538 304.754 55.1283ZM303.091 54.9458C303.233 54.9277 303.378 54.9416 303.514 54.9868C303.372 55.0096 303.108 55.0159 303.091 54.9458ZM313.662 58.0183C313.755 57.9494 313.854 57.8915 313.959 57.8456C313.93 57.8811 313.937 57.8992 313.944 57.9173C313.952 57.9381 313.96 57.9588 313.914 58.0059C313.824 58.0303 313.8 58.0228 313.775 58.0154C313.753 58.0087 313.731 58.002 313.662 58.0183ZM314.254 57.6727C314.301 57.6913 314.35 57.6726 314.417 57.6473C314.461 57.6305 314.512 57.6108 314.576 57.5971C314.479 57.6506 314.394 57.7179 314.317 57.779C314.194 57.8777 314.09 57.9605 313.983 57.944C314.132 57.8559 314.161 57.8084 314.196 57.7531C314.207 57.7362 314.218 57.7186 314.233 57.6989C314.239 57.6906 314.246 57.6819 314.254 57.6727ZM313.599 57.9247C313.642 57.9306 313.721 57.8888 313.789 57.8528C313.864 57.8129 313.927 57.78 313.912 57.8271C313.782 57.9094 313.638 57.9653 313.489 57.992C313.556 57.9363 313.529 57.9263 313.437 57.948C313.549 57.8586 313.673 57.7885 313.806 57.7401C313.788 57.7588 313.747 57.7859 313.704 57.8136C313.628 57.8634 313.548 57.9153 313.599 57.9247ZM300.438 54.4426C300.41 54.4268 300.379 54.4182 300.354 54.4109C300.312 54.3991 300.283 54.3908 300.294 54.3613C300.397 54.3369 300.538 54.4316 300.438 54.4426ZM313.27 58.1421C313.384 58.0926 313.502 58.0531 313.622 58.0239C313.548 58.141 313.242 58.1822 313.27 58.1421ZM311.729 58.6228C311.777 58.6147 311.783 58.6046 311.793 58.589C311.798 58.5807 311.804 58.5709 311.817 58.559C311.823 58.5537 311.831 58.5479 311.84 58.5417C311.901 58.5238 311.942 58.5214 311.98 58.5192C312.048 58.5152 312.104 58.5119 312.235 58.4225C312.239 58.4012 312.195 58.4087 312.152 58.4159C312.096 58.4254 312.043 58.4345 312.103 58.3782C312.203 58.3251 312.318 58.3108 312.427 58.3377C312.224 58.5002 311.982 58.599 311.729 58.6228ZM309.22 58.5102C309.142 58.5299 309.062 58.5294 308.985 58.5089C309.09 58.4403 309.33 58.4387 309.22 58.5102ZM311.137 58.8069C311.192 58.775 311.202 58.7552 311.211 58.7354C311.291 58.718 311.373 58.7095 311.454 58.7101C311.361 58.778 311.25 58.812 311.137 58.8069ZM308.433 58.6162C308.478 58.608 308.522 58.5891 308.566 58.5702C308.639 58.5387 308.713 58.5071 308.787 58.5256C308.676 58.5812 308.556 58.612 308.433 58.6162ZM310.561 58.8013C310.644 58.724 310.735 58.7318 310.826 58.7396C310.845 58.7412 310.864 58.7428 310.883 58.7437C310.814 58.7915 310.739 58.793 310.665 58.7944C310.63 58.7951 310.595 58.7958 310.561 58.8013ZM307.882 58.646C307.982 58.6026 308.089 58.5786 308.197 58.575C308.198 58.6334 307.996 58.6747 307.882 58.646ZM307.407 58.8166C307.45 58.7989 307.489 58.7842 307.522 58.7713C307.647 58.7235 307.705 58.7013 307.726 58.6436C307.82 58.6291 307.832 58.6463 307.846 58.6668C307.848 58.6705 307.851 58.6743 307.854 58.6781C307.86 58.685 307.868 58.6917 307.881 58.6972C307.779 58.7417 307.673 58.7741 307.564 58.7937C307.582 58.7956 307.604 58.7944 307.626 58.7934C307.671 58.7911 307.71 58.7891 307.682 58.8147C307.515 58.8599 307.34 58.8634 307.171 58.8249C307.186 58.8156 307.193 58.8073 307.2 58.799C307.213 58.7833 307.227 58.7675 307.292 58.7443C307.39 58.7486 307.388 58.7672 307.387 58.7858C307.386 58.7971 307.385 58.8085 307.407 58.8166ZM306.822 58.7451C307.081 58.6832 307.344 58.6422 307.609 58.6224C307.571 58.7409 307.091 58.7785 306.822 58.7451ZM310.718 59.1618C310.919 59.0999 311.122 59.0511 311.328 59.0154C311.135 59.1037 310.928 59.1533 310.718 59.1618ZM309.485 59.0892L309.488 59.0819C309.5 59.0435 309.519 58.9831 309.681 58.9751C309.659 59.0086 309.63 59.0363 309.596 59.0561C309.562 59.0759 309.524 59.0872 309.485 59.0892ZM309.782 59.3116C309.658 59.3263 309.717 59.295 309.775 59.2637C309.823 59.2377 309.872 59.2118 309.817 59.2121C309.769 59.2126 309.722 59.2337 309.674 59.2549C309.615 59.2814 309.556 59.308 309.495 59.2937C309.7 59.1994 309.916 59.1357 310.137 59.1045C310.115 59.1357 310.057 59.1594 309.993 59.1859C309.916 59.2178 309.828 59.2537 309.782 59.3116ZM306.466 58.772L306.667 58.701C306.674 58.7034 306.681 58.7058 306.688 58.7081L306.702 58.7123C306.738 58.7234 306.775 58.7343 306.744 58.7482C306.703 58.733 306.66 58.75 306.617 58.7671C306.565 58.7876 306.513 58.8082 306.466 58.772ZM308.045 59.1307C308.055 59.1249 308.065 59.119 308.074 59.1132C308.128 59.1095 308.181 59.1101 308.235 59.115L308.033 59.2083C307.932 59.1977 307.989 59.1641 308.045 59.1307ZM308.721 59.3981C308.629 59.3654 308.633 59.3185 308.761 59.2529C308.953 59.2695 308.874 59.3692 308.721 59.3981ZM306.654 58.9028C306.532 58.966 306.335 58.9037 306.34 58.8652C306.464 58.8237 306.488 58.8366 306.531 58.8597C306.557 58.8736 306.589 58.8911 306.654 58.9028ZM308.027 59.5138C307.96 59.5001 307.891 59.4973 307.823 59.5054C307.86 59.4943 307.891 59.4868 307.919 59.4814C307.948 59.4757 307.972 59.4722 307.994 59.4691C308.066 59.4589 308.112 59.4523 308.191 59.3881C308.227 59.4274 308.286 59.4182 308.359 59.4066C308.417 59.3974 308.485 59.3867 308.558 59.3973C308.471 59.4337 308.384 59.4437 308.297 59.4537C308.207 59.464 308.117 59.4743 308.027 59.5138ZM306.89 59.5339C307.025 59.5779 307.222 59.5407 307.395 59.5079C307.55 59.4786 307.686 59.4529 307.743 59.4916C307.691 59.4989 307.618 59.5126 307.538 59.5278C307.251 59.5819 306.86 59.6558 306.89 59.5339ZM307.136 59.5151C307.171 59.4988 307.165 59.4886 307.158 59.4784C307.15 59.4654 307.141 59.4524 307.22 59.427C307.287 59.4206 307.355 59.4237 307.421 59.4363C307.374 59.4479 307.344 59.4587 307.323 59.4683C307.309 59.4745 307.298 59.4802 307.289 59.4854C307.257 59.5029 307.237 59.514 307.136 59.5151ZM305.699 59.6196C305.654 59.5973 305.606 59.6017 305.558 59.6061C305.51 59.6104 305.462 59.6148 305.417 59.5925C305.524 59.5598 305.636 59.5472 305.748 59.555C305.721 59.5671 305.72 59.5782 305.72 59.5893C305.719 59.5992 305.719 59.6091 305.699 59.6196ZM302.309 58.5997C302.326 58.6012 302.343 58.6028 302.362 58.6045C302.534 58.6196 302.776 58.641 302.672 58.7049C302.618 58.6677 302.503 58.6526 302.407 58.6399C302.316 58.6279 302.241 58.6181 302.253 58.5937C302.269 58.5957 302.288 58.5976 302.309 58.5997ZM302.354 58.675C302.447 58.6672 302.541 58.6879 302.624 58.7348C302.575 58.7365 302.546 58.7541 302.52 58.7698C302.488 58.7894 302.461 58.8061 302.405 58.7857C302.431 58.7696 302.408 58.745 302.385 58.7205C302.37 58.7045 302.355 58.6886 302.354 58.675ZM302.206 58.7635C302.015 58.6944 302.214 58.6381 302.347 58.6992C302.345 58.7044 302.345 58.7099 302.344 58.7154C302.343 58.7392 302.341 58.7632 302.206 58.7635ZM303.708 59.5127C303.653 59.4714 303.587 59.4742 303.522 59.4771C303.462 59.4798 303.402 59.4824 303.35 59.45C303.555 59.4313 303.762 59.4329 303.967 59.4548L303.708 59.5127ZM302.179 58.8607L302.35 58.8398L302.459 58.8971C302.364 58.9143 302.267 58.9016 302.179 58.8607ZM301.545 58.4938C301.42 58.5084 301.385 58.4834 301.339 58.4505C301.304 58.4256 301.263 58.3962 301.172 58.3761C301.309 58.3793 301.548 58.445 301.545 58.4938ZM301.059 58.343L300.921 58.2671C301.016 58.2385 301.296 58.2716 301.23 58.3227C301.203 58.3087 301.172 58.3032 301.142 58.3069C301.112 58.3105 301.083 58.323 301.059 58.343ZM301.492 58.663C301.318 58.5996 301.14 58.5506 300.959 58.5165C301.006 58.5047 301.015 58.4875 301.023 58.4724C301.036 58.4487 301.046 58.4298 301.191 58.4433C301.305 58.4858 301.28 58.5035 301.256 58.5212C301.242 58.5307 301.229 58.5402 301.237 58.5536C301.358 58.5741 301.479 58.5829 301.601 58.5801C301.731 58.6375 301.622 58.6523 301.492 58.663ZM302.781 59.4094C302.916 59.3615 303.06 59.3544 303.198 59.3888C303.062 59.425 302.92 59.432 302.781 59.4094ZM298.699 57.8881C298.69 57.9191 298.512 57.8927 298.41 57.848C298.454 57.8436 298.409 57.8233 298.35 57.7967C298.295 57.7718 298.227 57.7415 298.21 57.7137C298.378 57.7528 298.543 57.8113 298.699 57.8881ZM302.787 59.3844C302.583 59.3804 302.381 59.3461 302.186 59.2823C302.391 59.2765 302.594 59.3111 302.787 59.3844ZM301.277 58.6884C301.304 58.6986 301.334 58.7013 301.364 58.704C301.415 58.7086 301.466 58.7131 301.505 58.7546C301.427 58.8072 301.195 58.707 301.277 58.6884ZM300.544 58.5123C300.648 58.5071 300.949 58.5342 300.892 58.5936C300.84 58.5734 300.785 58.5656 300.729 58.5579C300.665 58.549 300.602 58.5401 300.544 58.5123ZM301.821 59.2312C301.831 59.1951 302.043 59.2033 302.15 59.2632C302.039 59.2805 301.927 59.2695 301.821 59.2312ZM299.511 58.2022C299.524 58.2047 299.542 58.2076 299.563 58.211C299.687 58.2314 299.903 58.2671 299.851 58.3137C299.735 58.2874 299.621 58.25 299.511 58.2022ZM300.101 58.7763C300.198 58.7619 300.297 58.7854 300.38 58.8424C300.282 58.8568 300.183 58.8333 300.101 58.7763ZM298.842 58.8298C298.722 58.7595 298.596 58.7629 298.49 58.7658C298.431 58.7674 298.377 58.7688 298.334 58.7574C298.254 58.6869 298.299 58.6913 298.374 58.6985C298.429 58.7037 298.498 58.7104 298.546 58.691C298.589 58.7427 298.657 58.7403 298.726 58.7379C298.749 58.7371 298.772 58.7362 298.795 58.7376C298.885 58.7903 298.913 58.8241 298.842 58.8298ZM297.537 58.1414C297.549 58.1105 297.743 58.1206 297.832 58.1933C297.797 58.185 297.757 58.1838 297.718 58.1826C297.652 58.1806 297.585 58.1785 297.537 58.1414ZM297.65 58.4563C297.706 58.4534 297.752 58.468 297.799 58.4826C297.845 58.4974 297.892 58.5121 297.948 58.5091C297.928 58.4938 297.908 58.4808 297.889 58.4696C297.881 58.4646 297.873 58.46 297.866 58.4558C297.817 58.4273 297.794 58.414 297.861 58.4069C297.894 58.4257 297.948 58.4483 298.006 58.4724C298.136 58.5273 298.285 58.5898 298.256 58.6325C298.045 58.6167 297.839 58.5568 297.65 58.4563ZM296.161 57.1954C296.238 57.2248 296.31 57.2608 296.383 57.2968C296.457 57.3332 296.53 57.3695 296.607 57.399C296.577 57.4278 296.14 57.2527 296.161 57.1954ZM297.312 58.2122C297.346 58.2207 297.382 58.2159 297.413 58.1988C297.428 58.2102 297.451 58.2231 297.478 58.2369C297.504 58.25 297.533 58.2639 297.562 58.2778C297.663 58.3255 297.765 58.3736 297.728 58.3936C297.671 58.3526 297.602 58.3331 297.534 58.3136C297.454 58.291 297.374 58.2683 297.312 58.2122ZM296.559 57.878C296.793 57.9592 297.023 58.053 297.248 58.1589L297.115 58.1454C297.027 58.0919 296.932 58.0519 296.837 58.012C296.741 57.9718 296.646 57.9317 296.559 57.878ZM296.246 57.759C296.283 57.7663 296.266 57.745 296.248 57.7236C296.232 57.7038 296.215 57.684 296.242 57.6869C296.26 57.7025 296.28 57.7155 296.301 57.727C296.326 57.7413 296.353 57.7533 296.38 57.7652C296.433 57.7884 296.485 57.8115 296.527 57.8514C296.426 57.8553 296.327 57.8227 296.246 57.759ZM295.569 57.3604C295.706 57.3849 295.837 57.444 295.949 57.5325C295.815 57.4952 295.687 57.4372 295.569 57.3604ZM295.842 57.701C295.639 57.6136 295.445 57.5019 295.265 57.3684C295.368 57.4158 295.413 57.4118 295.456 57.4081C295.496 57.4046 295.533 57.4012 295.615 57.4408C295.716 57.5101 295.687 57.532 295.666 57.5483C295.648 57.562 295.635 57.5718 295.708 57.6023C295.734 57.6039 295.74 57.5944 295.745 57.5848C295.754 57.5692 295.763 57.5536 295.865 57.5869C295.935 57.6576 295.9 57.6735 295.865 57.6894C295.857 57.6931 295.849 57.6967 295.842 57.701ZM295.057 57.0889C295.083 57.0744 295.135 57.0739 295.245 57.1045C295.279 57.1588 295.332 57.1857 295.384 57.2126C295.43 57.236 295.476 57.2595 295.51 57.3011L295.423 57.283C295.376 57.2271 295.321 57.2065 295.251 57.18C295.197 57.1595 295.133 57.1355 295.057 57.0889ZM293.191 17.7401C293.285 17.6853 293.384 17.6425 293.488 17.6125C293.373 17.7401 293.243 17.8511 293.101 17.9427L292.983 17.9733C293.002 17.958 293.018 17.9446 293.033 17.9327C293.107 17.8731 293.133 17.8522 293.151 17.8257C293.16 17.8113 293.167 17.7954 293.178 17.7708C293.181 17.7618 293.186 17.7517 293.191 17.7401ZM294.359 17.0843C294.28 17.1009 294.203 17.1571 294.143 17.201C294.072 17.2529 294.025 17.2876 294.025 17.2186C294.062 17.2093 294.12 17.175 294.179 17.1411C294.272 17.0865 294.365 17.0328 294.359 17.0843ZM297.944 15.3046C298.05 15.2393 298.165 15.1925 298.285 15.1658C298.29 15.1876 298.249 15.2109 298.194 15.2415C298.142 15.2703 298.079 15.3055 298.033 15.3519C297.957 15.365 297.963 15.3479 297.969 15.3306C297.974 15.3171 297.979 15.3035 297.944 15.3046ZM298.755 15.0721C298.655 15.0871 298.623 15.1101 298.591 15.1323C298.561 15.1533 298.532 15.1736 298.448 15.1858C298.404 15.1598 298.794 14.9745 298.755 15.0721ZM310.496 14.7374C310.429 14.6964 310.349 14.6859 310.269 14.6755C310.196 14.666 310.123 14.6565 310.061 14.6243C310.206 14.5966 310.532 14.6807 310.496 14.7374ZM311.133 14.8971C310.935 14.853 310.74 14.7918 310.551 14.7139C310.757 14.7175 310.958 14.7808 311.133 14.8971ZM311.43 14.939L311.255 14.923C311.223 14.8974 311.189 14.8735 311.155 14.8515C311.241 14.8334 311.305 14.8696 311.367 14.9057C311.388 14.9174 311.408 14.9292 311.43 14.939ZM22.776 10.0664H15.5H14.616H5.50396H5.29997H0.0639648L0.131965 10.7464H0.539965H0.947965C2.12663 10.7464 3.14663 11.1771 4.00797 12.0384C4.8693 12.8544 5.29997 13.8518 5.29997 15.0304V52.7024C5.25463 53.8811 4.8013 54.9011 3.93997 55.7624C3.12397 56.5784 2.12663 56.9864 0.947965 56.9864H0.471965H0.0639648V57.6664H5.29997H5.50396H15.296H15.5H20.736V56.9864H20.26H19.852C18.6733 56.9864 17.6533 56.5784 16.792 55.7624C15.976 54.9011 15.5453 53.8811 15.5 52.7024V12.9224H19.988C22.7533 12.9224 24.884 13.8064 26.38 15.5744C27.9213 17.2971 28.7146 19.6091 28.76 22.5104C28.8053 23.1451 28.7826 23.8478 28.692 24.6184C28.6466 25.3438 28.5333 26.0011 28.352 26.5904C27.8986 28.3131 27.2413 29.6958 26.38 30.7384C25.5186 31.7811 24.5893 32.5518 23.592 33.0504C22.64 33.5491 21.7106 33.8891 20.804 34.0704C19.9426 34.2518 19.2173 34.3424 18.628 34.3424H17.812V35.0224C19.7613 36.2918 21.756 37.0851 23.796 37.4024C25.8813 37.6744 27.876 37.5384 29.78 36.9944C31.7293 36.4051 33.452 35.4758 34.948 34.2064C36.444 32.9371 37.6226 31.3504 38.484 29.4464C39.3453 27.5424 39.7306 25.4344 39.64 23.1224C39.5493 20.6291 38.892 18.4078 37.668 16.4584C36.4893 14.4638 34.676 12.8998 32.228 11.7664C29.8253 10.6331 26.6746 10.0664 22.776 10.0664ZM75.7641 53.1784L57.61 15.0304H57.066C57.0207 15.4838 56.8394 16.1184 56.522 16.9344C56.2047 17.7051 55.8647 18.5438 55.502 19.4504C55.1394 20.3118 54.7994 21.1051 54.482 21.8304C54.1647 22.5104 53.9607 22.9864 53.87 23.2584L39.951 53.1784H39.93C39.2954 54.5838 38.4794 55.5811 37.482 56.1704C36.4847 56.7144 35.5327 56.9864 34.626 56.9864H34.354H34.082V57.6664H47.682V56.9864H47.138C46.3674 56.9864 45.6647 56.6691 45.03 56.0344C44.4296 55.3911 44.3363 54.5043 44.7503 53.374L47.4988 46.9904H61.8668L64.7647 53.8302C65.0001 54.7456 64.8592 55.4803 64.342 56.0344C63.7074 56.6691 63.0047 56.9864 62.234 56.9864H61.69V57.6664H81.1077H81.682H85.9357H86.1397H95.1157H95.2517H100.148V56.9864H99.5358H98.9917C97.9944 56.9864 97.1331 56.6691 96.4077 56.0344C95.6824 55.3544 95.2971 54.5158 95.2517 53.5184V31.0668L126.464 58.5504H127.076L126.872 57.5984C126.781 56.9184 126.668 55.9891 126.532 54.8104C126.441 53.5864 126.396 52.1811 126.396 50.5944V21.0144C126.396 20.0171 126.758 19.2011 127.484 18.5664C128.254 17.8864 129.138 17.5464 130.136 17.5464H130.68H131.292V16.8664H126.396H126.192H117.216H117.08H112.184V17.5464H112.728H113.34C114.382 17.5464 115.244 17.8864 115.924 18.5664C116.649 19.2011 117.034 20.0171 117.08 21.0144V43.3512L85.8677 15.9144H85.2557L85.5957 18.0904C85.8224 19.4958 85.9357 21.3544 85.9357 23.6664V53.5184C85.9357 54.5158 85.5731 55.3544 84.8477 56.0344C84.1224 56.6691 83.2384 56.9864 82.1957 56.9864H81.682H81.6517H81.41H81.138C80.2314 56.9864 79.2794 56.7144 78.282 56.1704C77.2847 55.5811 76.446 54.5838 75.766 53.1784H75.7641ZM54.7405 30.171L60.7431 44.3384H48.6406L54.7405 30.171ZM170.412 19.3144C166.921 17.6824 162.751 16.8664 157.9 16.8664H149.4H141.988H139.744H139.608H134.916V17.5464H135.324H135.732C136.775 17.5464 137.659 17.8864 138.384 18.5664C139.155 19.2464 139.563 20.1078 139.608 21.1504V53.3144C139.608 54.3118 139.223 55.1731 138.452 55.8984C137.727 56.6238 136.843 56.9864 135.8 56.9864H135.324H134.916V57.6664H139.608H139.812H142.804H149.4H157.9C162.751 57.6664 166.921 56.8504 170.412 55.2184C173.903 53.5864 176.577 51.2518 178.436 48.2144C180.295 45.1771 181.224 41.5278 181.224 37.2664C181.224 33.0051 180.295 29.3558 178.436 26.3184C176.577 23.2358 173.903 20.9011 170.412 19.3144ZM150.964 54.9464H149.4V19.5184H150.76H155.588H157.084C161.345 19.5184 164.7 21.1051 167.148 24.2784C169.596 27.4064 170.82 31.7358 170.82 37.2664C170.82 42.7971 169.596 47.1264 167.148 50.2544C164.7 53.3824 161.345 54.9464 157.084 54.9464H155.588H150.964ZM199.402 36.1104V19.5864H209.194C211.189 19.6318 212.708 20.2211 213.75 21.3544C214.838 22.4878 215.382 24.0518 215.382 26.0464V26.6584H216.062V19.5864V19.4504V17.4784V16.8664V15.8464C215.518 16.0278 214.521 16.2544 213.07 16.5264C211.62 16.7531 210.237 16.8664 208.922 16.8664H199.402H199.266H190.086H189.61H185.054V17.5464H185.462H185.938C186.936 17.5464 187.774 17.8864 188.454 18.5664C189.18 19.2464 189.565 20.1078 189.61 21.1504V53.3824C189.565 54.3798 189.18 55.2411 188.454 55.9664C187.774 56.6464 186.936 56.9864 185.938 56.9864H185.462H185.054V57.6664H189.61H190.086H199.266H199.402H205.318H216.878H217.082L219.666 45.1544H219.054C218.465 47.1491 217.626 48.8944 216.538 50.3904C215.45 51.8411 214.136 52.9744 212.594 53.7904C211.098 54.5611 209.376 54.9464 207.426 54.9464H199.402V38.8304H207.154C208.741 38.8758 209.988 39.3971 210.894 40.3944C211.846 41.3918 212.322 42.6384 212.322 44.1344V44.6784H213.002V38.8304V38.6944V36.2464V36.1104V30.2624H212.322V30.7384C212.322 32.2344 211.846 33.5038 210.894 34.5464C209.988 35.5438 208.741 36.0651 207.154 36.1104H199.402ZM269.065 15.9824L251.021 44.7479L231.801 15.9824H231.257L226.02 53.3144H225.953C225.772 54.4931 225.25 55.3998 224.389 56.0344C223.573 56.6691 222.598 56.9864 221.465 56.9864H221.057H220.581V57.6664H225.409H227.245H229.421H229.829H233.501V56.9864H232.549C231.642 56.9864 231.008 56.6691 230.645 56.0344C230.393 55.5621 230.24 55.1335 230.185 54.7487L232.568 35.1891L248.257 58.9584H248.869C248.914 57.9158 249.118 56.8731 249.481 55.8304C249.889 54.7878 250.297 53.9038 250.705 53.1784L251.317 52.0224L262.184 34.7732L264.801 54.2664H264.781C264.872 54.7651 264.758 55.3544 264.441 56.0344C264.124 56.6691 263.466 56.9864 262.469 56.9864H261.517V57.6664H265.257H265.597H273.757H275.661H280.421V56.9864H279.945H279.469C278.426 56.9864 277.474 56.6691 276.613 56.0344C275.797 55.3998 275.276 54.4931 275.049 53.3144H275.036L269.677 15.9824H269.065ZM369.158 43.3512L337.946 15.9144H337.334L337.674 18.0904C337.901 19.4958 338.014 21.3544 338.014 23.6664V53.5184C338.014 54.5158 337.651 55.3544 336.926 56.0344C336.201 56.6691 335.317 56.9864 334.274 56.9864H333.73H333.186V57.6664H338.014H338.218H347.194H347.33H352.226V56.9864H351.614H351.07C350.073 56.9864 349.211 56.6691 348.486 56.0344C347.761 55.3544 347.375 54.5158 347.33 53.5184V31.0668L378.542 58.5504H379.154L378.95 57.5984C378.859 56.9184 378.746 55.9891 378.61 54.8104C378.519 53.5864 378.474 52.1811 378.474 50.5944V21.0144C378.474 20.0171 378.837 19.2011 379.562 18.5664C380.333 17.8864 381.217 17.5464 382.214 17.5464H382.758H383.37V16.8664H378.474H378.27H369.294H369.158H364.262V17.5464H364.806H365.418C366.461 17.5464 367.322 17.8864 368.002 18.5664C368.727 19.2011 369.113 20.0171 369.158 21.0144V43.3512ZM401.478 57.6664H392.026H391.822H387.062V56.9864H387.47H387.946C388.989 56.9864 389.895 56.6464 390.666 55.9664C391.437 55.2411 391.822 54.3798 391.822 53.3824V21.1504C391.822 20.1078 391.437 19.2464 390.666 18.5664C389.895 17.8864 388.966 17.5464 387.878 17.5464H387.47H387.062V16.8664H391.822H392.026H401.478H401.614H406.374L406.306 17.5464H405.966H405.558C404.47 17.5464 403.541 17.8864 402.77 18.5664C402.045 19.2464 401.659 20.1078 401.614 21.1504V53.3824C401.659 54.3798 402.045 55.2411 402.77 55.9664C403.541 56.6464 404.47 56.9864 405.558 56.9864H405.898H406.374V57.6664H401.614H401.478ZM424.165 42.5024V20.4024C424.165 19.5411 424.46 18.8384 425.049 18.2944C425.638 17.7504 426.364 17.4784 427.225 17.4784H427.701H428.177V16.8664H424.165H424.029H414.509H414.373H410.293V17.4784H410.769H411.245C412.106 17.4784 412.832 17.7504 413.421 18.2944C414.01 18.8384 414.328 19.5411 414.373 20.4024V42.9104C414.373 47.7611 415.982 51.5918 419.201 54.4024C422.42 57.1678 427.316 58.5504 433.889 58.5504C439.329 58.5504 443.522 57.1451 446.469 54.3344C449.461 51.5238 450.957 47.6931 450.957 42.8424V20.4024C450.957 19.5411 451.252 18.8384 451.841 18.2944C452.476 17.7504 453.224 17.4784 454.085 17.4784H454.493H454.969V16.8664H450.957H450.821H446.605H446.469H442.457V17.4784H442.933H443.409C444.225 17.4784 444.928 17.7504 445.517 18.2944C446.106 18.8384 446.424 19.5411 446.469 20.4024V43.2504C446.424 47.1944 445.404 50.2771 443.409 52.4984C441.46 54.7198 438.694 55.8304 435.113 55.8304C431.668 55.8304 428.97 54.6518 427.021 52.2944C425.117 49.9371 424.165 46.6731 424.165 42.5024ZM503.546 15.9824L485.502 44.7479L466.282 15.9824H465.738L460.5 53.3144H460.434C460.252 54.4931 459.731 55.3998 458.87 56.0344C458.054 56.6691 457.079 56.9864 455.946 56.9864H455.538H455.062V57.6664H459.89H461.726H463.902H464.31H467.982V56.9864H467.03C466.123 56.9864 465.488 56.6691 465.126 56.0344C464.874 55.5621 464.72 55.1336 464.665 54.7488L467.049 35.1891L482.738 58.9584H483.35C483.395 57.9158 483.599 56.8731 483.962 55.8304C484.37 54.7878 484.778 53.9038 485.186 53.1784L485.798 52.0224L496.664 34.7732L499.281 54.2664H499.262C499.352 54.7651 499.239 55.3544 498.922 56.0344C498.604 56.6691 497.947 56.9864 496.95 56.9864H495.998V57.6664H499.738H500.078H508.238H510.142H514.902V56.9864H514.426H513.95C512.907 56.9864 511.955 56.6691 511.094 56.0344C510.278 55.3998 509.756 54.4931 509.53 53.3144H509.517L504.158 15.9824H503.546Z" fill="black"/>
</svg>
