<svg width="14" height="18" viewBox="0 0 14 18" fill="none" xmlns="http://www.w3.org/2000/svg">
<path d="M8.49109 13.4996H5.11601C4.96617 13.4996 4.83486 13.5562 4.72236 13.6685C4.60976 13.7811 4.55356 13.9122 4.55356 14.0623V17.4375C4.55356 17.5875 4.60996 17.7189 4.72236 17.8313C4.83486 17.9435 4.96602 18 5.11601 18H8.49109C8.64092 18 8.77258 17.9437 8.88464 17.8313C8.99743 17.7189 9.05373 17.5875 9.05373 17.4375V14.0623C9.05373 13.9122 8.99758 13.7811 8.88464 13.6685C8.77258 13.5559 8.64092 13.4996 8.49109 13.4996Z" fill="#F2F2F2"/>
<path d="M12.9212 3.39621C12.5367 2.68802 12.0399 2.09065 11.4304 1.60302C10.8213 1.11559 10.1364 0.72632 9.3772 0.435812C8.61783 0.145402 7.86319 0 7.11303 0C4.26316 0 2.08819 1.2469 0.588068 3.74075C0.51315 3.86256 0.487291 3.99378 0.510687 4.13445C0.534232 4.27493 0.606883 4.39216 0.728741 4.48589L3.03507 6.24386C3.15693 6.31873 3.27416 6.35622 3.38671 6.35622C3.55551 6.35622 3.70071 6.2811 3.82272 6.13112C4.49761 5.28747 4.99928 4.74842 5.32737 4.51391C5.73058 4.24212 6.23667 4.10628 6.84606 4.10628C7.41792 4.10628 7.9217 4.25631 8.35781 4.55608C8.79372 4.85614 9.01148 5.20305 9.01148 5.5968C9.01148 6.03724 8.89449 6.39365 8.66004 6.66554C8.42573 6.93733 8.03184 7.19971 7.4786 7.45294C6.74755 7.78103 6.07694 8.28969 5.46785 8.97877C4.85831 9.6679 4.55377 10.4015 4.55377 11.1796V11.8124C4.55377 11.9907 4.60273 12.1664 4.70133 12.3398C4.79985 12.5134 4.91929 12.6 5.06001 12.6H8.43504C8.58507 12.6 8.71619 12.5275 8.82879 12.3817C8.94104 12.2368 8.99754 12.0844 8.99754 11.9253C8.99754 11.691 9.12644 11.3766 9.38404 10.983C9.6419 10.5893 9.96289 10.2843 10.3476 10.0686C10.713 9.86241 10.9987 9.69623 11.2052 9.56949C11.4118 9.4431 11.6812 9.23874 12.0141 8.95769C12.3469 8.67634 12.6047 8.39741 12.7873 8.12094C12.9702 7.84442 13.1343 7.48574 13.2797 7.045C13.4253 6.60441 13.4978 6.13092 13.4978 5.62472C13.4977 4.84659 13.3053 4.10367 12.9212 3.39621Z" fill="#F2F2F2"/>
</svg>
