<?xml version="1.0" standalone="no"?>
<!DOCTYPE svg PUBLIC "-//W3C//DTD SVG 20010904//EN"
 "http://www.w3.org/TR/2001/REC-SVG-20010904/DTD/svg10.dtd">
<svg version="1.0" xmlns="http://www.w3.org/2000/svg"
 width="977.000000pt" height="1086.000000pt" viewBox="0 0 977.000000 1086.000000"
 preserveAspectRatio="xMidYMid meet">
<metadata>
Created by potrace 1.16, written by Peter Selinger 2001-2019
</metadata>
<g transform="translate(0.000000,1086.000000) scale(0.100000,-0.100000)"
fill="#000000" stroke="none">
<path d="M6510 10391 c-880 -386 -976 -431 -985 -455 -19 -53 3 -70 255 -195
l235 -116 58 -350 c40 -243 63 -355 74 -367 9 -10 30 -18 47 -18 27 0 56 24
216 185 102 102 188 185 192 185 4 0 124 -84 267 -186 227 -162 264 -185 293
-182 23 2 36 10 45 28 11 22 373 1814 373 1848 0 22 -39 52 -67 51 -16 0 -467
-193 -1003 -428z m745 -590 c-79 -398 -146 -726 -148 -728 -3 -2 -652 455
-687 484 -2 2 216 224 485 493 270 270 491 487 493 482 1 -4 -63 -333 -143
-731z m-265 645 c-36 -33 -916 -689 -925 -689 -22 0 -315 147 -308 154 7 7
1230 547 1243 548 2 1 -2 -5 -10 -13z m-467 -588 c-301 -303 -270 -259 -304
-438 -6 -36 -15 -68 -18 -73 -8 -8 -55 275 -49 293 3 10 624 486 638 489 2 0
-118 -122 -267 -271z m-92 -470 l59 -42 -92 -93 c-50 -51 -93 -91 -94 -90 -6
6 52 267 59 267 4 0 35 -19 68 -42z"/>
<path d="M9447 9824 c-14 -14 -29 -40 -32 -57 -17 -77 -139 -489 -200 -672
-700 -2098 -1978 -3816 -3801 -5110 -1391 -988 -3206 -1733 -4921 -2020 -18
-3 -33 -3 -33 0 0 3 130 170 288 373 159 202 292 379 296 394 8 34 -15 92 -42
107 -32 17 -97 13 -120 -6 -11 -10 -196 -242 -411 -516 -376 -479 -391 -499
-391 -541 0 -33 6 -48 27 -68 16 -14 280 -163 589 -332 615 -336 613 -335 668
-280 35 36 37 104 4 137 -13 12 -224 132 -470 267 -246 134 -445 247 -443 251
3 3 28 9 57 13 104 13 387 68 603 116 1302 292 2591 806 3720 1483 1105 662
2084 1513 2862 2489 659 826 1194 1773 1574 2788 145 390 340 1021 343 1113 1
42 -3 52 -27 73 -40 34 -105 33 -140 -2z"/>
<path d="M8560 4972 c-881 -386 -975 -430 -984 -454 -20 -56 -3 -68 248 -191
192 -94 236 -120 241 -139 3 -12 29 -171 59 -352 59 -352 63 -366 119 -366 26
0 57 26 217 185 102 102 189 185 192 185 4 0 124 -83 266 -185 264 -189 292
-203 326 -169 20 20 -2 -82 206 958 198 993 193 948 120 953 -27 2 -249 -91
-1010 -425z m744 -586 c-112 -560 -150 -734 -159 -728 -45 25 -674 478 -672
484 4 13 969 989 974 984 2 -2 -62 -335 -143 -740z m-281 631 c-15 -13 -226
-172 -468 -354 l-440 -329 -158 74 c-86 42 -157 78 -157 81 0 6 1226 548 1243
550 5 1 -4 -10 -20 -22z m-445 -574 l-278 -278 -25 -124 c-14 -68 -25 -127
-26 -130 -1 -3 -14 66 -29 154 -20 116 -25 162 -16 167 6 4 153 115 326 247
173 132 317 240 320 240 3 1 -120 -124 -272 -276z m-95 -477 l57 -40 -92 -93
c-50 -51 -93 -91 -95 -90 -1 2 9 65 24 139 17 87 31 134 38 131 5 -4 36 -25
68 -47z"/>
<path d="M2805 1604 c-533 -234 -976 -432 -982 -441 -18 -24 -16 -67 5 -85 9
-9 119 -66 244 -126 186 -90 228 -114 233 -134 3 -12 29 -171 59 -352 59 -352
63 -366 119 -366 26 0 57 26 217 185 102 102 188 185 191 185 3 0 122 -83 265
-185 261 -187 288 -201 327 -173 24 18 391 1847 377 1882 -9 25 -29 36 -63 36
-12 -1 -458 -192 -992 -426z m740 -586 c-81 -403 -148 -734 -149 -736 -2 -1
-650 457 -685 484 -2 2 216 226 485 498 268 273 489 494 492 492 2 -2 -63
-334 -143 -738z m-260 644 c-6 -5 -212 -161 -460 -347 -247 -186 -455 -341
-460 -346 -10 -8 -325 138 -325 150 0 5 1237 550 1250 551 2 0 0 -4 -5 -8z
m-472 -594 l-273 -273 -25 -124 c-14 -68 -25 -127 -26 -130 -1 -3 -14 66 -29
154 -25 146 -26 161 -11 172 9 6 153 115 321 241 168 127 307 231 310 231 3 1
-118 -122 -267 -271z m-91 -473 l57 -41 -96 -95 c-73 -72 -94 -88 -90 -69 3
14 16 78 28 142 15 74 27 114 33 110 6 -3 37 -24 68 -47z"/>
</g>
</svg>
