<svg width="26" height="28" viewBox="0 0 26 28" fill="none" xmlns="http://www.w3.org/2000/svg">
<path d="M25.2673 7.02124C23.6694 7.02124 22.195 6.49187 21.011 5.59882C19.6531 4.57507 18.6775 3.07335 18.333 1.34249C18.2476 0.914834 18.2017 0.473506 18.1973 0.0212402H13.6326V12.4944L13.6271 19.3265C13.6271 21.153 12.4376 22.7018 10.7888 23.2465C10.3103 23.4045 9.7935 23.4794 9.25538 23.4499C8.5685 23.4122 7.92483 23.2049 7.36538 22.8702C6.17483 22.1582 5.36764 20.8665 5.34577 19.3888C5.31132 17.0794 7.17835 15.1965 9.48616 15.1965C9.94171 15.1965 10.3792 15.2708 10.7888 15.4059V11.9967V10.7712C10.3568 10.7072 9.9171 10.6738 9.47249 10.6738C6.94647 10.6738 4.58397 11.7238 2.89522 13.6155C1.61882 15.045 0.853192 16.8688 0.735067 18.7812C0.580301 21.2936 1.4996 23.6818 3.28241 25.4438C3.54436 25.7025 3.81944 25.9426 4.1071 26.1641C5.63561 27.3404 7.50429 27.978 9.47249 27.978C9.9171 27.978 10.3568 27.9452 10.7888 27.8812C12.6274 27.6089 14.3238 26.7673 15.6626 25.4438C17.3076 23.818 18.2165 21.6594 18.2263 19.362L18.2028 9.15952C18.9876 9.76491 19.8456 10.2659 20.7666 10.6547C22.1988 11.259 23.7175 11.5652 25.2805 11.5647V8.25007V7.02015C25.2816 7.02124 25.2684 7.02124 25.2673 7.02124Z" fill="#3A5199"/>
</svg>
