<svg width="28" height="26" viewBox="0 0 28 26" fill="none" xmlns="http://www.w3.org/2000/svg">
<path d="M27.8763 4.98962C27.7107 4.72034 27.4078 4.56771 27.0925 4.59505L25.6963 4.71668L27.0309 2.02643C27.1898 1.70601 27.127 1.31998 26.8748 1.06639C26.6225 0.812802 26.2368 0.748161 25.9156 0.905443L22.3835 2.63527C20.2013 1.48322 17.475 1.82518 15.599 3.53411C14.0333 4.96037 13.2103 7.15372 13.3637 9.34101C9.27151 8.93085 5.80759 6.58852 3.75933 2.80381C3.62343 2.55274 3.36864 2.38852 3.08388 2.36834C2.79857 2.34848 2.52371 2.47492 2.35385 2.70445C1.08346 4.42065 0.99432 6.77375 1.99024 8.70964C1.7157 8.6403 1.42356 8.54645 1.09959 8.43822C0.822054 8.34542 0.516076 8.40486 0.293334 8.59474C0.0705912 8.78462 -0.0364871 9.07725 0.0111458 9.36605C0.405225 11.7552 1.79845 13.5914 3.99929 14.6783C3.71273 14.7781 3.42032 14.8592 3.12298 14.9211C2.82756 14.9827 2.58835 15.1988 2.4973 15.4865C2.40624 15.7742 2.47745 16.0886 2.68362 16.309C4.26852 18.0031 6.55796 18.8369 8.18415 19.2369C6.33517 20.6849 4.33923 20.9272 1.43893 20.8276C1.1032 20.8174 0.79389 21.0065 0.652741 21.3109C0.511647 21.6153 0.566389 21.9746 0.791866 22.2231C2.0009 23.5558 6.40577 25.0585 11.0363 25.1712C11.2194 25.1756 11.4062 25.178 11.597 25.178C14.8482 25.1779 19.1451 24.481 22.2293 21.3968C24.5637 19.0624 26.0239 16.375 26.5691 13.4095C27.0094 11.0143 26.7311 9.09633 26.5974 8.17452C26.5876 8.10676 26.5771 8.03485 26.5685 7.97196L27.8745 5.86703C28.0411 5.59852 28.0418 5.2589 27.8763 4.98962Z" fill="white"/>
</svg>
