<svg width="48" height="48" viewBox="0 0 48 48" fill="none" xmlns="http://www.w3.org/2000/svg">
<path d="M24 33.75C32.5432 33.75 39.4688 26.8244 39.4688 18.2812C39.4688 9.7381 32.5432 2.8125 24 2.8125C15.4568 2.8125 8.53125 9.7381 8.53125 18.2812C8.53125 26.8244 15.4568 33.75 24 33.75Z" fill="#F2F2F2"/>
<path d="M24 0C13.9312 0 5.71875 8.21241 5.71875 18.2812C5.71875 26.8032 11.5125 32.4844 16.1812 37.0405C19.6125 40.4156 22.5938 43.5001 22.5938 46.5938C22.5938 47.3813 23.2124 48 24 48C24.7876 48 25.4062 47.3813 25.4062 46.5938C25.4062 43.5001 28.3875 40.4156 31.8188 37.0405C36.4875 32.4844 42.2812 26.8032 42.2812 18.2812C42.2812 8.21241 34.0688 0 24 0ZM24 30.9375C17.0251 30.9375 11.3438 25.2562 11.3438 18.2812C11.3438 11.3063 17.0251 5.625 24 5.625C30.9749 5.625 36.6562 11.3063 36.6562 18.2812C36.6562 25.2562 30.9749 30.9375 24 30.9375ZM24 18.2812C23.2227 18.2812 22.5938 18.9102 22.5938 19.6875V22.5C22.5938 23.2773 23.2227 23.9062 24 23.9062C24.7773 23.9062 25.4062 23.2773 25.4062 22.5V19.6875C25.4062 18.9102 24.7773 18.2812 24 18.2812ZM24 12.6562C23.2234 12.6562 22.5938 13.2859 22.5938 14.0625C22.5938 14.8391 23.2234 15.4688 24 15.4688C24.7766 15.4688 25.4062 14.8391 25.4062 14.0625C25.4062 13.2859 24.7766 12.6562 24 12.6562Z" fill="url(#paint0_linear_96_41)"/>
<defs>
<linearGradient id="paint0_linear_96_41" x1="5.71875" y1="24" x2="42.2813" y2="24" gradientUnits="userSpaceOnUse">
<stop stop-color="#33276C"/>
<stop offset="0.642558" stop-color="#9657B4"/>
<stop offset="1" stop-color="#903367"/>
</linearGradient>
</defs>
</svg>
