<?xml version="1.0" encoding="utf-8"?>
<!-- Generator: Adobe Illustrator 24.0.0, SVG Export Plug-In . SVG Version: 6.00 Build 0)  -->
<svg version="1.1" id="Слой_1" xmlns="http://www.w3.org/2000/svg" xmlns:xlink="http://www.w3.org/1999/xlink" x="0px" y="0px"
	 viewBox="0 0 1000 1000" style="enable-background:new 0 0 1000 1000;" xml:space="preserve">
<style type="text/css">
	.st0{fill:#FFFFFF;}
	.st1{fill:#1A1A1A;}
	.st2{fill:#999999;}
	.st3{fill:#B3B3B3;}
	.st4{fill:#CCCCCC;}
	.st5{fill:#F2F2F2;}
	.st6{fill:#7643A3;}
	.st7{fill:#BA9ED8;}
	.st8{fill-rule:evenodd;clip-rule:evenodd;fill:#FFFFFF;}
	.st9{fill:#39273F;}
	.st10{fill:#5D3C68;}
	.st11{fill:#9D54AF;}
	.st12{fill:#D5A8E5;}
	.st13{fill:#242422;}
	.st14{fill:#30312F;}
	.st15{fill:#3B3D3B;}
	.st16{fill:#474948;}
	.st17{fill:#5E5F5F;}
	.st18{fill:none;}
	.st19{fill-rule:evenodd;clip-rule:evenodd;}
	.st20{fill:#CDCDCD;}
	.st21{fill:#E1E1E1;}
	.st22{fill:#F0F0F0;}
	.st23{fill:#FFFFFF;stroke:#7643A3;stroke-width:0.5;stroke-miterlimit:10;}
	.st24{fill:#FFFFFF;stroke:#7643A3;stroke-width:0.25;stroke-miterlimit:10;}
</style>
<g>
	<g>
		<path class="st20" d="M617.645,475.724c-0.329,2.005-13.096,95.174-43.065,159.341c-29.982,64.157-41.725,65.907-47.73,61.918
			c-6.006-3.979-1.879-45.859-1.879-45.859s-24.803,65.908-61.422,130.094c-36.614,64.194-47.419,59.917-47.867,47.417
			c-0.465-12.497,13.438-62.712,13.438-62.712s-10.113,33.769-36.682,80.028c-26.577,46.256-35.517,53.377-37.842,41.191
			c-2.314-12.186,9.833-62.771,9.833-62.771s-20.007,73.789-59.965,120.756c-39.95,46.97-54.082,33.061-44.795,4.631
			c9.28-28.42,45.341-189.198,67.878-271.415C350.086,596.123,643.513,318.386,617.645,475.724z"/>
		<path class="st21" d="M666.331,369.21c0,0,4.193,38.757-6.93,94.367c-11.136,55.603-36.477,97.98-48.976,96.812
			c-12.501-1.185-1.024-89.786-1.024-89.786s-22.953,84.877-34.138,79.158c-11.174-5.723-4.187-58.048-4.187-58.048
			s-24.71,84.53-55.261,129.287c-30.559,44.754-39.232,42.29-40.95,30.223c-1.731-12.073,10.682-60.519,10.682-60.519
			s-26.302,67.67-41.445,68.024c-15.143,0.354-6.477-43.352-6.477-43.352s-42.388,120.194-66.607,120.753
			c-24.243,0.582-20.59-68.96-20.59-68.96l-17.092-179.889l169.352-175.593C502.687,311.688,647.961,162.868,666.331,369.21z"/>
		<path class="st22" d="M686.733,200.415c0,0,23.555,46.156,32.154,103.037c8.603,56.884-2.085,78.824-10.782,68.775
			c-8.673-10.042-22.296-54.158-22.296-54.158s-10.402,108.812-28.176,98.975c-17.774-9.827-31.545-114.621-31.545-114.621
			s-7.053,87.451-28.164,87.272c-21.104-0.175-20.236-82.688-20.236-82.688s-34.113,152.217-54.653,144.576
			c-20.528-7.634-23.561-111.614-23.561-111.614s-9.646,111.733-21.943,109.219c-12.276-2.508-14.546-38.112-14.546-38.112
			s-14.678,78.308-38.084,112.12c-23.412,33.809-13.592-36.548-12.779-49.464c0,0-23.171,86.234-38.853,82.33
			c-15.689-3.886-24.913-56.758-24.913-56.758s-23.865-109.623-11.682-164.32c12.196-54.704,222.118-269.55,222.118-269.55
			S662.081,138.206,686.733,200.415z"/>
		<path class="st23" d="M530.819,12.848c0,0,22.805-14.63,44.43,1.502c0,0,10.174,8.276,35.919,40.408
			c25.75,32.135,99.095,138.066,117.917,160.516c18.822,22.447,23.678,33.779,11.24,36.058
			c-12.425,2.289-59.398-36.938-70.087-61.164c0,0,2.55,37.732-11.557,31.401c-14.106-6.331-15.255-56.864-15.255-56.864
			s-24.51,56.341-43.288,49.051c-18.771-7.284-12.121-65.196-8.331-81.642c0,0-34.584,66.668-47.171,54.452
			c-12.575-12.209-8.468-49.954-8.468-49.954s-66.248,180.095-83.475,174.518c-17.24-5.59-6.533-77.818-6.533-77.818
			s-42.345,108.495-52.09,97.54c-9.759-10.949-0.62-53.87-0.62-53.87s-37.942,41.873-40.522,73.72
			c-2.586,31.867,23.928,113.076,14.801,117.409c-9.125,4.333-16.922-7.581-16.922-7.581s23.194,71.577,15.886,79.731
			c-7.32,8.15-17.506-7.714-17.506-7.714s20.249,82.677,12.376,144.477c-7.872,61.786-20.881,44.665-25.353,23.078
			c0,0,2.072,63.82-22.221,145.681c-24.294,81.864-72.365,157.493-75.157,144.52c-2.785-12.973,50.974-157.727,64.982-322.309
			c14.014-164.588-22.246-285.688,1.589-351.099C329.23,251.467,481.174,56.124,522.818,38.787c0,0-13.306,2.117-15.292-4.498
			C505.54,27.69,530.819,12.848,530.819,12.848z"/>
		<path class="st24" d="M739.414,245.632c0,0,6.308-5.597-5.459-19.03c-11.794-13.426-98.388-131.027-118.345-157.84
			c-19.937-26.809-45.67-70.644-76.409-55.567c0,0,19.665-2.19,38.68,18.927C596.913,53.233,679.984,220.407,739.414,245.632z"/>
		<path class="st6" d="M398.319,184.263c0,0-85.256,101.115-94.493,171.584c-9.231,70.468,29.12,216.794-2.023,392.351
			c0,0-23.654,133.677-52.872,210.391c0,0,58.94-145.069,74.144-282.536c15.206-137.461-31.917-301.007,0.682-362.65
			C359.781,245.304,398.319,184.263,398.319,184.263z"/>
		<path class="st6" d="M702.746,248.483c0,0,24.038,85.532,14.373,112.497c0,0-2.418,7.777-7.586,6.027
			c0,0,4.881-6.847,4.094-30.861C712.602,305.096,702.746,248.483,702.746,248.483z"/>
		<path class="st6" d="M683.241,307.543c0,0-3.221,78.675-18.376,102.118c0,0-4.019,6.867-8.66,3.731c0,0,4.752-10.538,9.138-34.04
			C672.043,343.525,672.508,343.929,683.241,307.543z"/>
		<path class="st6" d="M624.897,294.6c0,0-4.652,62.868-19.82,86.323c0,0-6.242,10.694-13.523,1.274
			c0,0,10.198-11.713,17.164-34.388C618.587,315.711,624.897,294.6,624.897,294.6z"/>
		<path class="st6" d="M574.034,308.152c0,0-17.761,90.219-38.319,126.053c0,0-11.266,19.913-16.551,7.462
			c0,0,12.338-11.484,23.363-44.817C558.11,349.695,574.034,308.152,574.034,308.152z"/>
		<path class="st6" d="M660.48,429.686c0,0-3.518,71.636-40.094,122.311c0,0-8.524,10.75-11.389-4.654
			c0,0,7.178,7.218,21.465-21.448C652.919,480.857,660.48,429.686,660.48,429.686z"/>
		<path class="st6" d="M604.115,480.206c0,0-17.022,59.57-26.377,64.379c0,0-4.815,4.7-6.129-10.035
			C571.608,534.549,580.697,534.331,604.115,480.206z"/>
		<path class="st6" d="M563.811,503.496c0,0-34.672,114.366-79.592,149.646c0,0-7.444,4.164-7.637-6.209
			c0,0,1.781,3.116,23.071-23.029C520.963,597.757,563.811,503.496,563.811,503.496z"/>
		<path class="st6" d="M640.189,160.427c0,0-19.871,51.757-36.942,50.857c0,0-9.015-0.288-10.279-12.434
			C592.967,198.85,615.33,209.267,640.189,160.427z"/>
		<path class="st6" d="M588.568,128.693c0,0-25.255,54.287-41.116,57.248c0,0-6.657-0.844-6.676-12.216
			c0,0,5.491,6.288,18.525-7.585C572.353,152.26,588.568,128.693,588.568,128.693z"/>
		<path class="st6" d="M522.252,159.958c0,0-52.47,142.254-67.078,146.851c0,0-7.65,2.583-8.586-10.701
			c0,0,8.138-1.793,24.064-30.246C486.57,237.422,522.252,159.958,522.252,159.958z"/>
		<path class="st6" d="M484.809,588.651c0,0-24.126,58.65-37.904,65.659c0,0-6.408,3.344-7.977-6.798c0,0,6.773,2.934,19.72-16.132
			C471.601,612.318,484.809,588.651,484.809,588.651z"/>
		<path class="st6" d="M598.302,554.978c0,0-15.119,58.934-39.647,105.607c0,0-16.966,33.227-25.824,31.93
			c-8.86-1.28-4.474-20.548-4.474-20.548s5.584,9.586,18.655-7.38C560.082,647.612,580.244,606.596,598.302,554.978z"/>
		<path class="st6" d="M514.4,668.61c0.694-1.409-41.57,100.556-74.257,144.526c0,0-12.754,20.657-18.735,18.398
			c-5.987-2.252,1.446-26.571,1.446-26.571s2.983,13.691,12.172,4.194C444.212,799.666,487.985,721.606,514.4,668.61z"/>
		<path class="st6" d="M423.101,774.514c0,0-13.102,40.222-37.99,80.614c-24.89,40.394-27.457,33.673-27.68,26.399l5.9-31.874
			c0,0-2.868,26.975,7.624,13.959C376.537,856.709,423.101,774.514,423.101,774.514z"/>
	</g>
</g>
</svg>
