<?xml version="1.0" encoding="utf-8"?><svg xmlns="http://www.w3.org/2000/svg" xmlns:xlink="http://www.w3.org/1999/xlink"><symbol viewBox="0 0 20.85 8.63" id="FAQ" xmlns="http://www.w3.org/2000/svg"><path d="M2.24 2.09v2.13h3.38v1.1H2.24V8H.94V1h5.11v1.09H2.24zm9.304 4.29h-3.5L7.354 8h-1.34l3.15-7h1.28l3.16 7h-1.36l-.7-1.62zm-.43-1.02L9.794 2.3l-1.31 3.06h2.63zM21.788 8.7c-.233.273-.507.48-.82.62-.307.14-.643.21-1.01.21-.48 0-.92-.11-1.32-.33-.4-.213-.857-.587-1.37-1.12a3.834 3.834 0 01-1.74-.56 3.476 3.476 0 01-1.2-1.27 3.601 3.601 0 01-.43-1.75c0-.68.163-1.293.49-1.84a3.398 3.398 0 011.35-1.29c.573-.313 1.217-.47 1.93-.47.713 0 1.357.157 1.93.47a3.418 3.418 0 011.35 1.28c.327.547.49 1.163.49 1.85 0 .553-.11 1.067-.33 1.54-.22.467-.527.867-.92 1.2-.393.327-.85.563-1.37.71.193.207.383.357.57.45.187.093.387.14.6.14.46 0 .86-.187 1.2-.56l.6.72zm-6.58-4.2c0 .467.107.89.32 1.27.213.373.507.667.88.88.373.207.793.31 1.26.31.467 0 .887-.103 1.26-.31.373-.213.667-.507.88-.88.213-.38.32-.803.32-1.27 0-.467-.107-.887-.32-1.26a2.234 2.234 0 00-.88-.88 2.494 2.494 0 00-1.26-.32c-.467 0-.887.107-1.26.32-.373.207-.667.5-.88.88-.213.373-.32.793-.32 1.26z"/></symbol><symbol viewBox="0 0 480.026 480.026" id="arrows" xmlns="http://www.w3.org/2000/svg"><path d="M475.922 229.325l-144-160c-3.072-3.392-7.36-5.312-11.904-5.312h-96a16.052 16.052 0 00-14.624 9.472c-2.56 5.792-1.504 12.544 2.72 17.216l134.368 149.312-134.368 149.28c-4.224 4.704-5.312 11.456-2.72 17.216 2.592 5.792 8.32 9.504 14.624 9.504h96c4.544 0 8.832-1.952 11.904-5.28l144-160c5.472-6.08 5.472-15.36 0-21.408z"/><path d="M267.922 229.325l-144-160c-3.072-3.392-7.36-5.312-11.904-5.312h-96a16.052 16.052 0 00-14.624 9.472c-2.56 5.792-1.504 12.544 2.72 17.216l134.368 149.312L4.114 389.293c-4.224 4.704-5.312 11.456-2.72 17.216 2.592 5.792 8.32 9.504 14.624 9.504h96c4.544 0 8.832-1.952 11.904-5.28l144-160c5.472-6.08 5.472-15.36 0-21.408z"/></symbol><symbol viewBox="0 0 414.72 543.28" id="flip" xmlns="http://www.w3.org/2000/svg"><path d="M479 265.166c0 57.977-25.452 112.68-69.818 150.09l-38.538-45.727c30.854-26.013 48.551-64.055 48.551-104.363 0-72.504-56.885-131.795-128.352-136.009H261.59l24.636 62.368a4.986 4.986 0 01-1.643 5.822 4.984 4.984 0 01-6.053-.024l-122.498-94.185a5.005 5.005 0 01-1.954-3.966c0-1.554.724-3.021 1.954-3.963l122.51-94.18A4.933 4.933 0 01281.58 0a5.002 5.002 0 014.658 6.833l-24.636 62.358 21.185.062v-.316c7.571 0 15.043.479 22.396 1.321 4.877.508 10.32 1.229 14.452 2.202C410.257 89.761 479 169.562 479 265.166zm-214.263 80.791a4.975 4.975 0 00-6.053-.023 5.01 5.01 0 00-1.64 5.828l24.636 62.365h-29.252c-71.452-4.221-128.346-63.518-128.346-136.014 0-37.728 15.058-72.832 42.398-98.845l-41.231-43.326C85.93 173.36 64.276 223.844 64.276 278.113c0 95.596 68.733 175.402 159.375 192.703 4.14.97 9.581 1.69 14.455 2.199 7.353.845 14.818 1.324 22.396 1.324v-.319l21.184.064-24.636 62.358a4.996 4.996 0 004.655 6.833 4.968 4.968 0 003.044-1.028l122.492-94.188a4.99 4.99 0 000-7.921l-122.504-94.181z"/></symbol><symbol viewBox="0 0 8.15 28" id="i_2" xmlns="http://www.w3.org/2000/svg"><path d="M16.926 19.578c.604 0 1.094-.49 1.094-1.094v-4.101a4.051 4.051 0 00-4.047-4.047 4.051 4.051 0 00-4.047 4.047v9.57A4.051 4.051 0 0013.973 28a4.051 4.051 0 004.046-4.047 1.094 1.094 0 10-2.187 0c0 1.025-.834 1.86-1.86 1.86a1.861 1.861 0 01-1.859-1.86v-9.57c0-1.025.834-1.86 1.86-1.86 1.025 0 1.859.835 1.859 1.86v4.101c0 .604.49 1.094 1.094 1.094zM14.027 0A4.051 4.051 0 009.98 4.047a4.051 4.051 0 004.047 4.047 4.051 4.051 0 004.047-4.047A4.051 4.051 0 0014.027 0zm0 5.906a1.861 1.861 0 01-1.859-1.86c0-1.024.834-1.859 1.86-1.859 1.025 0 1.859.835 1.859 1.86 0 1.025-.834 1.86-1.86 1.86z"/></symbol><symbol viewBox="0 0 270.345 93.65" id="m" xmlns="http://www.w3.org/2000/svg"><path d="M270.345 74.49v19.16H0V74.49h20.06q35.87 0 49.827-9.205 13.959-9.155 17.96-28.565Q89.95 26.14 91 0h82.895q.826 23.112 2.55 33.818c2.252 13.758 7.855 23.963 16.91 30.667q13.582 9.98 51.928 10.005z"/></symbol><symbol viewBox="0 0 64 64" id="moon" xmlns="http://www.w3.org/2000/svg"><path d="M52.47 52.47a29 29 0 01-49-14.79 24.19 24.19 0 0033.65-.55 24.19 24.19 0 00.55-33.65 29 29 0 0114.79 49z"/><path d="M19 30.53A5.35 5.35 0 0020.52 32 5.35 5.35 0 0019 33.47 5.35 5.35 0 0017.57 32 5.36 5.36 0 0019 30.53zm14.47-12.32A5.32 5.32 0 0032 19.68a5.34 5.34 0 00-1.47-1.47A5.35 5.35 0 0032 16.73a5.37 5.37 0 001.47 1.48zM15.4 13.92a5.35 5.35 0 001.47 1.47 5.35 5.35 0 00-1.47 1.47 5.35 5.35 0 00-1.47-1.47 5.35 5.35 0 001.47-1.47z"/></symbol><symbol viewBox="0 0 270.345 122.057" id="n" xmlns="http://www.w3.org/2000/svg"><path d="M270.345 0v25.242q-47.254 3.855-74.407 18.124Q168.653 57.7 161.27 77.768q-5.438 14.631-6.854 44.289H126.67q-1.383-37.368-9.886-53.91c-6.789-13.248-20.628-23.66-41.521-31.372Q44.025 25.21 0 25.242V0z"/></symbol><symbol viewBox="0 0 514.84 73.33" id="pandemonium" xmlns="http://www.w3.org/2000/svg"><path fill-rule="evenodd" clip-rule="evenodd" d="M304.839 0l2.867 5.266 2.868 5.267h-11.47l2.867-5.267L304.839 0zm-.002 41.479c2.506 0 4.538-2.154 4.538-4.812 0-2.657-2.032-4.812-4.538-4.812-2.507 0-4.538 2.155-4.538 4.812 0 2.658 2.031 4.812 4.538 4.812zm-2.866 26.588l2.868 5.267 2.867-5.267 2.868-5.266h-11.47l2.867 5.266zm11.782-14.883c.419-.35.816-.727 1.19-1.132a6.53 6.53 0 01-.619.377c-.097.125-.258.196-.408.262-.16.07-.308.135-.356.256-.05-.022-.114.023-.19.076-.089.063-.193.136-.305.122-.11.104-.241.181-.381.227-.036-.088-.488.16-.598.32-.086.025-.079.004-.073-.016.004-.012.007-.024-.008-.027-.04.04-.088.05-.137.06-.048.01-.097.02-.137.061.04.015-.024.125-.139.125a.514.514 0 01.05-.041c.05-.04.11-.086.056-.081a.519.519 0 00-.229.115c-.053.038-.106.076-.163.098.012-.046-.023-.042-.094-.033l-.049.005a.993.993 0 01-.22.14c-.077.04-.154.08-.227.144.082-.026.115-.024.074.026a.18.18 0 00-.097.023c-.009.015.017.018.043.02.03.004.06.007.034.031a.8.8 0 00-.269.082.722.722 0 01-.307.078.539.539 0 01.134-.062c.084-.03.148-.054.012-.059.033-.038.11-.061.174-.08.067-.02.121-.035.101-.062a.918.918 0 00-.096.034c-.072.028-.145.057-.226.032a.343.343 0 01-.173.098.44.44 0 00-.133.061c.042.018.079.002.115-.014l.045-.018a.113.113 0 01.034-.005c-.067.043-.041.05-.015.058a.092.092 0 01.016.006c.007.002.012.006.012.011a.342.342 0 01-.288.097.717.717 0 01.039-.026c.038-.025.077-.05.049-.06a.142.142 0 01-.069.02.133.133 0 00-.028.003.104.104 0 00-.032.01c-.06.03-.051.043-.043.056.009.012.018.025-.042.055-.129.006-.272.042-.413.077-.218.055-.431.108-.573.043-.014.007-.041.015-.071.024-.072.022-.163.049-.119.076.022.012.072-.002.118-.015.059-.016.11-.03.08.017a3.26 3.26 0 00-.405.092c-.142.017-.245.015-.187-.063a.35.35 0 00-.132.018c-.062.024-.054.037-.047.051.008.014.015.028-.047.051-.336.032-.734.085-1.09.132a37.09 37.09 0 01-.563.072c-.302-.037-.606-.024-.91-.011a5.782 5.782 0 01-.878-.008c.004.004.01.008.017.011.009.006.018.011.021.016.003.005.001.009-.011.012-.217-.085-.549-.103-.891-.12-.271-.015-.549-.03-.781-.079-.044.013-.012.04-.048.055a5.284 5.284 0 00-.571-.132 5.59 5.59 0 01-.523-.118c.03.023.057.045-.015.049a.787.787 0 00-.548-.124c-.188-.108-.398-.157-.606-.207-.202-.047-.403-.095-.584-.194 0 .015-.018.02-.044.018.173.098.348.19.525.279 2.606.757 5.336.915 8.007.46.422-.12.85-.216 1.282-.286.229-.073.453-.163.67-.27a.25.25 0 01.074.002c.044.005.088.01.125-.023-.001-.064.247-.115.397-.145l.084-.019c.117-.028.242-.088.352-.14.131-.063.24-.115.288-.093a1.531 1.531 0 01-.285.117c.141.04.329-.074.52-.19.171-.104.345-.21.491-.21.147-.138.383-.233.6-.32.244-.1.465-.189.51-.319a.21.21 0 00.089-.031.27.27 0 01.065-.028zm-13.951 1.125a.097.097 0 01.021-.005c.036.064.269.078.236.028-.106-.044-.111-.063-.118-.09a.124.124 0 00-.032-.057c-.176-.03-.234 0-.252.038.048.03.096.058.145.086zm18.391-35.921a20.657 20.657 0 015.23 3.306 18.585 18.585 0 014.896 6.732c1.178 2.63 1.768 5.6 1.768 8.908 0 3.264-.59 6.211-1.768 8.84a18.73 18.73 0 01-4.896 6.664c-2.131 1.86-4.67 3.287-7.616 4.284l-.112.036c-.17.154-.45.269-.697.37-.245.1-.456.186-.491.284a1.22 1.22 0 01-.341.181l.012-.011.018-.017c.033-.03.067-.06.034-.059-.122.057-.247.102-.372.147a4.436 4.436 0 00-.364.144.397.397 0 01.029-.027c.033-.03.067-.061.034-.06-.053.05-.115.067-.176.085a.462.462 0 00-.169.076c.043-.01.085-.022.127-.035.051-.015.102-.03.155-.039a3.304 3.304 0 00-.563.366.375.375 0 00-.167.054c-.048.028-.105.061-.313.098-.377.199-.778.34-1.192.422a.897.897 0 01.033-.021c.037-.023.075-.046.042-.05a.22.22 0 01-.123.019c.035.05-.138.142-.32.135-.029-.001-.018-.013-.007-.026.009-.01.019-.02.002-.024-.048.027-.056.04-.062.05-.008.012-.012.019-.096.043-.062.002-.055-.015-.048-.03.004-.009.007-.017.002-.023-.044.022-.053.036-.062.05-.009.012-.018.025-.055.045-.277.04-.55.109-.814.208-.098.007-.055-.021-.012-.05.039-.027.079-.053.007-.052a1.622 1.622 0 01-1.105.203c.045.005.085-.02-.001-.026.192-.027.451-.153.327-.201a.652.652 0 00-.137.053.4.4 0 01-.19.047c.034.028.067.057-.081.113-.076-.008-.053-.032-.03-.055.021-.021.042-.043-.012-.053a.802.802 0 00-.328.023c-.41.171-.841.283-1.28.332.112-.034.213-.068.13-.093a3.307 3.307 0 01-.148.006c-.123.002-.176.004-.229.073-.139-.036-.16-.013-.181.012-.02.022-.04.046-.153.027.12-.033.123-.061.127-.09a.063.063 0 01.008-.029.545.545 0 00-.165.007v.017c.003.023.005.047-.133.076-.073-.074-.265-.02-.252.036a7.192 7.192 0 00-.808-.002h-.001l-.298.009a2.43 2.43 0 01-.855-.152.647.647 0 01-.214.023.66.66 0 00-.213.023.592.592 0 00-.5-.01l-.183-.032c-.156-.03-.23-.044-.356-.006-.119-.037-.055-.042.009-.048.053-.004.106-.008.055-.03a.535.535 0 00-.173-.041c-.065-.008-.114-.014-.14-.064a.535.535 0 01-.332-.033l.038-.005c.042-.006.085-.011.057-.029a17.67 17.67 0 01-1.163-.182l-.111-.02a6.513 6.513 0 01-.606-.133 4.506 4.506 0 00-.561-.12c.217.054.429.126.636.217-.053-.021-.126-.038-.097-.01l.009.003c.133.056.283.119.24.041.272.073.137.133-.009.14-.268-.14-.678-.345-.792-.251-.043-.045-.101-.053-.159-.061-.055-.008-.11-.016-.152-.055.028-.016.095 0 .144.011.046.011.075.018.036-.011a.75.75 0 00-.364-.093c.017.019.068.046.025.047-.126-.08-.071-.108.13-.093a.55.55 0 00.317.092c-.106-.054-.068-.066-.031-.078.034-.01.067-.022.001-.061a1.61 1.61 0 01-.282-.069 1.653 1.653 0 01-1.009-.061c.193.036-.071-.094-.132-.107-.076.03-.268-.07-.44-.16a3.255 3.255 0 00-.178-.088.4.4 0 01.057.005c.055.005.11.011.088-.014a.418.418 0 00-.254-.059c-.06 0-.115.002-.167-.03.066-.034-.046-.061-.146-.086-.049-.013-.096-.024-.117-.035.059.004-.003-.04-.064-.086a.458.458 0 01-.085-.07.287.287 0 01-.052-.007c-.02-.004-.038-.01-.057-.015a.434.434 0 00-.102-.023c.106.034.246.103.129.106-.151-.1-.36-.187-.365-.112-.076-.054-.047-.053-.017-.051.029.001.058.002-.018-.051-.13-.012-.151-.033-.178-.063a.245.245 0 00-.087-.062c-.101-.025-.094.008-.086.041l.003.013c.036-.024.136.041.242.11.071.046.144.094.204.12-.081-.022-.079-.006-.078.01.001.013.002.025-.036.018a1.178 1.178 0 00-.342-.165c-.02.027.038.07.104.119.027.02.056.04.081.062a.99.99 0 01-.455-.38.842.842 0 01-.326-.212l-.062-.055a.87.87 0 00-.088-.068c.012-.013.049-.014.085-.014.042 0 .084 0 .089-.02a2.787 2.787 0 01-.228-.124 2.227 2.227 0 00-.286-.15l-.011.001a.198.198 0 00-.036.009c-.039.012-.075.024-.172-.056.009-.014.045-.005.077.004.049.013.088.023.01-.056-.075.01-.092-.003-.135-.036a.903.903 0 00-.097-.065.082.082 0 01-.014.006l-.021.007a.177.177 0 00-.034.011c-.009.006-.016.012-.018.023l.018.01c.065.04.226.14.14.127a.62.62 0 01-.104-.074.406.406 0 00-.181-.102c.003.029.058.07.099.098.038.028.062.046.012.033a.115.115 0 00-.128-.04c-.114-.114-.126-.161-.08-.17a2.516 2.516 0 00-.28-.185.344.344 0 01-.057-.103c-.024-.059-.045-.112-.16-.16-.09-.039-.083-.012-.075.014.008.029.016.057-.1.003-.069-.068-.025-.061.018-.055.044.007.087.014.018-.054a4.029 4.029 0 00-.821-.506c.038-.016-.004-.055-.067-.098a21.022 21.022 0 01-4.099-2.79 18.706 18.706 0 01-4.896-6.664c-1.134-2.629-1.7-5.576-1.7-8.84 0-3.309.566-6.278 1.7-8.908a18.562 18.562 0 014.896-6.732c.401-.35.816-.683 1.247-1.001-.023-.01-.08.02-.138.05-.06.032-.121.064-.139.049.08-.109.156-.148.234-.189a.703.703 0 00.323-.3c-.149.13-.229.168-.305.205-.085.042-.165.08-.33.243.108-.131.372-.421.422-.4a.24.24 0 00-.084.096 1.29 1.29 0 00.441-.297l-.004.013-.018.042c-.022.046-.036.075.075.029.026-.03.055-.053.083-.077a.465.465 0 00.122-.132.276.276 0 00-.092.06c-.035.029-.05.041.005-.045l.09-.07c.114-.086.19-.143.224-.274.173-.049.477-.373.388-.38l.146-.068c.011-.07.057-.105.12-.153a1.08 1.08 0 00.114-.097.163.163 0 01.091-.007c.028.005.048.009.152-.056.122-.178.28-.325.461-.433a.725.725 0 01-.129.132c-.072.063-.138.121-.099.137a.512.512 0 01.17-.103c.028-.011.052-.02.075-.04.056-.063.103-.11.142-.152a.799.799 0 00.194-.261c.14-.076.267-.188.394-.3.191-.17.384-.34.625-.393-.001-.038.03-.072.12-.133.084-.038.099-.017.113 0 .016.02.028.038.132-.036.043-.043.017-.043-.008-.043-.029 0-.058 0 .012-.062.199-.1.382-.232.541-.394.102-.047.068-.01.033.027-.028.03-.057.061-.009.045.059-.04.13-.078.201-.116.141-.076.28-.151.318-.236.17-.055.33-.14.474-.248.04-.006.057-.001.074.004.024.007.048.014.132-.009.054-.073.122-.093.19-.114a.35.35 0 00.17-.09c-.028-.015-.001-.058.027-.1l.021-.034c.074-.008.048.032.023.073-.028.046-.056.091.054.069a.617.617 0 01.179-.102.066.066 0 00-.01-.006c-.027-.015-.054-.03.026-.098.067-.015.068.004.069.019.001.017.002.03.095-.016.092-.08.042-.099-.006-.116l-.023-.008c.081.004.088-.014.097-.035.007-.02.016-.043.09-.052-.024.025-.002.019.034.01a.334.334 0 01.088-.016c-.02.02-.054.037-.08.05-.03.015-.05.025-.026.03a.938.938 0 00.381-.143c-.046-.006-.087.014-.127.034-.047.023-.093.046-.148.029a.909.909 0 01.247-.138c.093-.04.161-.068.151-.13.014.03.057.03.097.03.03 0 .059 0 .075.012-.051.028-.143.105-.098.13.032-.012.074-.025.121-.039.159-.048.367-.11.367-.183-.104.079-.305.115-.314.063a6.73 6.73 0 00.672-.354.819.819 0 00.265-.078c.093-.04.16-.068.166-.008a2.07 2.07 0 01.253-.104.996.996 0 00.212-.094c-.001.046.084.016.183-.02.091-.031.193-.067.254-.054-.057.041-.117.053-.176.065-.059.012-.119.023-.175.064.171.002.09.028-.007.059-.086.028-.185.06-.139.083.079-.008.14-.024.191-.037a.397.397 0 01.124-.02c.096-.07.229-.13.364-.191.116-.053.233-.106.328-.166.033.01.007.036-.019.061-.028.027-.056.054-.013.063a.521.521 0 01-.163.068c-.076.024-.141.044-.106.066.21-.097.436-.15.665-.156a.796.796 0 01.551-.134.743.743 0 00.266-.113c.091-.055.171-.105.331-.09-.135.035-.151.064-.17.1l-.011.02a.114.114 0 01-.018.024 3.6 3.6 0 01.547-.12c.23-.038.434-.072.491-.133-.074-.022-.087-.007-.099.008-.013.015-.025.03-.1.008l.203-.093c.047.053.165.039.295.024.047-.005.096-.011.143-.014.047-.06.148-.07.263-.082.074-.008.154-.016.228-.039.086.01.122.024.15.034.031.012.054.02.127.018.118-.043.008-.064-.085-.082-.096-.018-.175-.033.018-.066-.008.085.539.144.795.096-.069-.02-.067-.04-.032-.062.077.01.083.024.089.037.006.011.011.023.062.033.123-.011.19-.031.242-.046.075-.022.116-.034.245.005.038-.012.033-.027.028-.042-.006-.015-.011-.03.026-.043.077.019.083.033.089.046.005.012.01.024.062.04.187-.048.383-.043.568.012.085-.01.064-.028.042-.046-.022-.019-.045-.038.058-.048.064.011.132.01.199.008.056 0 .113-.002.168.005-.109.017-.153.04-.096.069l.994.022c.311.034.621.088.991.154-.04-.024-.073-.047.015-.049.046.04.103.042.16.045.04.001.08.003.116.017-.04.015-.042.035.021.068.191.032.383.05.576.052.04.018.047.03.053.043.006.011.012.023.046.039.161-.033.296.015.432.063.095.033.189.067.293.073-.019-.013-.018-.02-.018-.027.001-.006.002-.01-.007-.019a1.434 1.434 0 01-.349-.113 1 1 0 00.474.019c.116.052.04.049-.037.046-.063-.003-.127-.005-.079.024.185.048.427.082.684.117.489.067 1.032.142 1.342.336.069-.018.108 0 .18.031a1.9 1.9 0 00.105.044c-.013.042-.143.008-.262-.023-.124-.033-.236-.062-.188.003.39.149.788.274 1.192.375.147.098.038.087-.045-.005.005.019-.074.004-.163-.012-.116-.022-.25-.047-.246-.006.241.09.491.146.745.168-.046 0 .002.037.051.075.535.204 1.081.374 1.635.51.068.07.032.085-.005.1l-.023.011c-.031-.025-.036-.04-.039-.052-.004-.014-.007-.023-.049-.037-.097-.047-.139-.055-.102.002.119.073.241.138.367.195-.019-.023.007-.024.033-.024.018 0 .035 0 .039-.007.053.02.091.06.129.099a.36.36 0 00.134.1l.037.01c.041.012.081.024.062-.003a3.008 3.008 0 00-.103-.062c-.043-.025-.06-.035-.068-.05-.007-.011-.009-.026-.015-.056a1.747 1.747 0 01-.337-.167c.073.013.017-.021-.038-.055s-.111-.067-.037-.055c.107.05.11.055.13.084l.013.018a.53.53 0 00.049.057c.183.102.314.15.432.195.114.042.217.08.344.157a2.542 2.542 0 01-.113-.016c-.129-.02-.259-.042-.19.068.096.088.224.136.351.184.104.04.207.078.294.139.066.102.167.16.269.216.045.026.091.052.133.081.022-.052.466.155.465.222-.105-.072-.318-.178-.187-.036.108.037.212.087.31.149-.016-.023-.001-.023.014-.023.019 0 .038 0-.007-.047l.183.114c.108.068.117.073.369.219a.827.827 0 00.321.28c.11.062.219.125.321.277zM298.485 57.76c.124.078.429.192.474.125.142.107-.183.112-.358.026-.01.042.102.068.224.096a.95.95 0 01.258.084c.036-.012-.001-.027-.044-.044a.468.468 0 01-.056-.025c.082.002.158.017.234.033.069.014.139.028.213.032.05.03-.018.027-.087.024l-.046-.002c-.022 0-.04 0-.05.003.099.025.214.043.331.06.259.041.531.084.675.204.092-.02.193-.022.31-.023.099 0 .209-.002.333-.015a.362.362 0 00-.205-.036c-.061.002-.102.003-.096-.05a.405.405 0 00-.272.053 2.79 2.79 0 01-.864-.288l-.215.003a.564.564 0 01-.132-.094l-.049-.04-.164-.035c-.036.018-.159-.017-.274-.06l-.14-.03zm7.587.79c.005.068.227.13.446.055a.813.813 0 01-.336-.056h-.11zm1.333-.027a.415.415 0 00-.106.041c.13.029.265.01.384-.052l-.278.011zm.295-.012c.066.02.132.008.199-.01l-.199.01zm1.783-.122a.677.677 0 00-.188.102c-.05.033-.1.067-.15.089.137-.044.392-.052.238.043a3.024 3.024 0 01-.402.061c-.169.019-.339.037-.507.09.022.01.078.014.04.032-.124-.008-.089-.04-.054-.071.031-.029.063-.058-.026-.07-.078.053-.156.044-.234.036a.364.364 0 00-.201.016.27.27 0 00.102.019c.081.006.162.012.056.085a.642.642 0 01-.237-.067l-.279.13a1.624 1.624 0 00-.333.024 1.454 1.454 0 01-.378.02c.08-.04.087-.027.094-.015.006.011.012.021.064-.001.028-.017.009-.026-.011-.036-.013-.007-.026-.014-.025-.022a2.37 2.37 0 01-.801.114c-.075-.011-.065-.026-.056-.041.01-.016.019-.03-.055-.042l-.097-.004c-.114-.005-.159-.007-.265.055-.121-.017-.1-.04-.079-.062.005-.007.011-.013.014-.02.002-.005.002-.01-.003-.016-.11.007-.221.02-.331.032l-.068.008c.116-.043.08-.048.008-.06a.762.762 0 01-.115-.024c-.064.047-.314.056-.236.008.321-.02.64-.014.96-.008.151.003.303.006.456.006-.04-.017-.002-.038.036-.058.031-.016.062-.032.051-.047-.155.01-.342.007-.534.004-.436-.007-.899-.014-1.09.12-.1-.005-.096-.017-.091-.033.005-.014.01-.032-.055-.051a2.6 2.6 0 01-.475-.007c-.021.025-.068.03-.107.033-.04.004-.073.007-.064.03a.972.972 0 00.394.027.6.6 0 00-.031-.014c-.036-.015-.072-.03-.04-.04.049.02.101.02.153.02.054.002.108.003.159.025-.064.021-.059.047-.054.073.005.025.011.05-.049.072-.102-.007-.098-.018-.093-.034.005-.014.011-.032-.054-.052-.106.04-.237.013-.351-.01-.127-.027-.232-.049-.254.032a.42.42 0 00-.201 0c-.07-.013-.08-.034-.088-.052-.009-.019-.016-.033-.097-.025-.029.007-.02.017-.01.026.009.009.017.017 0 .024a5.575 5.575 0 00-.226-.024c-.109-.01-.217-.018-.322-.04.066.029.001.027-.056.025-.051-.001-.096-.002-.036.019.171 0 .342.026.507.074a3.482 3.482 0 00-.605-.006c0-.004.005-.008.011-.012l.025-.011c.033-.015.066-.029-.017-.051a.17.17 0 01-.031.003.357.357 0 01-.046-.004.22.22 0 00-.087 0c.01.018-.003.03-.017.044-.016.016-.032.031-.008.054.173.028.35.033.525.015.083.023.101.042.118.06a.146.146 0 00.061.041c.118-.003.21-.016.293-.027.165-.023.294-.041.516.033.02.022-.033.025-.08.027-.058.003-.108.006-.014.042a.648.648 0 01.372-.038c.025.02-.039.025-.105.031-.088.008-.181.017-.074.058a.53.53 0 01.148-.033c.074-.01.146-.018.195-.07.138.042.075.052.007.062-.066.01-.136.02-.028.062.084-.026.164-.028.218-.03.072-.002.101-.002.038-.054.194.096.385.072.4-.002a.22.22 0 00.16-.006c.032.008.036.025.04.042.006.028.012.057.149.04a.137.137 0 00.061-.063c.008-.013.016-.027.032-.041l.046-.003.033-.003c.147-.01.371-.026.357.027a2.81 2.81 0 00-.359.001c.124.024.27.023.399.02.199-.002.359-.004.35.09a.841.841 0 01.278-.023.815.815 0 00.288-.026c-.051.002-.101-.007-.152-.014-.095-.016-.19-.031-.29.02l-.157-.044.165-.057c.184.03.37.045.557.045a.08.08 0 01-.016.02l-.02.017c-.035.028-.069.055.03.066.22-.07.451-.098.681-.085.021-.032.086-.056.144-.078.075-.027.141-.051.099-.085a.228.228 0 00.12-.03c.006.033.052.044.091.054.049.013.088.023.028.068.168-.026.216-.106.2-.143.088.005.238-.022.364-.044.176-.032.306-.056.157.03.034.005.1-.008.163-.02.095-.019.185-.036.157.01-.041.017-.084.022-.126.028a.46.46 0 00-.152.038c.094.04.184.011.273-.018.055-.018.11-.036.166-.037l-.078.045c.023.007.014.022-.038.049a.583.583 0 00-.201.006c-.04.023-.12.052-.079.063a.857.857 0 00.555-.178c.284-.036.562-.103.833-.2-.076-.024-.079-.066-.012-.126.038.056.067.041.123.013a.516.516 0 01.236-.067c-.006.035-.08.07-.146.101-.076.036-.14.067-.078.086a2.7 2.7 0 00.941-.297c.145 0 .348-.066.544-.13.185-.059.364-.116.482-.116a.22.22 0 01-.048.033.664.664 0 01-.035.018c-.031.015-.051.025-.026.03.092-.023.092.003.091.026 0 .024 0 .043.119-.011.024-.029.009-.043-.005-.057-.012-.011-.025-.023-.014-.043a4.25 4.25 0 01.651-.284l-.055.003c-.08.006-.16.011-.145-.02-.563.12-1.137.224-1.722.312a3.704 3.704 0 01-.535.15c-.079-.001-.121-.01-.155-.016-.054-.01-.085-.016-.206.019-.012-.01-.013-.02-.006-.03l-.097.012a.395.395 0 01-.094.055c-.074.003-.068-.015-.042-.039l-.15.017a.26.26 0 01-.163.048.249.249 0 00.055-.036 24.49 24.49 0 01-.191.02c-.01.009-.013.016-.017.025-.004.013-.01.028-.04.054-.041-.019-.079-.001-.118.017-.038.017-.076.035-.116.017-.024-.019.022-.035.065-.05.043-.014.084-.028.047-.044h-.008l-.076.007zm3.688-.563a1.322 1.322 0 00-.048.024c.069-.012.116-.027.147-.036.027-.008.041-.012.045-.008.005.005-.004.022-.021.059.104-.05.21-.094.317-.137a26.23 26.23 0 01-.44.099zm.789-.181c.02.022.094.013.193-.035-.044.055-.1.068-.156.08-.051.011-.102.023-.144.068a.7.7 0 00.515-.217c-.135.036-.271.07-.408.104zm1.08-.289c.092-.026.183-.053.275-.081.016.004.028.01.021.026l-.015.022a3.217 3.217 0 01.048-.065l.257-.079a10.66 10.66 0 01-1.222.572c.143-.092.296-.167.455-.225.024-.052-.054-.011-.135.032a.603.603 0 01-.141.062l.206-.185c.038-.007.05-.002.061.003.007.003.013.006.022.007.01 0 .025 0 .048-.005.047-.03.086-.058.12-.084zm-17.298-4.6c-1.536-1.444-2.767-3.298-3.695-5.563-1.134-2.765-1.7-6.052-1.7-9.86 0-3.853.566-7.162 1.7-9.928 1.133-2.81 2.72-4.964 4.76-6.46 2.04-1.54 4.42-2.312 7.14-2.312 2.765 0 5.168.771 7.208 2.312 2.085 1.496 3.672 3.65 4.76 6.46 1.133 2.766 1.7 6.075 1.7 9.928 0 3.808-.567 7.095-1.7 9.86a16.363 16.363 0 01-1.791 3.388.293.293 0 00-.047.029c-.047.059-.038.066-.013.058-.07.097-.14.194-.211.289-.111.09-.232.167-.36.23-.025.09-.085.139-.16.2-.039.03-.082.065-.126.11-.058.029-.069.02-.081.013-.01-.007-.019-.014-.06.002a2.556 2.556 0 01-.488.423c-.045-.009.046-.08.115-.133l.055-.044c-.169.09-.322.21-.453.354-.061.02-.061.004-.061-.013s0-.034-.06-.014a.425.425 0 01.105-.094c.045-.033.081-.058.068-.085a4.89 4.89 0 00-.866.65c-.089.034-.066-.003-.044-.04.022-.034.043-.069-.025-.048a2.68 2.68 0 01-.942.454.543.543 0 01-.353.172c-.022.023-.014.031-.006.04.011.01.022.02-.031.061-.108.018-.262.099-.408.175-.194.101-.373.195-.414.128a8.55 8.55 0 00-1.19.45c-.199.05-.402.077-.606.078-.062.05-.127.07-.192.09a.49.49 0 00-.206.1.149.149 0 01-.062-.007c-.009-.004-.012-.01-.016-.015-.006-.01-.013-.02-.055-.022a9.452 9.452 0 01-2.217.34c-.005.01-.015.02-.023.029-.011.011-.021.022-.019.028a14.966 14.966 0 00-1.789.06.476.476 0 01-.247-.037.604.604 0 00-.194-.043c-.014.007-.007.015 0 .024.008.01.017.019-.007.026a1.989 1.989 0 00-.705-.052l-.177-.088a3.155 3.155 0 01-.972-.096l-.944-.215c-.01.004-.013.009-.016.014-.004.006-.007.013-.027.017-.23-.065-.458-.136-.687-.206-.31-.096-.62-.192-.932-.274a19.702 19.702 0 01-1.233-.49l-.005-.002-.331-.14c-.113.003-.377-.144-.664-.312zm8.93 1.813l.072.002a.307.307 0 01-.055.005c-.011 0-.016-.003-.017-.007zm-.8.576a.436.436 0 01.159-.038c.068-.009.106-.013.012-.056.186-.033.375-.035.561-.004a.359.359 0 01-.086.037.243.243 0 00-.117.07.32.32 0 00-.164-.033c-.024.01-.014.018-.005.027.008.007.016.015.003.023-.045-.007-.091-.001-.137.004-.077.01-.153.02-.226-.03zm-2.596-41.021c-.147.02-.296.03-.445.03a.855.855 0 01.445-.03zm-11.613 4.905a.478.478 0 00-.142.068c-.073.043-.139.082-.126.03a.569.569 0 00.175-.093c.074-.05.128-.087.093-.005zm22.19 33.312c-.007-.061.188-.18.307-.205a.475.475 0 01-.307.205zm-3.008 1.387c-.054-.021.141-.147.207-.115a.38.38 0 00-.059.05c-.045.042-.09.084-.148.065zm1.686.175c.046-.118.412-.174.282-.124a.565.565 0 00-.107.056c-.055.034-.11.068-.175.068zm-1.594.59c.088-.053.182-.079.276-.105.08-.022.16-.045.236-.083-.039.1-.335.155-.502.186l-.01.002zm-1.433.103a.376.376 0 01.255-.09.454.454 0 01-.255.09zm-1.395.262a.335.335 0 01.228-.044c.007.047-.135.087-.228.044zm-1.115.235c-.011-.01.014-.026.04-.042.037-.023.075-.046-.006-.052-.11.04-.118.065-.127.09a.08.08 0 01-.038.048c-.028-.01-.056-.008-.084-.007a.405.405 0 01-.048 0 .147.147 0 01-.031-.006c.053-.06.115-.098.175-.137a.87.87 0 00.154-.115c.17.048.347.065.522.051a1.663 1.663 0 01-.557.17zm-2.24.034a.665.665 0 01.264 0 .244.244 0 01-.264 0zm-1.663-.182a.959.959 0 01.423.04c-.142.024-.406.03-.423-.04zm10.571 3.072c.093-.069.192-.127.297-.172-.029.035-.022.053-.015.071.008.021.016.042-.03.089-.09.024-.114.017-.139.01-.022-.007-.044-.014-.113.002zm.592-.345c.047.018.096 0 .163-.026a1.04 1.04 0 01.159-.05c-.097.054-.182.12-.259.182-.123.099-.227.181-.334.165.149-.088.178-.136.213-.19a.664.664 0 01.037-.055.376.376 0 01.021-.026zm-.655.252c.043.006.122-.036.19-.072.075-.04.138-.073.123-.026-.13.082-.274.138-.423.165.067-.056.04-.066-.052-.044.112-.09.236-.16.369-.208a.705.705 0 01-.102.074c-.076.05-.156.101-.105.11zm-13.161-3.482a.367.367 0 00-.084-.032c-.042-.012-.071-.02-.06-.05.103-.024.244.07.144.082zm12.832 3.7c.114-.05.232-.09.352-.12-.074.118-.38.16-.352.12zm-1.541.48c.048-.008.054-.018.064-.034a.121.121 0 01.024-.03.253.253 0 01.023-.017.558.558 0 01.14-.023c.068-.004.124-.007.255-.096.004-.022-.04-.014-.083-.007-.056.01-.109.019-.049-.038a.457.457 0 01.324-.04 1.314 1.314 0 01-.698.285zm-2.509-.113a.465.465 0 01-.235-.001c.105-.069.345-.07.235.001zm1.917.297c.055-.032.065-.052.074-.072.08-.017.162-.026.243-.025a.498.498 0 01-.317.097zm-2.704-.19a.634.634 0 00.133-.047c.073-.031.147-.063.221-.044a.853.853 0 01-.354.09zm2.128.184c.083-.077.174-.07.265-.061l.057.004c-.069.047-.144.049-.218.05a.747.747 0 00-.104.007zm-2.679-.155a.864.864 0 01.315-.071c.001.058-.201.1-.315.071zm-.475.17l.115-.045c.125-.047.183-.07.204-.127.094-.015.106.002.12.023a.07.07 0 00.035.03 1.42 1.42 0 01-.317.097c.018.002.04 0 .062 0 .045-.003.084-.005.056.02a1.056 1.056 0 01-.511.01c.015-.008.022-.017.029-.025.013-.016.027-.032.092-.055.098.005.096.023.095.042-.001.011-.002.023.02.03zm-.585-.07c.259-.063.522-.104.787-.124-.038.119-.518.157-.787.123zm3.896.416c.201-.062.404-.11.61-.147a1.62 1.62 0 01-.61.147zm-1.233-.073l.003-.007c.012-.038.031-.099.193-.107a.245.245 0 01-.196.114zm.297.223c-.124.014-.065-.017-.007-.048.048-.026.097-.052.042-.052-.048 0-.095.022-.143.043-.059.026-.118.053-.179.039.205-.095.421-.158.642-.19-.022.032-.08.055-.144.082-.077.032-.165.068-.211.126zm-3.316-.54l.201-.071.021.007.014.004c.036.011.073.022.042.036-.041-.015-.084.002-.127.02-.052.02-.104.04-.151.004zm1.579.359a.74.74 0 00.029-.018.962.962 0 01.161.002l-.202.093c-.101-.01-.044-.044.012-.077zm.676.267c-.092-.033-.088-.08.04-.145.192.017.113.116-.04.145zm-2.067-.495c-.122.063-.319 0-.314-.038.124-.041.148-.028.191-.005a.37.37 0 00.123.043zm1.373.61a.64.64 0 00-.204-.008.97.97 0 01.171-.036.326.326 0 00.197-.08c.036.038.095.03.168.018a.648.648 0 01.199-.01.926.926 0 01-.261.057.9.9 0 00-.27.06zm-1.137.02c.135.045.332.008.505-.025.155-.03.291-.055.348-.016a4.91 4.91 0 00-.205.036c-.287.054-.678.128-.648.006zm.246-.018c.035-.016.029-.026.022-.037-.008-.013-.017-.026.062-.051a.713.713 0 01.201.01.556.556 0 00-.132.048c-.032.018-.052.029-.153.03zm-1.437.105c-.045-.023-.093-.018-.141-.014-.048.004-.096.009-.141-.014a.914.914 0 01.331-.037c-.027.012-.028.023-.028.034-.001.01-.001.02-.021.03zm-3.39-1.02l.053.005c.172.015.414.036.31.1-.054-.037-.169-.052-.265-.065-.091-.012-.166-.022-.154-.046l.056.006zm.045.075a.47.47 0 01.27.06c-.049.002-.078.02-.104.035-.032.02-.059.036-.115.016.026-.016.003-.041-.02-.066-.015-.015-.03-.031-.031-.045zm-.148.089c-.191-.07.008-.126.141-.065-.002.005-.002.01-.003.016-.001.024-.003.048-.138.048zm1.502.749c-.055-.042-.121-.039-.186-.036-.06.003-.12.005-.172-.027.205-.019.412-.017.617.005l-.259.058zm-1.529-.652l.171-.021.109.057a.465.465 0 01-.28-.036zm-.634-.367c-.125.014-.16-.01-.206-.044-.035-.024-.076-.054-.167-.074.137.003.376.069.373.118zm-.486-.151l-.138-.076c.095-.029.375.005.309.056a.152.152 0 00-.088-.016.16.16 0 00-.083.036zm.433.32a3.389 3.389 0 00-.533-.146c.047-.012.056-.03.064-.045.013-.023.023-.042.168-.029.114.043.089.06.065.078-.014.01-.027.02-.019.033.121.02.242.029.364.026.13.058.021.072-.109.083zm1.289.746a.721.721 0 01.417-.02.998.998 0 01-.417.02zm-4.082-1.52c-.009.03-.187.004-.289-.041.044-.004-.001-.025-.06-.051-.055-.025-.123-.055-.14-.083.168.039.333.097.489.174zm4.088 1.495a2.06 2.06 0 01-.601-.102c.205-.005.408.03.601.102zm-1.51-.696a.33.33 0 00.087.016c.051.005.102.01.141.05-.078.053-.31-.047-.228-.066zm-.733-.176c.104-.005.405.022.348.082a.713.713 0 00-.163-.036.615.615 0 01-.185-.046zm1.277.72c.01-.037.222-.029.329.031a.663.663 0 01-.329-.032zm-2.31-1.03l.052.009c.124.02.34.056.288.103a1.918 1.918 0 01-.34-.112zm.59.574a.39.39 0 01.279.066.388.388 0 01-.279-.066zm-1.259.054a.627.627 0 00-.352-.064.587.587 0 01-.156-.009c-.08-.07-.035-.066.04-.058a.411.411 0 00.172-.008c.043.052.111.05.18.047.023 0 .046-.002.069 0 .09.052.118.086.047.092zm-1.305-.689c.012-.03.206-.02.295.052a.526.526 0 00-.114-.01c-.066-.002-.133-.005-.181-.042zm.113.315c.056-.003.102.012.149.027a.4.4 0 00.149.026.59.59 0 00-.059-.04l-.023-.013c-.049-.029-.072-.042-.005-.05.033.02.087.042.145.066.13.055.279.118.25.16a1.534 1.534 0 01-.606-.176zm-1.489-1.26c.077.029.149.065.222.1.074.037.147.074.224.103-.03.029-.467-.146-.446-.204zm1.151 1.016a.14.14 0 00.101-.013.468.468 0 00.065.038l.084.04c.101.048.203.097.166.117-.057-.041-.126-.06-.194-.08a.53.53 0 01-.222-.102zm-.753-.334a7.2 7.2 0 01.689.28l-.133-.013a2.076 2.076 0 00-.278-.133 1.979 1.979 0 01-.278-.134zm-.313-.119c.037.007.02-.014.002-.035-.016-.02-.033-.04-.006-.037a.335.335 0 00.059.04.847.847 0 00.079.038.488.488 0 01.147.086.427.427 0 01-.281-.092zm-.677-.399a.858.858 0 01.38.172 1.37 1.37 0 01-.38-.172zm.273.341a2.885 2.885 0 01-.577-.333c.103.048.148.044.191.04.04-.003.077-.007.159.033.101.07.072.091.051.107-.018.014-.031.024.042.054.026.002.032-.008.037-.017.009-.016.018-.031.12.002.07.07.035.086 0 .102l-.023.012zm-.785-.612c.026-.015.078-.015.188.016.034.054.087.08.139.108a.367.367 0 01.126.088l-.087-.018a.364.364 0 00-.172-.103 1.004 1.004 0 01-.194-.091zm-1.866-39.349c.094-.055.193-.098.297-.127a1.93 1.93 0 01-.387.33l-.118.03.05-.04c.074-.06.1-.08.118-.107a.473.473 0 00.027-.055c.003-.01.008-.02.013-.03zm1.168-.656a.614.614 0 00-.216.117c-.071.052-.118.087-.118.018.037-.01.095-.044.154-.078.093-.054.186-.108.18-.057zm3.585-1.78c.106-.065.221-.111.341-.138.005.022-.036.045-.091.075a.712.712 0 00-.161.11c-.076.014-.07-.003-.064-.02.005-.014.01-.027-.025-.026zm.811-.232c-.1.015-.132.038-.164.06-.03.021-.059.042-.143.054-.044-.026.346-.211.307-.114zm11.741-.335a.566.566 0 00-.227-.062.64.64 0 01-.208-.05c.145-.028.471.056.435.112zm.637.16a3.558 3.558 0 01-.582-.183c.206.003.407.067.582.183zm.297.042l-.175-.016a1.232 1.232 0 00-.1-.072c.086-.018.15.019.212.055.021.011.041.023.063.033zM22.776 10.066H.064l.068.68h.816c1.179 0 2.199.431 3.06 1.292.861.816 1.292 1.814 1.292 2.992v37.672c-.045 1.18-.499 2.2-1.36 3.06-.816.816-1.813 1.224-2.992 1.224H.064v.68h20.672v-.68h-.884c-1.179 0-2.199-.408-3.06-1.224a4.569 4.569 0 01-1.292-3.06v-39.78h4.488c2.765 0 4.896.884 6.392 2.652 1.541 1.723 2.335 4.035 2.38 6.936.045.635.023 1.338-.068 2.108a8.514 8.514 0 01-.34 1.972c-.453 1.723-1.11 3.106-1.972 4.148-.861 1.043-1.79 1.814-2.788 2.312-.952.5-1.881.84-2.788 1.02-.861.182-1.587.272-2.176.272h-.816v.68c1.95 1.27 3.944 2.063 5.984 2.38 2.085.272 4.08.136 5.984-.408 1.95-.589 3.672-1.518 5.168-2.788 1.496-1.269 2.675-2.856 3.536-4.76.861-1.904 1.247-4.012 1.156-6.324-.09-2.493-.748-4.714-1.972-6.664-1.179-1.994-2.992-3.558-5.44-4.692-2.403-1.133-5.553-1.7-9.452-1.7zm52.988 43.112L57.61 15.03h-.544c-.045.454-.227 1.088-.544 1.904-.317.771-.657 1.61-1.02 2.516-.363.862-.703 1.655-1.02 2.38-.317.68-.521 1.156-.612 1.428l-13.919 29.92h-.021c-.635 1.406-1.45 2.403-2.448 2.992-.997.544-1.95.816-2.856.816h-.544v.68h13.6v-.68h-.544c-.77 0-1.473-.317-2.108-.952-.6-.643-.694-1.53-.28-2.66l2.75-6.384h14.368l2.898 6.84c.235.916.094 1.65-.423 2.204-.635.635-1.337.952-2.108.952h-.544v.68h38.457v-.68h-1.156c-.998 0-1.859-.317-2.584-.952a3.547 3.547 0 01-1.156-2.516V31.067l31.212 27.483h.612l-.204-.952c-.091-.68-.204-1.609-.34-2.788a57.564 57.564 0 01-.136-4.216v-29.58c0-.997.362-1.813 1.088-2.448.77-.68 1.654-1.02 2.652-1.02h1.156v-.68h-19.108v.68h1.156c1.042 0 1.904.34 2.584 1.02.725.635 1.11 1.451 1.156 2.448v22.337L85.868 15.914h-.612l.34 2.176c.226 1.406.34 3.264.34 5.576v29.852c0 .998-.363 1.836-1.088 2.516-.726.635-1.61.952-2.652.952h-1.058c-.907 0-1.859-.272-2.856-.816-.997-.589-1.836-1.586-2.516-2.992h-.002zM54.741 30.171l6.002 14.167H48.641l6.1-14.167zm115.671-10.857c-3.491-1.632-7.661-2.448-12.512-2.448h-22.984v.68h.816c1.043 0 1.927.34 2.652 1.02.771.68 1.179 1.542 1.224 2.584v32.164c0 .998-.385 1.86-1.156 2.584-.725.726-1.609 1.088-2.652 1.088h-.884v.68H157.9c4.851 0 9.021-.816 12.512-2.448 3.491-1.632 6.165-3.966 8.024-7.004 1.859-3.037 2.788-6.686 2.788-10.948 0-4.26-.929-7.91-2.788-10.948-1.859-3.082-4.533-5.417-8.024-7.004zm-19.448 35.632H149.4V19.518h7.684c4.261 0 7.616 1.587 10.064 4.76 2.448 3.128 3.672 7.458 3.672 12.988 0 5.531-1.224 9.86-3.672 12.988-2.448 3.128-5.803 4.692-10.064 4.692h-6.12zm48.438-18.836V19.586h9.792c1.995.046 3.514.635 4.556 1.768 1.088 1.134 1.632 2.698 1.632 4.692v.612h.68V15.846c-.544.182-1.541.408-2.992.68-1.45.227-2.833.34-4.148.34h-23.868v.68h.884c.998 0 1.836.34 2.516 1.02.726.68 1.111 1.542 1.156 2.584v32.232c-.045.998-.43 1.86-1.156 2.584-.68.68-1.518 1.02-2.516 1.02h-.884v.68h32.028l2.584-12.512h-.612c-.589 1.995-1.428 3.74-2.516 5.236-1.088 1.451-2.402 2.584-3.944 3.4-1.496.771-3.218 1.156-5.168 1.156h-8.024V38.83h7.752c1.587.046 2.834.567 3.74 1.564.952.998 1.428 2.244 1.428 3.74v.544h.68V30.262h-.68v.476c0 1.496-.476 2.766-1.428 3.808-.906.998-2.153 1.52-3.74 1.564h-7.752zm69.663-20.128l-18.044 28.766-19.22-28.766h-.544l-5.237 37.332h-.067c-.181 1.18-.703 2.086-1.564 2.72-.816.635-1.791.952-2.924.952h-.884v.68h12.92v-.68h-.952c-.907 0-1.541-.317-1.904-.952-.252-.472-.405-.9-.46-1.285l2.383-19.56 15.689 23.77h.612c.045-1.043.249-2.086.612-3.129.408-1.042.816-1.926 1.224-2.652l.612-1.156 10.867-17.249 2.617 19.493h-.02c.091.5-.023 1.088-.34 1.768-.317.635-.975.952-1.972.952h-.952v.68h18.904v-.68h-.952a4.703 4.703 0 01-2.856-.952c-.816-.634-1.337-1.54-1.564-2.72h-.013l-5.359-37.332h-.612zm100.093 27.37l-31.212-27.438h-.612l.34 2.176c.227 1.406.34 3.264.34 5.576v29.852c0 .998-.363 1.836-1.088 2.516-.725.635-1.609.952-2.652.952h-1.088v.68h19.04v-.68h-1.156c-.997 0-1.859-.317-2.584-.952a3.546 3.546 0 01-1.156-2.516V31.067l31.212 27.483h.612l-.204-.952c-.091-.68-.204-1.609-.34-2.788a57.564 57.564 0 01-.136-4.216v-29.58c0-.997.363-1.813 1.088-2.448.771-.68 1.655-1.02 2.652-1.02h1.156v-.68h-19.108v.68h1.156c1.043 0 1.904.34 2.584 1.02.725.635 1.111 1.451 1.156 2.448v22.337zm32.32 14.314h-14.416v-.68h.884c1.043 0 1.949-.34 2.72-1.02.771-.725 1.156-1.586 1.156-2.584V21.15c0-1.042-.385-1.904-1.156-2.584-.771-.68-1.7-1.02-2.788-1.02h-.816v-.68h19.312l-.068.68h-.748c-1.088 0-2.017.34-2.788 1.02-.725.68-1.111 1.542-1.156 2.584v32.232c.045.998.431 1.86 1.156 2.584.771.68 1.7 1.02 2.788 1.02h.816v.68h-4.896zm22.687-15.164v-22.1c0-.86.295-1.564.884-2.108s1.315-.816 2.176-.816h.952v-.612h-17.884v.612h.952c.861 0 1.587.272 2.176.816.589.544.907 1.247.952 2.108V42.91c0 4.851 1.609 8.682 4.828 11.492 3.219 2.766 8.115 4.148 14.688 4.148 5.44 0 9.633-1.405 12.58-4.216 2.992-2.81 4.488-6.64 4.488-11.492v-22.44c0-.86.295-1.564.884-2.108.635-.544 1.383-.816 2.244-.816h.884v-.612h-12.512v.612h.952a3 3 0 012.108.816c.589.544.907 1.247.952 2.108V43.25c-.045 3.944-1.065 7.027-3.06 9.248-1.949 2.222-4.715 3.332-8.296 3.332-3.445 0-6.143-1.178-8.092-3.536-1.904-2.357-2.856-5.62-2.856-9.792zm79.381-26.52l-18.044 28.766-19.22-28.766h-.544L460.5 53.314h-.066c-.182 1.18-.703 2.086-1.564 2.72-.816.635-1.791.952-2.924.952h-.884v.68h12.92v-.68h-.952c-.907 0-1.542-.317-1.904-.952-.252-.472-.406-.9-.461-1.285l2.384-19.56 15.689 23.77h.612c.045-1.043.249-2.086.612-3.129.408-1.042.816-1.926 1.224-2.652l.612-1.156 10.866-17.249 2.617 19.493h-.019c.09.5-.023 1.088-.34 1.768-.318.635-.975.952-1.972.952h-.952v.68h18.904v-.68h-.952a4.703 4.703 0 01-2.856-.952c-.816-.634-1.338-1.54-1.564-2.72h-.013l-5.359-37.332h-.612z"/></symbol><symbol viewBox="0 0 13.07 18" id="q" xmlns="http://www.w3.org/2000/svg"><path d="M8.491 13.5H5.116a.54.54 0 00-.394.168.54.54 0 00-.168.394v3.376c0 .15.056.28.168.393a.54.54 0 00.394.169h3.375a.54.54 0 00.394-.169.539.539 0 00.169-.393v-3.376a.538.538 0 00-.17-.393.539.539 0 00-.393-.17zm4.43-10.104a5.831 5.831 0 00-1.49-1.793A7.623 7.623 0 009.376.436 6.303 6.303 0 007.113 0C4.263 0 2.088 1.247.588 3.74a.555.555 0 00.14.746l2.307 1.758c.122.075.24.112.352.112a.547.547 0 00.436-.225c.675-.844 1.176-1.383 1.504-1.617.404-.272.91-.408 1.52-.408.57 0 1.075.15 1.51.45.437.3.654.647.654 1.04 0 .441-.117.798-.351 1.07-.234.271-.628.534-1.181.787-.731.328-1.402.837-2.011 1.526-.61.689-.914 1.423-.914 2.2v.633c0 .179.049.354.147.528.099.173.218.26.359.26h3.375c.15 0 .281-.072.394-.218a.736.736 0 00.169-.457c0-.234.128-.548.386-.942.258-.394.579-.699.964-.914.365-.207.65-.373.857-.5a7.13 7.13 0 00.81-.611c.332-.282.59-.56.772-.837.183-.277.347-.635.493-1.076a4.5 4.5 0 00.218-1.42c0-.778-.193-1.521-.577-2.229z"/></symbol><symbol viewBox="0 0 32 32" id="sun" xmlns="http://www.w3.org/2000/svg"><path d="M16 8c-4.4 0-8 3.6-8 8s3.6 8 8 8 8-3.6 8-8-3.6-8-8-8zm0-1c.6 0 1-.4 1-1V3c0-.6-.4-1-1-1s-1 .4-1 1v3c0 .6.4 1 1 1zM8.2 9.6c.2.2.5.3.7.3s.5-.1.7-.3c.4-.4.4-1 0-1.4L7.5 6.1c-.4-.4-1-.4-1.4 0s-.4 1 0 1.4l2.1 2.1zM7 16c0-.6-.4-1-1-1H3c-.6 0-1 .4-1 1s.4 1 1 1h3c.6 0 1-.4 1-1zm1.2 6.4l-2.1 2.1c-.4.4-.4 1 0 1.4.2.2.5.3.7.3s.5-.1.7-.3l2.1-2.1c.4-.4.4-1 0-1.4s-1-.4-1.4 0zM16 25c-.6 0-1 .4-1 1v3c0 .6.4 1 1 1s1-.4 1-1v-3c0-.6-.4-1-1-1zm7.8-2.6c-.4-.4-1-.4-1.4 0s-.4 1 0 1.4l2.1 2.1c.2.2.5.3.7.3s.5-.1.7-.3c.4-.4.4-1 0-1.4l-2.1-2.1zM29 15h-3c-.6 0-1 .4-1 1s.4 1 1 1h3c.6 0 1-.4 1-1s-.4-1-1-1zm-5.9-5.1c.3 0 .5-.1.7-.3l2.1-2.1c.4-.4.4-1 0-1.4s-1-.4-1.4 0l-2.1 2.1c-.4.4-.4 1 0 1.4.2.2.4.3.7.3z"/></symbol><symbol viewBox="0 0 24.76 20.61" id="telegram" xmlns="http://www.w3.org/2000/svg"><path d="M1.29 10.853l5.636 1.914 13.379-8.18c.194-.118.392.145.225.3l-10.129 9.322-.377 5.22a.432.432 0 00.734.339l3.119-3.067 5.7 4.316a1.057 1.057 0 001.671-.615l3.97-18.025a1.322 1.322 0 00-1.765-1.52L1.262 9.355c-.697.267-.678 1.258.028 1.498z"/></symbol><symbol viewBox="0 0 977 1086" id="telegram_arr" xmlns="http://www.w3.org/2000/svg"><path d="M651 46.9c-88 38.6-97.6 43.1-98.5 45.5-1.9 5.3.3 7 25.5 19.5l23.5 11.6 5.8 35c4 24.3 6.3 35.5 7.4 36.7.9 1 3 1.8 4.7 1.8 2.7 0 5.6-2.4 21.6-18.5 10.2-10.2 18.8-18.5 19.2-18.5.4 0 12.4 8.4 26.7 18.6 22.7 16.2 26.4 18.5 29.3 18.2 2.3-.2 3.6-1 4.5-2.8C721.8 191.8 758 12.6 758 9.2c0-2.2-3.9-5.2-6.7-5.1-1.6 0-46.7 19.3-100.3 42.8zm74.5 59c-7.9 39.8-14.6 72.6-14.8 72.8-.3.2-65.2-45.5-68.7-48.4-.2-.2 21.6-22.4 48.5-49.3 27-27 49.1-48.7 49.3-48.2.1.4-6.3 33.3-14.3 73.1zM699 41.4c-3.6 3.3-91.6 68.9-92.5 68.9-2.2 0-31.5-14.7-30.8-15.4.7-.7 123-54.7 124.3-54.8.2-.1-.2.5-1 1.3zm-46.7 58.8c-30.1 30.3-27 25.9-30.4 43.8-.6 3.6-1.5 6.8-1.8 7.3-.8.8-5.5-27.5-4.9-29.3.3-1 62.4-48.6 63.8-48.9.2 0-11.8 12.2-26.7 27.1zm-9.2 47l5.9 4.2-9.2 9.3c-5 5.1-9.3 9.1-9.4 9-.6-.6 5.2-26.7 5.9-26.7.4 0 3.5 1.9 6.8 4.2zm301.6-43.6c-1.4 1.4-2.9 4-3.2 5.7-1.7 7.7-13.9 48.9-20 67.2-70 209.8-197.8 381.6-380.1 511-139.1 98.8-320.6 173.3-492.1 202-1.8.3-3.3.3-3.3 0s13-17 28.8-37.3c15.9-20.2 29.2-37.9 29.6-39.4.8-3.4-1.5-9.2-4.2-10.7-3.2-1.7-9.7-1.3-12 .6-1.1 1-19.6 24.2-41.1 51.6C9.5 902.2 8 904.2 8 908.4c0 3.3.6 4.8 2.7 6.8 1.6 1.4 28 16.3 58.9 33.2 61.5 33.6 61.3 33.5 66.8 28 3.5-3.6 3.7-10.4.4-13.7-1.3-1.2-22.4-13.2-47-26.7-24.6-13.4-44.5-24.7-44.3-25.1.3-.3 2.8-.9 5.7-1.3 10.4-1.3 38.7-6.8 60.3-11.6 130.2-29.2 259.1-80.6 372-148.3C594 683.5 691.9 598.4 769.7 500.8c65.9-82.6 119.4-177.3 157.4-278.8 14.5-39 34-102.1 34.3-111.3.1-4.2-.3-5.2-2.7-7.3-4-3.4-10.5-3.3-14 .2zM856 588.8c-88.1 38.6-97.5 43-98.4 45.4-2 5.6-.3 6.8 24.8 19.1 19.2 9.4 23.6 12 24.1 13.9.3 1.2 2.9 17.1 5.9 35.2 5.9 35.2 6.3 36.6 11.9 36.6 2.6 0 5.7-2.6 21.7-18.5 10.2-10.2 18.9-18.5 19.2-18.5.4 0 12.4 8.3 26.6 18.5 26.4 18.9 29.2 20.3 32.6 16.9 2-2-.2 8.2 20.6-95.8 19.8-99.3 19.3-94.8 12-95.3-2.7-.2-24.9 9.1-101 42.5zm74.4 58.6c-11.2 56-15 73.4-15.9 72.8-4.5-2.5-67.4-47.8-67.2-48.4.4-1.3 96.9-98.9 97.4-98.4.2.2-6.2 33.5-14.3 74zm-28.1-63.1c-1.5 1.3-22.6 17.2-46.8 35.4l-44 32.9-15.8-7.4c-8.6-4.2-15.7-7.8-15.7-8.1 0-.6 122.6-54.8 124.3-55 .5-.1-.4 1-2 2.2zm-44.5 57.4L830 669.5l-2.5 12.4c-1.4 6.8-2.5 12.7-2.6 13-.1.3-1.4-6.6-2.9-15.4-2-11.6-2.5-16.2-1.6-16.7.6-.4 15.3-11.5 32.6-24.7s31.7-24 32-24c.3-.1-12 12.4-27.2 27.6zm-9.5 47.7l5.7 4-9.2 9.3c-5 5.1-9.3 9.1-9.5 9-.1-.2.9-6.5 2.4-13.9 1.7-8.7 3.1-13.4 3.8-13.1.5.4 3.6 2.5 6.8 4.7zM280.5 925.6c-53.3 23.4-97.6 43.2-98.2 44.1-1.8 2.4-1.6 6.7.5 8.5.9.9 11.9 6.6 24.4 12.6 18.6 9 22.8 11.4 23.3 13.4.3 1.2 2.9 17.1 5.9 35.2 5.9 35.2 6.3 36.6 11.9 36.6 2.6 0 5.7-2.6 21.7-18.5 10.2-10.2 18.8-18.5 19.1-18.5.3 0 12.2 8.3 26.5 18.5 26.1 18.7 28.8 20.1 32.7 17.3 2.4-1.8 39.1-184.7 37.7-188.2-.9-2.5-2.9-3.6-6.3-3.6-1.2.1-45.8 19.2-99.2 42.6zm74 58.6c-8.1 40.3-14.8 73.4-14.9 73.6-.2.1-65-45.7-68.5-48.4-.2-.2 21.6-22.6 48.5-49.8 26.8-27.3 48.9-49.4 49.2-49.2.2.2-6.3 33.4-14.3 73.8zm-26-64.4c-.6.5-21.2 16.1-46 34.7-24.7 18.6-45.5 34.1-46 34.6-1 .8-32.5-13.8-32.5-15 0-.5 123.7-55 125-55.1.2 0 0 .4-.5.8zm-47.2 59.4l-27.3 27.3-2.5 12.4c-1.4 6.8-2.5 12.7-2.6 13-.1.3-1.4-6.6-2.9-15.4-2.5-14.6-2.6-16.1-1.1-17.2.9-.6 15.3-11.5 32.1-24.1 16.8-12.7 30.7-23.1 31-23.1.3-.1-11.8 12.2-26.7 27.1zm-9.1 47.3l5.7 4.1-9.6 9.5c-7.3 7.2-9.4 8.8-9 6.9.3-1.4 1.6-7.8 2.8-14.2 1.5-7.4 2.7-11.4 3.3-11 .6.3 3.7 2.4 6.8 4.7z"/></symbol><symbol viewBox="0 0 24.71 27.96" id="ticktok" xmlns="http://www.w3.org/2000/svg"><path d="M25.267 7.021A7.044 7.044 0 0121.011 5.6 7.06 7.06 0 0118.197.02h-4.564v12.473l-.006 6.832a4.132 4.132 0 01-2.838 3.92 4.153 4.153 0 01-1.534.204 4.114 4.114 0 01-1.89-.58 4.131 4.131 0 01-2.02-3.481 4.135 4.135 0 014.141-4.192c.456 0 .893.074 1.303.209V10.77a8.98 8.98 0 00-1.317-.097 8.753 8.753 0 00-6.577 2.942 8.563 8.563 0 00-2.16 5.165 8.552 8.552 0 002.547 6.663 8.754 8.754 0 006.19 2.534 8.98 8.98 0 001.317-.097 8.724 8.724 0 004.874-2.437 8.546 8.546 0 002.563-6.082L18.203 9.16a11.54 11.54 0 007.078 2.405V7.02l-.014.001z"/></symbol><symbol viewBox="0 0 28.08 24.43" id="twitter" xmlns="http://www.w3.org/2000/svg"><path d="M27.876 4.99a.835.835 0 00-.784-.395l-1.396.122 1.335-2.69A.835.835 0 0025.916.904l-3.532 1.73c-2.183-1.152-4.909-.81-6.785.9-1.566 1.425-2.389 3.619-2.235 5.806-4.092-.41-7.556-2.752-9.605-6.537a.835.835 0 00-1.405-.1C1.084 4.421.994 6.774 1.99 8.71c-.274-.07-.566-.164-.89-.272a.835.835 0 00-1.089.928c.394 2.39 1.787 4.225 3.988 5.312-.286.1-.579.181-.876.243a.835.835 0 00-.44 1.388c1.586 1.694 3.875 2.528 5.501 2.928-1.849 1.448-3.845 1.69-6.745 1.59a.837.837 0 00-.647 1.396C2 23.556 6.406 25.058 11.036 25.171c.183.005.37.007.561.007 3.251 0 7.548-.697 10.632-3.781 2.335-2.335 3.795-5.022 4.34-7.987.44-2.396.162-4.314.028-5.235l-.029-.203 1.306-2.105a.835.835 0 00.002-.877z"/></symbol></svg>